<svg class="main-svg" xmlns="http://www.w3.org/2000/svg" xmlns:xlink="http://www.w3.org/1999/xlink" width="900" height="520" style="" viewBox="0 0 900 520"><rect x="0" y="0" width="900" height="520" style="fill: rgb(255, 255, 255); fill-opacity: 1;"/><defs id="defs-c3de8c"><g class="clips"><clipPath id="clipc3de8cxyplot" class="plotclip"><rect width="672" height="410"/></clipPath><clipPath class="axesclip" id="clipc3de8cx"><rect x="133" y="0" width="672" height="520"/></clipPath><clipPath class="axesclip" id="clipc3de8cy"><rect x="0" y="50" width="900" height="410"/></clipPath><clipPath class="axesclip" id="clipc3de8cxy"><rect x="133" y="50" width="672" height="410"/></clipPath></g><g class="gradients"/><g class="patterns"/></defs><g class="bglayer"/><g class="layer-below"><g class="imagelayer"/><g class="shapelayer"/></g><g class="cartesianlayer"><g class="subplot xy"><g class="layer-subplot"><g class="shapelayer"/><g class="imagelayer"/></g><g class="minor-gridlayer"><g class="x"/><g class="y"/></g><g class="gridlayer"><g class="x"><path class="xgrid crisp" transform="translate(221.05,0)" d="M0,50v410" style="stroke: rgb(240, 240, 240); stroke-opacity: 1; stroke-width: 1px;"/><path class="xgrid crisp" transform="translate(309.1,0)" d="M0,50v410" style="stroke: rgb(240, 240, 240); stroke-opacity: 1; stroke-width: 1px;"/><path class="xgrid crisp" transform="translate(397.14,0)" d="M0,50v410" style="stroke: rgb(240, 240, 240); stroke-opacity: 1; stroke-width: 1px;"/><path class="xgrid crisp" transform="translate(485.19,0)" d="M0,50v410" style="stroke: rgb(240, 240, 240); stroke-opacity: 1; stroke-width: 1px;"/><path class="xgrid crisp" transform="translate(573.24,0)" d="M0,50v410" style="stroke: rgb(240, 240, 240); stroke-opacity: 1; stroke-width: 1px;"/><path class="xgrid crisp" transform="translate(661.29,0)" d="M0,50v410" style="stroke: rgb(240, 240, 240); stroke-opacity: 1; stroke-width: 1px;"/><path class="xgrid crisp" transform="translate(749.34,0)" d="M0,50v410" style="stroke: rgb(240, 240, 240); stroke-opacity: 1; stroke-width: 1px;"/></g><g class="y"><path class="ygrid crisp" transform="translate(0,433.25)" d="M133,0h672" style="stroke: rgb(240, 240, 240); stroke-opacity: 1; stroke-width: 1px;"/><path class="ygrid crisp" transform="translate(0,397.6)" d="M133,0h672" style="stroke: rgb(240, 240, 240); stroke-opacity: 1; stroke-width: 1px;"/><path class="ygrid crisp" transform="translate(0,361.95)" d="M133,0h672" style="stroke: rgb(240, 240, 240); stroke-opacity: 1; stroke-width: 1px;"/><path class="ygrid crisp" transform="translate(0,326.3)" d="M133,0h672" style="stroke: rgb(240, 240, 240); stroke-opacity: 1; stroke-width: 1px;"/><path class="ygrid crisp" transform="translate(0,290.65)" d="M133,0h672" style="stroke: rgb(240, 240, 240); stroke-opacity: 1; stroke-width: 1px;"/><path class="ygrid crisp" transform="translate(0,255)" d="M133,0h672" style="stroke: rgb(240, 240, 240); stroke-opacity: 1; stroke-width: 1px;"/><path class="ygrid crisp" transform="translate(0,219.35)" d="M133,0h672" style="stroke: rgb(240, 240, 240); stroke-opacity: 1; stroke-width: 1px;"/><path class="ygrid crisp" transform="translate(0,183.7)" d="M133,0h672" style="stroke: rgb(240, 240, 240); stroke-opacity: 1; stroke-width: 1px;"/><path class="ygrid crisp" transform="translate(0,148.05)" d="M133,0h672" style="stroke: rgb(240, 240, 240); stroke-opacity: 1; stroke-width: 1px;"/><path class="ygrid crisp" transform="translate(0,112.4)" d="M133,0h672" style="stroke: rgb(240, 240, 240); stroke-opacity: 1; stroke-width: 1px;"/><path class="ygrid crisp" transform="translate(0,76.75)" d="M133,0h672" style="stroke: rgb(240, 240, 240); stroke-opacity: 1; stroke-width: 1px;"/></g></g><g class="zerolinelayer"><path class="xzl zl crisp" transform="translate(133,0)" d="M0,50v410" style="stroke: rgb(255, 255, 255); stroke-opacity: 1; stroke-width: 2px;"/></g><g class="layer-between"><g class="shapelayer"/><g class="imagelayer"/></g><path class="xlines-below"/><path class="ylines-below"/><g class="overlines-below"/><g class="xaxislayer-below"/><g class="yaxislayer-below"/><g class="overaxes-below"/><g class="overplot"><g class="xy" transform="translate(133,50)" clip-path="url(#clipc3de8cxyplot)"><g class="barlayer mlayer"><g class="trace bars" style="opacity: 1;"><g class="points"><g class="point"><path d="M0,397.51V368.99H135.29V397.51Z" style="vector-effect: none; opacity: 1; stroke-width: 0.5px; fill: rgb(173, 181, 189); fill-opacity: 1; stroke: rgb(255, 255, 255); stroke-opacity: 1;"/><text class="bartext bartext-outside" text-anchor="middle" data-notex="1" x="0" y="0" style="font-family: Arial, Helvetica, sans-serif; font-size: 11px; fill: rgb(34, 34, 34); fill-opacity: 1; white-space: pre;" transform="translate(150.836875,387.25)">7.7%</text></g><g class="point"><path d="M0,361.86V333.34H272.33V361.86Z" style="vector-effect: none; opacity: 1; stroke-width: 0.5px; fill: rgb(173, 181, 189); fill-opacity: 1; stroke: rgb(255, 255, 255); stroke-opacity: 1;"/><text class="bartext bartext-outside" text-anchor="middle" data-notex="1" x="0" y="0" style="font-family: Arial, Helvetica, sans-serif; font-size: 11px; fill: rgb(34, 34, 34); fill-opacity: 1; white-space: pre;" transform="translate(290.939375,351.6)">15.5%</text></g><g class="point"><path d="M0,326.21V297.69H294.61V326.21Z" style="vector-effect: none; opacity: 1; stroke-width: 0.5px; fill: rgb(173, 181, 189); fill-opacity: 1; stroke: rgb(255, 255, 255); stroke-opacity: 1;"/><text class="bartext bartext-outside" text-anchor="middle" data-notex="1" x="0" y="0" style="font-family: Arial, Helvetica, sans-serif; font-size: 11px; fill: rgb(34, 34, 34); fill-opacity: 1; white-space: pre;" transform="translate(313.219375,315.95)">16.7%</text></g><g class="point"><path d="M0,290.56V262.04H327.1V290.56Z" style="vector-effect: none; opacity: 1; stroke-width: 0.5px; fill: rgb(173, 181, 189); fill-opacity: 1; stroke: rgb(255, 255, 255); stroke-opacity: 1;"/><text class="bartext bartext-outside" text-anchor="middle" data-notex="1" x="0" y="0" style="font-family: Arial, Helvetica, sans-serif; font-size: 11px; fill: rgb(34, 34, 34); fill-opacity: 1; white-space: pre;" transform="translate(345.709375,280.3)">18.6%</text></g><g class="point"><path d="M0,254.91V226.39H339.57V254.91Z" style="vector-effect: none; opacity: 1; stroke-width: 0.5px; fill: rgb(173, 181, 189); fill-opacity: 1; stroke: rgb(255, 255, 255); stroke-opacity: 1;"/><text class="bartext bartext-outside" text-anchor="middle" data-notex="1" x="0" y="0" style="font-family: Arial, Helvetica, sans-serif; font-size: 11px; fill: rgb(34, 34, 34); fill-opacity: 1; white-space: pre;" transform="translate(358.179375,244.64999999999998)">19.3%</text></g><g class="point"><path d="M0,219.26V190.74H343.46V219.26Z" style="vector-effect: none; opacity: 1; stroke-width: 0.5px; fill: rgb(192, 57, 43); fill-opacity: 1; stroke: rgb(255, 255, 255); stroke-opacity: 1;"/><text class="bartext bartext-outside" text-anchor="middle" data-notex="1" x="0" y="0" style="font-family: Arial, Helvetica, sans-serif; font-size: 11px; fill: rgb(34, 34, 34); fill-opacity: 1; white-space: pre;" transform="translate(362.069375,209)">19.5%</text></g><g class="point"><path d="M0,183.61V155.09H389.67V183.61Z" style="vector-effect: none; opacity: 1; stroke-width: 0.5px; fill: rgb(173, 181, 189); fill-opacity: 1; stroke: rgb(255, 255, 255); stroke-opacity: 1;"/><text class="bartext bartext-outside" text-anchor="middle" data-notex="1" x="0" y="0" style="font-family: Arial, Helvetica, sans-serif; font-size: 11px; fill: rgb(34, 34, 34); fill-opacity: 1; white-space: pre;" transform="translate(408.279375,173.35000000000002)">22.1%</text></g><g class="point"><path d="M0,147.96V119.44H408.17V147.96Z" style="vector-effect: none; opacity: 1; stroke-width: 0.5px; fill: rgb(173, 181, 189); fill-opacity: 1; stroke: rgb(255, 255, 255); stroke-opacity: 1;"/><text class="bartext bartext-outside" text-anchor="middle" data-notex="1" x="0" y="0" style="font-family: Arial, Helvetica, sans-serif; font-size: 11px; fill: rgb(34, 34, 34); fill-opacity: 1; white-space: pre;" transform="translate(426.779375,137.7)">23.2%</text></g><g class="point"><path d="M0,112.31V83.79H442.02V112.31Z" style="vector-effect: none; opacity: 1; stroke-width: 0.5px; fill: rgb(173, 181, 189); fill-opacity: 1; stroke: rgb(255, 255, 255); stroke-opacity: 1;"/><text class="bartext bartext-outside" text-anchor="middle" data-notex="1" x="0" y="0" style="font-family: Arial, Helvetica, sans-serif; font-size: 11px; fill: rgb(34, 34, 34); fill-opacity: 1; white-space: pre;" transform="translate(460.629375,102.05000000000001)">25.1%</text></g><g class="point"><path d="M0,76.66V48.14H519.13V76.66Z" style="vector-effect: none; opacity: 1; stroke-width: 0.5px; fill: rgb(173, 181, 189); fill-opacity: 1; stroke: rgb(255, 255, 255); stroke-opacity: 1;"/><text class="bartext bartext-outside" text-anchor="middle" data-notex="1" x="0" y="0" style="font-family: Arial, Helvetica, sans-serif; font-size: 11px; fill: rgb(34, 34, 34); fill-opacity: 1; white-space: pre;" transform="translate(537.739375,66.4)">29.5%</text></g><g class="point"><path d="M0,41.01V12.49H570.45V41.01Z" style="vector-effect: none; opacity: 1; stroke-width: 0.5px; fill: rgb(173, 181, 189); fill-opacity: 1; stroke: rgb(255, 255, 255); stroke-opacity: 1;"/><text class="bartext bartext-outside" text-anchor="middle" data-notex="1" x="0" y="0" style="font-family: Arial, Helvetica, sans-serif; font-size: 11px; fill: rgb(34, 34, 34); fill-opacity: 1; white-space: pre;" transform="translate(589.059375,30.75)">32.4%</text></g></g></g></g><g class="scatterlayer mlayer"><g class="trace scatter trace0142cd" style="stroke-miterlimit: 2; opacity: 1;"><g class="fills"/><g class="errorbars"/><g class="lines"/><g class="points"><path class="point" transform="translate(395.46,383.25)" d="M5,0A5,5 0 1,1 0,-5A5,5 0 0,1 5,0Z" style="opacity: 1; stroke: rgb(0, 0, 0); stroke-opacity: 1; stroke-width: 1.5px; fill: none;"/><path class="point" transform="translate(373.96,347.6)" d="M5,0A5,5 0 1,1 0,-5A5,5 0 0,1 5,0Z" style="opacity: 1; stroke: rgb(0, 0, 0); stroke-opacity: 1; stroke-width: 1.5px; fill: none;"/><path class="point" transform="translate(472.04,311.95)" d="M5,0A5,5 0 1,1 0,-5A5,5 0 0,1 5,0Z" style="opacity: 1; stroke: rgb(0, 0, 0); stroke-opacity: 1; stroke-width: 1.5px; fill: none;"/><path class="point" transform="translate(416.03,276.3)" d="M5,0A5,5 0 1,1 0,-5A5,5 0 0,1 5,0Z" style="opacity: 1; stroke: rgb(0, 0, 0); stroke-opacity: 1; stroke-width: 1.5px; fill: none;"/><path class="point" transform="translate(370.98,240.65)" d="M5,0A5,5 0 1,1 0,-5A5,5 0 0,1 5,0Z" style="opacity: 1; stroke: rgb(0, 0, 0); stroke-opacity: 1; stroke-width: 1.5px; fill: none;"/><path class="point" transform="translate(390.33,205)" d="M5,0A5,5 0 1,1 0,-5A5,5 0 0,1 5,0Z" style="opacity: 1; stroke: rgb(0, 0, 0); stroke-opacity: 1; stroke-width: 1.5px; fill: none;"/><path class="point" transform="translate(411.33,169.35)" d="M5,0A5,5 0 1,1 0,-5A5,5 0 0,1 5,0Z" style="opacity: 1; stroke: rgb(0, 0, 0); stroke-opacity: 1; stroke-width: 1.5px; fill: none;"/><path class="point" transform="translate(382.71,133.7)" d="M5,0A5,5 0 1,1 0,-5A5,5 0 0,1 5,0Z" style="opacity: 1; stroke: rgb(0, 0, 0); stroke-opacity: 1; stroke-width: 1.5px; fill: none;"/><path class="point" transform="translate(437.28,98.05)" d="M5,0A5,5 0 1,1 0,-5A5,5 0 0,1 5,0Z" style="opacity: 1; stroke: rgb(0, 0, 0); stroke-opacity: 1; stroke-width: 1.5px; fill: none;"/><path class="point" transform="translate(461.39,62.4)" d="M5,0A5,5 0 1,1 0,-5A5,5 0 0,1 5,0Z" style="opacity: 1; stroke: rgb(0, 0, 0); stroke-opacity: 1; stroke-width: 1.5px; fill: none;"/><path class="point" transform="translate(632.15,26.75)" d="M5,0A5,5 0 1,1 0,-5A5,5 0 0,1 5,0Z" style="opacity: 1; stroke: rgb(0, 0, 0); stroke-opacity: 1; stroke-width: 1.5px; fill: none;"/></g><g class="text"/></g></g></g></g><path class="xlines-above crisp" d="M132.2,460.4H805.8M132.2,49.6H805.8" style="fill: none; stroke-width: 0.8px; stroke: rgb(51, 51, 51); stroke-opacity: 1;"/><path class="ylines-above crisp" d="M132.6,50V460M805.4,50V460" style="fill: none; stroke-width: 0.8px; stroke: rgb(51, 51, 51); stroke-opacity: 1;"/><g class="overlines-above"/><g class="xaxislayer-above"><g class="xtick"><text text-anchor="middle" x="0" y="474" transform="translate(133,0)" style="font-family: Arial, Helvetica, sans-serif; font-size: 11px; fill: rgb(34, 34, 34); fill-opacity: 1; white-space: pre; opacity: 1;">0</text></g><g class="xtick"><text text-anchor="middle" x="0" y="474" style="font-family: Arial, Helvetica, sans-serif; font-size: 11px; fill: rgb(34, 34, 34); fill-opacity: 1; white-space: pre; opacity: 1;" transform="translate(221.05,0)">5</text></g><g class="xtick"><text text-anchor="middle" x="0" y="474" style="font-family: Arial, Helvetica, sans-serif; font-size: 11px; fill: rgb(34, 34, 34); fill-opacity: 1; white-space: pre; opacity: 1;" transform="translate(309.1,0)">10</text></g><g class="xtick"><text text-anchor="middle" x="0" y="474" style="font-family: Arial, Helvetica, sans-serif; font-size: 11px; fill: rgb(34, 34, 34); fill-opacity: 1; white-space: pre; opacity: 1;" transform="translate(397.14,0)">15</text></g><g class="xtick"><text text-anchor="middle" x="0" y="474" style="font-family: Arial, Helvetica, sans-serif; font-size: 11px; fill: rgb(34, 34, 34); fill-opacity: 1; white-space: pre; opacity: 1;" transform="translate(485.19,0)">20</text></g><g class="xtick"><text text-anchor="middle" x="0" y="474" style="font-family: Arial, Helvetica, sans-serif; font-size: 11px; fill: rgb(34, 34, 34); fill-opacity: 1; white-space: pre; opacity: 1;" transform="translate(573.24,0)">25</text></g><g class="xtick"><text text-anchor="middle" x="0" y="474" style="font-family: Arial, Helvetica, sans-serif; font-size: 11px; fill: rgb(34, 34, 34); fill-opacity: 1; white-space: pre; opacity: 1;" transform="translate(661.29,0)">30</text></g><g class="xtick"><text text-anchor="middle" x="0" y="474" style="font-family: Arial, Helvetica, sans-serif; font-size: 11px; fill: rgb(34, 34, 34); fill-opacity: 1; white-space: pre; opacity: 1;" transform="translate(749.34,0)">35</text></g></g><g class="yaxislayer-above"><g class="ytick"><text text-anchor="end" x="130" y="3.8499999999999996" transform="translate(0,433.25)" style="font-family: Arial, Helvetica, sans-serif; font-size: 11px; fill: rgb(34, 34, 34); fill-opacity: 1; white-space: pre; opacity: 1;">Singapore</text></g><g class="ytick"><text text-anchor="end" x="130" y="3.8499999999999996" transform="translate(0,397.6)" style="font-family: Arial, Helvetica, sans-serif; font-size: 11px; fill: rgb(34, 34, 34); fill-opacity: 1; white-space: pre; opacity: 1;">Thailand</text></g><g class="ytick"><text text-anchor="end" x="130" y="3.8499999999999996" transform="translate(0,361.95)" style="font-family: Arial, Helvetica, sans-serif; font-size: 11px; fill: rgb(34, 34, 34); fill-opacity: 1; white-space: pre; opacity: 1;">Brunei Darussalam</text></g><g class="ytick"><text text-anchor="end" x="130" y="3.8499999999999996" transform="translate(0,326.3)" style="font-family: Arial, Helvetica, sans-serif; font-size: 11px; fill: rgb(34, 34, 34); fill-opacity: 1; white-space: pre; opacity: 1;">Malaysia</text></g><g class="ytick"><text text-anchor="end" x="130" y="3.8499999999999996" transform="translate(0,290.65)" style="font-family: Arial, Helvetica, sans-serif; font-size: 11px; fill: rgb(34, 34, 34); fill-opacity: 1; white-space: pre; opacity: 1;">Cambodia</text></g><g class="ytick"><text text-anchor="end" x="130" y="3.8499999999999996" transform="translate(0,255)" style="font-family: Arial, Helvetica, sans-serif; font-size: 11px; fill: rgb(34, 34, 34); fill-opacity: 1; white-space: pre; opacity: 1;">Vietnam</text></g><g class="ytick"><text text-anchor="end" x="130" y="3.8499999999999996" transform="translate(0,219.35)" style="font-family: Arial, Helvetica, sans-serif; font-size: 11px; fill: rgb(34, 34, 34); fill-opacity: 1; white-space: pre; opacity: 1;">Timor-Leste</text></g><g class="ytick"><text text-anchor="end" x="130" y="3.8499999999999996" transform="translate(0,183.7)" style="font-family: Arial, Helvetica, sans-serif; font-size: 11px; fill: rgb(34, 34, 34); fill-opacity: 1; white-space: pre; opacity: 1;">Philippines</text></g><g class="ytick"><text text-anchor="end" x="130" y="3.8499999999999996" transform="translate(0,148.05)" style="font-family: Arial, Helvetica, sans-serif; font-size: 11px; fill: rgb(34, 34, 34); fill-opacity: 1; white-space: pre; opacity: 1;">Indonesia</text></g><g class="ytick"><text text-anchor="end" x="130" y="3.8499999999999996" transform="translate(0,112.4)" style="font-family: Arial, Helvetica, sans-serif; font-size: 11px; fill: rgb(34, 34, 34); fill-opacity: 1; white-space: pre; opacity: 1;">Lao PDR</text></g><g class="ytick"><text text-anchor="end" x="130" y="3.8499999999999996" transform="translate(0,76.75)" style="font-family: Arial, Helvetica, sans-serif; font-size: 11px; fill: rgb(34, 34, 34); fill-opacity: 1; white-space: pre; opacity: 1;">Myanmar</text></g></g><g class="overaxes-above"/></g></g><g class="polarlayer"/><g class="smithlayer"/><g class="ternarylayer"/><g class="geolayer"/><g class="funnelarealayer"/><g class="pielayer"/><g class="iciclelayer"/><g class="treemaplayer"/><g class="sunburstlayer"/><g class="glimages"/><defs id="topdefs-c3de8c"><g class="clips"/><clipPath id="legendc3de8c"><rect width="68" height="48" x="1" y="1"/></clipPath></defs><g class="layer-above"><g class="imagelayer"/><g class="shapelayer"/></g><g class="infolayer"><g class="legend" pointer-events="all" transform="translate(818.44,50)"><rect class="bg" shape-rendering="crispEdges" width="69" height="49" x="0.5" y="0.5" style="stroke: rgb(204, 204, 204); stroke-opacity: 1; fill: rgb(255, 255, 255); fill-opacity: 0.9; stroke-width: 1px;"/><g class="scrollbox" transform="" clip-path="url(#legendc3de8c)"><g class="groups"><g class="traces" transform="translate(1,15.5)" style="opacity: 1;"><text class="legendtext" text-anchor="start" x="40" y="3.9" style="font-family: Arial, Helvetica, sans-serif; font-size: 10px; fill: rgb(34, 34, 34); fill-opacity: 1; white-space: pre;">2023</text><g class="layers" style="opacity: 1;"><g class="legendfill"/><g class="legendlines"/><g class="legendsymbols"><g class="legendpoints"><path class="legendundefined" d="M6,6H-6V-6H6Z" transform="translate(20,0)" style="stroke-width: 0.5px; fill: rgb(173, 181, 189); fill-opacity: 1; stroke: rgb(255, 255, 255); stroke-opacity: 1;"/></g></g></g><rect class="legendtoggle" x="0" y="-9.5" width="62.6875" height="19" style="fill: rgb(0, 0, 0); fill-opacity: 0;"/></g><g class="traces" transform="translate(1,34.5)" style="opacity: 1;"><text class="legendtext" text-anchor="start" x="40" y="3.9" style="font-family: Arial, Helvetica, sans-serif; font-size: 10px; fill: rgb(34, 34, 34); fill-opacity: 1; white-space: pre;">1990</text><g class="layers" style="opacity: 1;"><g class="legendfill"/><g class="legendlines"/><g class="legendsymbols"><g class="legendpoints"><path class="scatterpts" transform="translate(20,0)" d="M5,0A5,5 0 1,1 0,-5A5,5 0 0,1 5,0Z" style="opacity: 1; stroke: rgb(0, 0, 0); stroke-opacity: 1; stroke-width: 1.5px; fill: none;"/></g></g></g><rect class="legendtoggle" x="0" y="-9.5" width="62.6875" height="19" style="fill: rgb(0, 0, 0); fill-opacity: 0;"/></g></g></g><rect class="scrollbar" rx="20" ry="3" width="0" height="0" x="0" y="0" style="fill: rgb(128, 139, 164); fill-opacity: 1;"/></g><g class="g-gtitle"/><g class="g-xtitle"><text class="xtitle" x="469" y="499.70000000000005" text-anchor="middle" style="opacity: 1; font-family: Arial, Helvetica, sans-serif; font-size: 13px; fill: rgb(34, 34, 34); fill-opacity: 1; white-space: pre;">30q70 probability of premature NCD mortality (%)</text></g><g class="g-ytitle"/></g></svg>