<svg class="main-svg" xmlns="http://www.w3.org/2000/svg" xmlns:xlink="http://www.w3.org/1999/xlink" width="1200" height="600" style="" viewBox="0 0 1200 600"><rect x="0" y="0" width="1200" height="600" style="fill: rgb(255, 255, 255); fill-opacity: 1;"/><defs id="defs-2e0d36"><g class="clips"><clipPath id="clip2e0d36xyplot" class="plotclip"><rect width="389.84" height="490"/></clipPath><clipPath id="clip2e0d36x2y2plot" class="plotclip"><rect width="389.84" height="490"/></clipPath><clipPath class="axesclip" id="clip2e0d36x"><rect x="60" y="0" width="389.84" height="600"/></clipPath><clipPath class="axesclip" id="clip2e0d36y"><rect x="0" y="50" width="1200" height="490"/></clipPath><clipPath class="axesclip" id="clip2e0d36xy"><rect x="60" y="50" width="389.84" height="490"/></clipPath><clipPath class="axesclip" id="clip2e0d36y2"><rect x="0" y="50" width="1200" height="490"/></clipPath><clipPath class="axesclip" id="clip2e0d36xy2"><rect x="60" y="50" width="389.84" height="490"/></clipPath><clipPath class="axesclip" id="clip2e0d36x2"><rect x="556.1600000000001" y="0" width="389.84" height="600"/></clipPath><clipPath class="axesclip" id="clip2e0d36x2y"><rect x="556.1600000000001" y="50" width="389.84" height="490"/></clipPath><clipPath class="axesclip" id="clip2e0d36x2y2"><rect x="556.1600000000001" y="50" width="389.84" height="490"/></clipPath></g><g class="gradients"/><g class="patterns"/></defs><g class="bglayer"/><g class="layer-below"><g class="imagelayer"/><g class="shapelayer"/></g><g class="cartesianlayer"><g class="subplot xy"><g class="layer-subplot"><g class="shapelayer"/><g class="imagelayer"/></g><g class="minor-gridlayer"><g class="x"/><g class="y"/></g><g class="gridlayer"><g class="x"><path class="xgrid crisp" transform="translate(178.13,0)" d="M0,50v490" style="stroke: rgb(240, 240, 240); stroke-opacity: 1; stroke-width: 1px;"/><path class="xgrid crisp" transform="translate(296.27,0)" d="M0,50v490" style="stroke: rgb(240, 240, 240); stroke-opacity: 1; stroke-width: 1px;"/><path class="xgrid crisp" transform="translate(414.4,0)" d="M0,50v490" style="stroke: rgb(240, 240, 240); stroke-opacity: 1; stroke-width: 1px;"/></g><g class="y"><path class="ygrid crisp" transform="translate(0,442)" d="M60,0h389.84" style="stroke: rgb(240, 240, 240); stroke-opacity: 1; stroke-width: 1px;"/><path class="ygrid crisp" transform="translate(0,344)" d="M60,0h389.84" style="stroke: rgb(240, 240, 240); stroke-opacity: 1; stroke-width: 1px;"/><path class="ygrid crisp" transform="translate(0,246)" d="M60,0h389.84" style="stroke: rgb(240, 240, 240); stroke-opacity: 1; stroke-width: 1px;"/><path class="ygrid crisp" transform="translate(0,148)" d="M60,0h389.84" style="stroke: rgb(240, 240, 240); stroke-opacity: 1; stroke-width: 1px;"/></g></g><g class="zerolinelayer"/><g class="layer-between"><g class="shapelayer"/><g class="imagelayer"/></g><path class="xlines-below"/><path class="ylines-below"/><g class="overlines-below"/><g class="xaxislayer-below"/><g class="yaxislayer-below"/><g class="overaxes-below"/><g class="overplot"><g class="xy" transform="translate(60,50)" clip-path="url(#clip2e0d36xyplot)"><g class="scatterlayer mlayer"><g class="trace scatter trace3ed3ce" style="stroke-miterlimit: 2; opacity: 1;"><g class="fills"/><g class="errorbars"/><g class="lines"><path class="js-line" d="M0,230.33L11.81,228.54L23.63,225.9L82.69,213.91L94.51,208.86L177.2,184.33L189.01,181.84L236.27,170.68L248.08,167.9L283.52,159.75L295.33,157.14L330.77,149.97L342.59,147.74L354.4,146.49L366.21,167.22L378.03,151.94L389.84,143.73" style="vector-effect: none; fill: none; stroke: rgb(230, 57, 70); stroke-opacity: 1; stroke-width: 3px; opacity: 1;"/></g><g class="points"/><g class="text"/></g><g class="trace scatter trace3b618e" style="stroke-miterlimit: 2; opacity: 0.8;"><g class="fills"/><g class="errorbars"/><g class="lines"><path class="js-line" d="M0,189.51L11.81,186.57L23.63,184.44L35.44,184.47L47.25,186.77L59.07,190.03L70.88,194.14L82.69,196.25L94.51,193.86L106.32,190.29L118.13,187.51L141.76,182.77L153.57,180.19L165.39,183.67L177.2,173.58L212.64,166.24L224.45,164.77L236.27,164.15L248.08,164.84L283.52,163.39L295.33,162.16L307.15,161.19L318.96,161.97L330.77,161.09L342.59,158.91L354.4,156.54L366.21,168.47L378.03,162.3L389.84,154.96" style="vector-effect: none; fill: none; stroke: rgb(170, 170, 170); stroke-opacity: 1; stroke-width: 1.2px; opacity: 1;"/></g><g class="points"/><g class="text"/></g><g class="trace scatter trace48df43" style="stroke-miterlimit: 2; opacity: 0.8;"><g class="fills"/><g class="errorbars"/><g class="lines"><path class="js-line" d="M0,260.11L35.44,245.8L47.25,241.1L70.88,232.17L82.69,228.19L141.76,213.37L153.57,209.35L165.39,232.95L177.2,201.85L189.01,199.56L200.83,194.24L212.64,189.44L224.45,185.56L271.71,169.31L283.52,166.27L295.33,162.95L307.15,160.51L330.77,156.41L342.59,152.65L354.4,167.71L366.21,199.08L378.03,157.2L389.84,156.62" style="vector-effect: none; fill: none; stroke: rgb(170, 170, 170); stroke-opacity: 1; stroke-width: 1.2px; opacity: 1;"/></g><g class="points"/><g class="text"/></g><g class="trace scatter trace904b03" style="stroke-miterlimit: 2; opacity: 0.8;"><g class="fills"/><g class="errorbars"/><g class="lines"><path class="js-line" d="M0,220.06L11.81,216.41L23.63,208.72L35.44,204.48L47.25,199.02L70.88,192.94L82.69,189.85L94.51,187.67L106.32,183.85L118.13,183.9L129.95,181.34L141.76,178.22L153.57,176.64L165.39,176.14L177.2,172.7L189.01,173.75L200.83,170.82L236.27,170.82L248.08,171.29L259.89,169.22L271.71,173.74L283.52,165.67L295.33,164.95L307.15,166.12L318.96,165.79L330.77,161.49L342.59,156.04L354.4,161.36L366.21,204.49L378.03,169.7L389.84,160.02" style="vector-effect: none; fill: none; stroke: rgb(170, 170, 170); stroke-opacity: 1; stroke-width: 1.2px; opacity: 1;"/></g><g class="points"/><g class="text"/></g><g class="trace scatter trace1f3ae6" style="stroke-miterlimit: 2; opacity: 0.8;"><g class="fills"/><g class="errorbars"/><g class="lines"><path class="js-line" d="M0,159.76L11.81,158.63L23.63,155.35L35.44,153.9L47.25,151.28L70.88,148.69L82.69,145.88L94.51,142.79L106.32,140.51L129.95,134.74L141.76,132.59L153.57,131.41L165.39,131.24L189.01,131.32L200.83,132.16L259.89,136.3L271.71,136.75L283.52,137.55L295.33,136.62L318.96,135.07L330.77,131.35L354.4,123.5L366.21,176.31L378.03,131.62L389.84,122.29" style="vector-effect: none; fill: none; stroke: rgb(170, 170, 170); stroke-opacity: 1; stroke-width: 1.2px; opacity: 1;"/></g><g class="points"/><g class="text"/></g><g class="trace scatter trace33cc6a" style="stroke-miterlimit: 2; opacity: 0.8;"><g class="fills"/><g class="errorbars"/><g class="lines"><path class="js-line" d="M0,270.81L129.95,232.01L141.76,228.8L165.39,219.9L177.2,215.28L200.83,208.37L212.64,265.06L224.45,201.68L236.27,199.91L259.89,193.25L271.71,186.73L283.52,181.94L295.33,179.89L307.15,175.25L318.96,178.26L330.77,169.02L342.59,166.58L354.4,167.12L366.21,185.52L378.03,171.08L389.84,169.61" style="vector-effect: none; fill: none; stroke: rgb(170, 170, 170); stroke-opacity: 1; stroke-width: 1.2px; opacity: 1;"/></g><g class="points"/><g class="text"/></g><g class="trace scatter trace6388d4" style="stroke-miterlimit: 2; opacity: 0.8;"><g class="fills"/><g class="errorbars"/><g class="lines"><path class="js-line" d="M0,307.32L11.81,306.05L23.63,303.95L35.44,302.97L47.25,303.12L59.07,301.22L70.88,300.24L94.51,295.98L106.32,292.27L118.13,289.92L129.95,283.37L153.57,271.53L165.39,263.9L177.2,255.46L189.01,248.42L212.64,231.67L224.45,225.28L236.27,220.53L248.08,214.58L259.89,207.39L271.71,202.03L307.15,188.54L318.96,185.46L330.77,180.82L342.59,177.41L354.4,174.46L366.21,189.21L378.03,177.07L389.84,177.24" style="vector-effect: none; fill: none; stroke: rgb(170, 170, 170); stroke-opacity: 1; stroke-width: 1.2px; opacity: 1;"/></g><g class="points"/><g class="text"/></g><g class="trace scatter tracedbff96" style="stroke-miterlimit: 2; opacity: 0.8;"><g class="fills"/><g class="errorbars"/><g class="lines"><path class="js-line" d="M0,349.22L47.25,336.55L59.07,331.79L82.69,322.53L94.51,317.29L106.32,311.76L118.13,307.26L153.57,288.33L165.39,282.44L200.83,264.29L212.64,257.73L224.45,251.28L236.27,246.26L295.33,222.16L307.15,217.56L342.59,209.13L354.4,205.36L366.21,207.79L378.03,205.97L389.84,202.62" style="vector-effect: none; fill: none; stroke: rgb(170, 170, 170); stroke-opacity: 1; stroke-width: 1.2px; opacity: 1;"/></g><g class="points"/><g class="text"/></g><g class="trace scatter traced994f9" style="stroke-miterlimit: 2; opacity: 0.8;"><g class="fills"/><g class="errorbars"/><g class="lines"><path class="js-line" d="M0,107.57L59.07,106.85L70.88,103.37L82.69,102.42L94.51,103.06L106.32,101.91L118.13,101.81L129.95,100.04L141.76,102.23L153.57,103.18L165.39,103L177.2,102.92L189.01,100.96L212.64,99.43L224.45,99.87L248.08,99.85L259.89,99.65L271.71,100.54L283.52,99.9L318.96,97L330.77,97.01L354.4,96.12L366.21,102.89L378.03,113.73L389.84,101.51" style="vector-effect: none; fill: none; stroke: rgb(170, 170, 170); stroke-opacity: 1; stroke-width: 1.2px; opacity: 1;"/></g><g class="points"/><g class="text"/></g><g class="trace scatter tracefd25fe" style="stroke-miterlimit: 2; opacity: 0.8;"><g class="fills"/><g class="errorbars"/><g class="lines"><path class="js-line" d="M0,117.03L35.44,112.16L47.25,110.71L70.88,107.99L82.69,106.93L129.95,102.7L141.76,101.44L189.01,97.83L200.83,97.58L248.08,96.13L259.89,95.57L295.33,94.93L307.15,93.73L330.77,92.22L342.59,91.04L354.4,90.79L366.21,95.65L378.03,102.47L389.84,91.81" style="vector-effect: none; fill: none; stroke: rgb(170, 170, 170); stroke-opacity: 1; stroke-width: 1.2px; opacity: 1;"/></g><g class="points"/><g class="text"/></g><g class="trace scatter trace6d3ab9" style="stroke-miterlimit: 2; opacity: 0.8;"><g class="fills"/><g class="errorbars"/><g class="lines"><path class="js-line" d="M0,312.97L11.81,312.85L23.63,307.8L35.44,305.24L47.25,299.74L59.07,297.66L70.88,284.68L82.69,291.56L94.51,288.13L106.32,327.31L118.13,272.4L129.95,268.87L141.76,267.56L153.57,261.02L165.39,261.03L177.2,256.36L189.01,254.46L200.83,249.43L212.64,246.14L224.45,239.31L236.27,235.2L248.08,227.03L259.89,221.38L295.33,214.98L307.15,213.06L330.77,209.74L342.59,207.37L354.4,203.3L366.21,208.89L378.03,201.08L389.84,198.04" style="vector-effect: none; fill: none; stroke: rgb(170, 170, 170); stroke-opacity: 1; stroke-width: 1.2px; opacity: 1;"/></g><g class="points"/><g class="text"/></g></g></g></g><path class="xlines-above crisp" d="M59.2,540.4H450.64M59.2,49.6H450.64" style="fill: none; stroke-width: 0.8px; stroke: rgb(51, 51, 51); stroke-opacity: 1;"/><path class="ylines-above crisp" d="M59.6,50V540M450.23999999999995,50V540" style="fill: none; stroke-width: 0.8px; stroke: rgb(51, 51, 51); stroke-opacity: 1;"/><g class="overlines-above"/><g class="xaxislayer-above"><g class="xtick"><text text-anchor="middle" x="0" y="554" transform="translate(60,0)" style="font-family: Arial, Helvetica, sans-serif; font-size: 11px; fill: rgb(34, 34, 34); fill-opacity: 1; white-space: pre; opacity: 1;">1990</text></g><g class="xtick"><text text-anchor="middle" x="0" y="554" style="font-family: Arial, Helvetica, sans-serif; font-size: 11px; fill: rgb(34, 34, 34); fill-opacity: 1; white-space: pre; opacity: 1;" transform="translate(178.13,0)">2000</text></g><g class="xtick"><text text-anchor="middle" x="0" y="554" style="font-family: Arial, Helvetica, sans-serif; font-size: 11px; fill: rgb(34, 34, 34); fill-opacity: 1; white-space: pre; opacity: 1;" transform="translate(296.27,0)">2010</text></g><g class="xtick"><text text-anchor="middle" x="0" y="554" style="font-family: Arial, Helvetica, sans-serif; font-size: 11px; fill: rgb(34, 34, 34); fill-opacity: 1; white-space: pre; opacity: 1;" transform="translate(414.4,0)">2020</text></g></g><g class="yaxislayer-above"><g class="ytick"><text text-anchor="end" x="57" y="3.8499999999999996" transform="translate(0,540)" style="font-family: Arial, Helvetica, sans-serif; font-size: 11px; fill: rgb(34, 34, 34); fill-opacity: 1; white-space: pre; opacity: 1;">0</text></g><g class="ytick"><text text-anchor="end" x="57" y="3.8499999999999996" style="font-family: Arial, Helvetica, sans-serif; font-size: 11px; fill: rgb(34, 34, 34); fill-opacity: 1; white-space: pre; opacity: 1;" transform="translate(0,442)">20</text></g><g class="ytick"><text text-anchor="end" x="57" y="3.8499999999999996" style="font-family: Arial, Helvetica, sans-serif; font-size: 11px; fill: rgb(34, 34, 34); fill-opacity: 1; white-space: pre; opacity: 1;" transform="translate(0,344)">40</text></g><g class="ytick"><text text-anchor="end" x="57" y="3.8499999999999996" style="font-family: Arial, Helvetica, sans-serif; font-size: 11px; fill: rgb(34, 34, 34); fill-opacity: 1; white-space: pre; opacity: 1;" transform="translate(0,246)">60</text></g><g class="ytick"><text text-anchor="end" x="57" y="3.8499999999999996" style="font-family: Arial, Helvetica, sans-serif; font-size: 11px; fill: rgb(34, 34, 34); fill-opacity: 1; white-space: pre; opacity: 1;" transform="translate(0,148)">80</text></g><g class="ytick"><text text-anchor="end" x="57" y="3.8499999999999996" style="font-family: Arial, Helvetica, sans-serif; font-size: 11px; fill: rgb(34, 34, 34); fill-opacity: 1; white-space: pre; opacity: 1;" transform="translate(0,50)">100</text></g></g><g class="overaxes-above"/></g><g class="subplot x2y2"><g class="layer-subplot"><g class="shapelayer"/><g class="imagelayer"/></g><g class="minor-gridlayer"><g class="x2"/><g class="y2"/></g><g class="gridlayer"><g class="x2"><path class="x2grid crisp" transform="translate(637.7600000000001,0)" d="M0,50v490" style="stroke: rgb(240, 240, 240); stroke-opacity: 1; stroke-width: 1px;"/><path class="x2grid crisp" transform="translate(768.9300000000001,0)" d="M0,50v490" style="stroke: rgb(240, 240, 240); stroke-opacity: 1; stroke-width: 1px;"/><path class="x2grid crisp" transform="translate(900.0900000000001,0)" d="M0,50v490" style="stroke: rgb(240, 240, 240); stroke-opacity: 1; stroke-width: 1px;"/></g><g class="y2"><path class="y2grid crisp" transform="translate(0,442)" d="M556.1600000000001,0h389.84" style="stroke: rgb(240, 240, 240); stroke-opacity: 1; stroke-width: 1px;"/><path class="y2grid crisp" transform="translate(0,344)" d="M556.1600000000001,0h389.84" style="stroke: rgb(240, 240, 240); stroke-opacity: 1; stroke-width: 1px;"/><path class="y2grid crisp" transform="translate(0,246)" d="M556.1600000000001,0h389.84" style="stroke: rgb(240, 240, 240); stroke-opacity: 1; stroke-width: 1px;"/><path class="y2grid crisp" transform="translate(0,148)" d="M556.1600000000001,0h389.84" style="stroke: rgb(240, 240, 240); stroke-opacity: 1; stroke-width: 1px;"/></g></g><g class="zerolinelayer"/><g class="layer-between"><g class="shapelayer"/><g class="imagelayer"/></g><path class="xlines-below"/><path class="ylines-below"/><g class="overlines-below"/><g class="xaxislayer-below"/><g class="yaxislayer-below"/><g class="overaxes-below"/><g class="overplot"><g class="x2y2" transform="translate(556.1600000000001,50)" clip-path="url(#clip2e0d36x2y2plot)"><g class="scatterlayer mlayer"><g class="trace scatter traceb0b091" style="stroke-miterlimit: 2; opacity: 1;"><g class="fills"/><g class="errorbars"/><g class="lines"><path class="js-line" d="M90.89,230.33L114.86,218.35L120.92,215.71L127.58,213.91L134.31,208.86L145.64,201.65L150.5,198.14L166.5,187.18L171.74,184.33L181.22,178.9L185.59,175.93L200.4,165.03L203.85,162.02L226.1,147.74L229.88,146.49L233.45,167.22L237.23,151.94L240.99,143.73" style="vector-effect: none; fill: none; stroke: rgb(230, 57, 70); stroke-opacity: 1; stroke-width: 3px; opacity: 1;"/></g><g class="points"/><g class="text"/></g><g class="trace scatter trace893184" style="stroke-miterlimit: 2; opacity: 1;"><g class="fills"/><g class="errorbars"/><g class="lines"/><g class="points"><path class="point" transform="translate(90.89,230.33)" d="M5,0A5,5 0 1,1 0,-5A5,5 0 0,1 5,0Z" style="opacity: 1; stroke-width: 1px; fill: rgb(230, 57, 70); fill-opacity: 1; stroke: rgb(68, 68, 68); stroke-opacity: 1;"/></g><g class="text"/></g><g class="trace scatter trace34bbe4" style="stroke-miterlimit: 2; opacity: 1;"><g class="fills"/><g class="errorbars"/><g class="lines"/><g class="points"><path class="point" transform="translate(240.99,143.73)" d="M2.52,-3.46H10.65L4.07,1.32L6.59,9.06L0,4.28L-6.59,9.06L-4.07,1.32L-10.65,-3.46H-2.52L0,-11.2Z" style="opacity: 1; stroke-width: 1px; fill: rgb(230, 57, 70); fill-opacity: 1; stroke: rgb(68, 68, 68); stroke-opacity: 1;"/></g><g class="text"/></g><g class="trace scatter trace63332d" style="stroke-miterlimit: 2; opacity: 0.55;"><g class="fills"/><g class="errorbars"/><g class="lines"><path class="js-line" d="M146.78,189.51L152.59,186.57L158.51,184.44L164.42,184.47L170.23,186.77L176.11,190.03L181.76,194.14L186.38,196.25L189.86,193.86L198.42,184.8L200.99,182.77L203.71,180.19L206.54,183.67L209.38,173.58L212.36,171.32L219.18,166.24L223.1,164.77L226.58,164.15L229.12,164.84L239.83,163.39L243.6,162.16L247.45,161.19L251.35,161.97L255.27,161.09L259.02,158.91L262.02,156.54L264.85,168.47L269.95,154.96" style="vector-effect: none; fill: none; stroke: rgb(170, 170, 170); stroke-opacity: 1; stroke-width: 1px; opacity: 1;"/></g><g class="points"/><g class="text"/></g><g class="trace scatter trace165e7b" style="stroke-miterlimit: 2; opacity: 0.55;"><g class="fills"/><g class="errorbars"/><g class="lines"><path class="js-line" d="M121.16,260.11L138.35,245.8L143.83,241.1L163.1,225.14L166.37,222.59L174.76,213.37L177.71,209.35L180.66,232.95L183.67,201.85L186.86,199.56L190.55,194.24L194.87,189.44L199.38,185.56L219.03,169.31L223.59,166.27L231.99,160.51L235.9,158.29L239.66,156.41L243.34,152.65L246.47,167.71L249.55,199.08L252.7,157.2L255.88,156.62" style="vector-effect: none; fill: none; stroke: rgb(170, 170, 170); stroke-opacity: 1; stroke-width: 1px; opacity: 1;"/></g><g class="points"/><g class="text"/></g><g class="trace scatter trace8482c0" style="stroke-miterlimit: 2; opacity: 0.55;"><g class="fills"/><g class="errorbars"/><g class="lines"><path class="js-line" d="M157.66,220.06L160.07,216.41L162.45,208.72L167.59,199.02L170.41,196.33L177.39,187.67L179.08,183.85L180.74,183.9L182.14,181.34L184.56,176.64L185.65,176.14L186.67,172.7L187.84,173.75L189.29,170.82L191.09,170.72L193.11,171.19L195.9,170.82L199.48,171.29L203.97,169.22L208.86,173.74L214.08,165.67L219.53,164.95L225.2,166.12L231.01,165.79L236.74,161.49L242.44,156.04L246.7,161.36L250.72,204.49L254.64,169.7L258.29,160.02" style="vector-effect: none; fill: none; stroke: rgb(170, 170, 170); stroke-opacity: 1; stroke-width: 1px; opacity: 1;"/></g><g class="points"/><g class="text"/></g><g class="trace scatter trace8d43cb" style="stroke-miterlimit: 2; opacity: 0.55;"><g class="fills"/><g class="errorbars"/><g class="lines"><path class="js-line" d="M192.34,159.76L195.98,158.63L200.18,155.35L205.49,153.9L211.32,151.28L223.39,148.69L230.29,145.88L258.73,132.59L262.8,131.41L273.71,131.32L276.82,132.16L292.91,136.3L296.23,136.75L299.45,137.55L302.53,136.62L308.38,135.07L311.59,131.35L317.76,123.5L320.11,176.31L322.33,131.62L324.5,122.29" style="vector-effect: none; fill: none; stroke: rgb(170, 170, 170); stroke-opacity: 1; stroke-width: 1px; opacity: 1;"/></g><g class="points"/><g class="text"/></g><g class="trace scatter traceaa53e8" style="stroke-miterlimit: 2; opacity: 0.55;"><g class="fills"/><g class="errorbars"/><g class="lines"><path class="js-line" d="M32.91,270.81L36.97,264.02L39.55,259.72L49.62,249.17L53.35,246.01L57.11,242.07L61.26,238.83L71.03,232.01L76.43,228.8L101.3,211.49L107.45,208.37L113.04,265.06L118.26,201.68L123.2,199.91L127.69,196.65L131.33,193.25L135.59,186.73L139.76,181.94L143.75,179.89L147.54,175.25L151.3,178.26L155.17,169.02L158.99,166.58L162.23,167.12L164.26,185.52L166.25,171.08L168.18,169.61" style="vector-effect: none; fill: none; stroke: rgb(170, 170, 170); stroke-opacity: 1; stroke-width: 1px; opacity: 1;"/></g><g class="points"/><g class="text"/></g><g class="trace scatter trace530de7" style="stroke-miterlimit: 2; opacity: 0.55;"><g class="fills"/><g class="errorbars"/><g class="lines"><path class="js-line" d="M14.64,307.32L23.46,302.97L26.31,303.12L29.62,301.22L32.87,300.24L38.89,295.98L42.36,292.27L46.21,289.92L50.38,283.37L92.87,225.28L97.37,220.53L101.73,214.58L106.05,207.39L114.22,197.69L118.23,193.16L122.2,188.54L126.16,185.46L130.17,180.82L134.2,177.41L137.47,174.46L140.64,189.21L143.88,177.07L147.15,177.24" style="vector-effect: none; fill: none; stroke: rgb(170, 170, 170); stroke-opacity: 1; stroke-width: 1px; opacity: 1;"/></g><g class="points"/><g class="text"/></g><g class="trace scatter tracec9c613" style="stroke-miterlimit: 2; opacity: 0.55;"><g class="fills"/><g class="errorbars"/><g class="lines"><path class="js-line" d="M2.25,349.22L17.73,331.79L21.38,327.52L34.54,311.76L39.91,307.26L52.4,294.42L58.88,288.33L84.53,264.29L90.74,257.73L102.43,246.26L107.84,241.32L122.75,226.97L127.3,222.16L131.7,217.56L135.96,214.79L143.88,209.13L147.39,205.36L150.73,207.79L153.93,205.97L157.02,202.62" style="vector-effect: none; fill: none; stroke: rgb(170, 170, 170); stroke-opacity: 1; stroke-width: 1px; opacity: 1;"/></g><g class="points"/><g class="text"/></g><g class="trace scatter trace9fc861" style="stroke-miterlimit: 2; opacity: 0.55;"><g class="fills"/><g class="errorbars"/><g class="lines"><path class="js-line" d="M276.75,107.57L305.25,106.85L311.13,103.37L316.74,102.42L321.5,103.06L324.81,101.91L329.25,101.81L333.8,100.04L337.46,102.23L340.58,103.18L344.24,103L348.6,102.92L353.2,100.96L362.97,99.43L366.52,99.87L371.24,99.85L373.55,99.65L375.78,100.54L377.59,99.9L385.27,96.29L386.5,96.12L387.68,102.89L388.74,113.73L389.84,101.51" style="vector-effect: none; fill: none; stroke: rgb(170, 170, 170); stroke-opacity: 1; stroke-width: 1px; opacity: 1;"/></g><g class="points"/><g class="text"/></g><g class="trace scatter trace307bce" style="stroke-miterlimit: 2; opacity: 0.55;"><g class="fills"/><g class="errorbars"/><g class="lines"><path class="js-line" d="M263.31,117.03L274.46,112.16L278.14,110.71L285.54,107.99L289.28,106.93L326.3,97.83L329.43,97.58L339.94,96.13L342.46,95.57L350.11,94.93L352.46,93.73L356.58,92.22L358.38,91.04L360.13,90.79L361.84,95.65L363.53,102.47L365.16,91.81" style="vector-effect: none; fill: none; stroke: rgb(170, 170, 170); stroke-opacity: 1; stroke-width: 1px; opacity: 1;"/></g><g class="points"/><g class="text"/></g><g class="trace scatter tracebe685c" style="stroke-miterlimit: 2; opacity: 0.55;"><g class="fills"/><g class="errorbars"/><g class="lines"><path class="js-line" d="M0,312.97L5.42,312.85L11.23,307.8L17.35,305.24L23.57,299.74L29.59,297.66L35.69,284.68L41.41,291.56L46.43,288.13L48.75,327.31L51.39,272.4L54.98,268.87L58.03,267.56L60.89,261.02L63.67,261.03L66.47,256.36L68.91,254.46L71.96,249.43L75.78,246.14L80.4,239.31L85.18,235.2L90.05,227.03L94.84,221.38L116.27,209.74L120.05,207.37L124.8,203.3L132.05,208.89L137.04,198.04" style="vector-effect: none; fill: none; stroke: rgb(170, 170, 170); stroke-opacity: 1; stroke-width: 1px; opacity: 1;"/></g><g class="points"/><g class="text"/></g><g class="trace scatter trace307886" style="stroke-miterlimit: 2; opacity: 1;"><g class="fills"/><g class="errorbars"/><g class="lines"><path class="js-line" d="M0,320.03L35.44,288.68L39.38,285.33L74.82,256.37L78.76,253.28L110.26,229.54L114.2,226.7L145.7,204.86L149.64,202.25L181.14,182.32L185.08,179.94L216.58,161.91L220.52,159.78L252.02,143.65L255.96,141.75L287.46,127.53L291.4,125.87L322.9,113.55L326.84,112.13L354.4,102.92L358.34,101.71L385.9,93.98L389.84,92.98" style="vector-effect: none; fill: none; stroke: rgb(0, 0, 0); stroke-opacity: 1; stroke-dasharray: 9px, 9px; stroke-width: 1.5px; opacity: 1;"/></g><g class="points"/><g class="text"/></g></g></g></g><path class="xlines-above crisp" d="M555.3600000000001,540.4H946.8M555.3600000000001,49.6H946.8" style="fill: none; stroke-width: 0.8px; stroke: rgb(51, 51, 51); stroke-opacity: 1;"/><path class="ylines-above crisp" d="M555.7600000000001,50V540M946.4,50V540" style="fill: none; stroke-width: 0.8px; stroke: rgb(51, 51, 51); stroke-opacity: 1;"/><g class="overlines-above"/><g class="xaxislayer-above"><g class="x2tick"><text text-anchor="middle" x="0" y="554" transform="translate(637.7600000000001,0)" style="font-family: Arial, Helvetica, sans-serif; font-size: 11px; fill: rgb(34, 34, 34); fill-opacity: 1; white-space: pre; opacity: 1;">0.4</text></g><g class="x2tick"><text text-anchor="middle" x="0" y="554" style="font-family: Arial, Helvetica, sans-serif; font-size: 11px; fill: rgb(34, 34, 34); fill-opacity: 1; white-space: pre; opacity: 1;" transform="translate(768.9300000000001,0)">0.6</text></g><g class="x2tick"><text text-anchor="middle" x="0" y="554" style="font-family: Arial, Helvetica, sans-serif; font-size: 11px; fill: rgb(34, 34, 34); fill-opacity: 1; white-space: pre; opacity: 1;" transform="translate(900.0900000000001,0)">0.8</text></g></g><g class="yaxislayer-above"><g class="y2tick"><text text-anchor="end" x="553.1600000000001" y="3.8499999999999996" transform="translate(0,540)" style="font-family: Arial, Helvetica, sans-serif; font-size: 11px; fill: rgb(34, 34, 34); fill-opacity: 1; white-space: pre; opacity: 1;">0</text></g><g class="y2tick"><text text-anchor="end" x="553.1600000000001" y="3.8499999999999996" style="font-family: Arial, Helvetica, sans-serif; font-size: 11px; fill: rgb(34, 34, 34); fill-opacity: 1; white-space: pre; opacity: 1;" transform="translate(0,442)">20</text></g><g class="y2tick"><text text-anchor="end" x="553.1600000000001" y="3.8499999999999996" style="font-family: Arial, Helvetica, sans-serif; font-size: 11px; fill: rgb(34, 34, 34); fill-opacity: 1; white-space: pre; opacity: 1;" transform="translate(0,344)">40</text></g><g class="y2tick"><text text-anchor="end" x="553.1600000000001" y="3.8499999999999996" style="font-family: Arial, Helvetica, sans-serif; font-size: 11px; fill: rgb(34, 34, 34); fill-opacity: 1; white-space: pre; opacity: 1;" transform="translate(0,246)">60</text></g><g class="y2tick"><text text-anchor="end" x="553.1600000000001" y="3.8499999999999996" style="font-family: Arial, Helvetica, sans-serif; font-size: 11px; fill: rgb(34, 34, 34); fill-opacity: 1; white-space: pre; opacity: 1;" transform="translate(0,148)">80</text></g><g class="y2tick"><text text-anchor="end" x="553.1600000000001" y="3.8499999999999996" style="font-family: Arial, Helvetica, sans-serif; font-size: 11px; fill: rgb(34, 34, 34); fill-opacity: 1; white-space: pre; opacity: 1;" transform="translate(0,50)">100</text></g></g><g class="overaxes-above"/></g></g><g class="polarlayer"/><g class="smithlayer"/><g class="ternarylayer"/><g class="geolayer"/><g class="funnelarealayer"/><g class="pielayer"/><g class="iciclelayer"/><g class="treemaplayer"/><g class="sunburstlayer"/><g class="glimages"/><defs id="topdefs-2e0d36"><g class="clips"/><clipPath id="legend2e0d36"><rect width="222" height="258" x="1" y="1"/></clipPath></defs><g class="layer-above"><g class="imagelayer"/><g class="shapelayer"><g class="shape-group" data-index="0" clip-path="url(#clip2e0d36y)"><path data-index="0" fill-rule="evenodd" d="M60,295L449.84,295" style="opacity: 1; stroke: rgb(0, 0, 0); stroke-opacity: 1; fill: rgb(0, 0, 0); fill-opacity: 0; stroke-dasharray: 3px, 3px; stroke-width: 1px;"/></g></g></g><g class="infolayer"><g class="legend" pointer-events="all" transform="translate(963.72,50)"><rect class="bg" shape-rendering="crispEdges" width="223" height="259" x="0.5" y="0.5" style="stroke: rgb(204, 204, 204); stroke-opacity: 1; fill: rgb(255, 255, 255); fill-opacity: 0.9; stroke-width: 1px;"/><g class="scrollbox" transform="" clip-path="url(#legend2e0d36)"><g class="groups" transform=""><g class="traces" transform="translate(1,15.5)" style="opacity: 1;"><text class="legendtext" text-anchor="start" x="40" y="3.9" style="font-family: Arial, Helvetica, sans-serif; font-size: 10px; fill: rgb(34, 34, 34); fill-opacity: 1; white-space: pre;">Vietnam</text><g class="layers" style="opacity: 1;"><g class="legendfill"/><g class="legendlines"><path class="js-line" d="M5,0h30" style="fill: none; stroke: rgb(230, 57, 70); stroke-opacity: 1; stroke-width: 3px;"/></g><g class="legendsymbols"><g class="legendpoints"/></g></g><rect class="legendtoggle" x="0" y="-9.5" width="216.890625" height="19" style="fill: rgb(0, 0, 0); fill-opacity: 0;"/></g></g><g class="groups" transform="translate(0,10)"><g class="traces" transform="translate(1,34.5)" style="opacity: 1;"><text class="legendtext" text-anchor="start" x="40" y="3.9" style="font-family: Arial, Helvetica, sans-serif; font-size: 10px; fill: rgb(34, 34, 34); fill-opacity: 1; white-space: pre;">Thailand</text><g class="layers" style="opacity: 0.8;"><g class="legendfill"/><g class="legendlines"><path class="js-line" d="M5,0h30" style="fill: none; stroke: rgb(170, 170, 170); stroke-opacity: 1; stroke-width: 1.2px;"/></g><g class="legendsymbols"><g class="legendpoints"/></g></g><rect class="legendtoggle" x="0" y="-9.5" width="216.890625" height="19" style="fill: rgb(0, 0, 0); fill-opacity: 0;"/></g><g class="traces" transform="translate(1,53.5)" style="opacity: 1;"><text class="legendtext" text-anchor="start" x="40" y="3.9" style="font-family: Arial, Helvetica, sans-serif; font-size: 10px; fill: rgb(34, 34, 34); fill-opacity: 1; white-space: pre;">Indonesia</text><g class="layers" style="opacity: 0.8;"><g class="legendfill"/><g class="legendlines"><path class="js-line" d="M5,0h30" style="fill: none; stroke: rgb(170, 170, 170); stroke-opacity: 1; stroke-width: 1.2px;"/></g><g class="legendsymbols"><g class="legendpoints"/></g></g><rect class="legendtoggle" x="0" y="-9.5" width="216.890625" height="19" style="fill: rgb(0, 0, 0); fill-opacity: 0;"/></g><g class="traces" transform="translate(1,72.5)" style="opacity: 1;"><text class="legendtext" text-anchor="start" x="40" y="3.9" style="font-family: Arial, Helvetica, sans-serif; font-size: 10px; fill: rgb(34, 34, 34); fill-opacity: 1; white-space: pre;">Philippines</text><g class="layers" style="opacity: 0.8;"><g class="legendfill"/><g class="legendlines"><path class="js-line" d="M5,0h30" style="fill: none; stroke: rgb(170, 170, 170); stroke-opacity: 1; stroke-width: 1.2px;"/></g><g class="legendsymbols"><g class="legendpoints"/></g></g><rect class="legendtoggle" x="0" y="-9.5" width="216.890625" height="19" style="fill: rgb(0, 0, 0); fill-opacity: 0;"/></g><g class="traces" transform="translate(1,91.5)" style="opacity: 1;"><text class="legendtext" text-anchor="start" x="40" y="3.9" style="font-family: Arial, Helvetica, sans-serif; font-size: 10px; fill: rgb(34, 34, 34); fill-opacity: 1; white-space: pre;">Malaysia</text><g class="layers" style="opacity: 0.8;"><g class="legendfill"/><g class="legendlines"><path class="js-line" d="M5,0h30" style="fill: none; stroke: rgb(170, 170, 170); stroke-opacity: 1; stroke-width: 1.2px;"/></g><g class="legendsymbols"><g class="legendpoints"/></g></g><rect class="legendtoggle" x="0" y="-9.5" width="216.890625" height="19" style="fill: rgb(0, 0, 0); fill-opacity: 0;"/></g><g class="traces" transform="translate(1,110.5)" style="opacity: 1;"><text class="legendtext" text-anchor="start" x="40" y="3.9" style="font-family: Arial, Helvetica, sans-serif; font-size: 10px; fill: rgb(34, 34, 34); fill-opacity: 1; white-space: pre;">Myanmar</text><g class="layers" style="opacity: 0.8;"><g class="legendfill"/><g class="legendlines"><path class="js-line" d="M5,0h30" style="fill: none; stroke: rgb(170, 170, 170); stroke-opacity: 1; stroke-width: 1.2px;"/></g><g class="legendsymbols"><g class="legendpoints"/></g></g><rect class="legendtoggle" x="0" y="-9.5" width="216.890625" height="19" style="fill: rgb(0, 0, 0); fill-opacity: 0;"/></g><g class="traces" transform="translate(1,129.5)" style="opacity: 1;"><text class="legendtext" text-anchor="start" x="40" y="3.9" style="font-family: Arial, Helvetica, sans-serif; font-size: 10px; fill: rgb(34, 34, 34); fill-opacity: 1; white-space: pre;">Cambodia</text><g class="layers" style="opacity: 0.8;"><g class="legendfill"/><g class="legendlines"><path class="js-line" d="M5,0h30" style="fill: none; stroke: rgb(170, 170, 170); stroke-opacity: 1; stroke-width: 1.2px;"/></g><g class="legendsymbols"><g class="legendpoints"/></g></g><rect class="legendtoggle" x="0" y="-9.5" width="216.890625" height="19" style="fill: rgb(0, 0, 0); fill-opacity: 0;"/></g><g class="traces" transform="translate(1,148.5)" style="opacity: 1;"><text class="legendtext" text-anchor="start" x="40" y="3.9" style="font-family: Arial, Helvetica, sans-serif; font-size: 10px; fill: rgb(34, 34, 34); fill-opacity: 1; white-space: pre;">Lao PDR</text><g class="layers" style="opacity: 0.8;"><g class="legendfill"/><g class="legendlines"><path class="js-line" d="M5,0h30" style="fill: none; stroke: rgb(170, 170, 170); stroke-opacity: 1; stroke-width: 1.2px;"/></g><g class="legendsymbols"><g class="legendpoints"/></g></g><rect class="legendtoggle" x="0" y="-9.5" width="216.890625" height="19" style="fill: rgb(0, 0, 0); fill-opacity: 0;"/></g><g class="traces" transform="translate(1,167.5)" style="opacity: 1;"><text class="legendtext" text-anchor="start" x="40" y="3.9" style="font-family: Arial, Helvetica, sans-serif; font-size: 10px; fill: rgb(34, 34, 34); fill-opacity: 1; white-space: pre;">Singapore</text><g class="layers" style="opacity: 0.8;"><g class="legendfill"/><g class="legendlines"><path class="js-line" d="M5,0h30" style="fill: none; stroke: rgb(170, 170, 170); stroke-opacity: 1; stroke-width: 1.2px;"/></g><g class="legendsymbols"><g class="legendpoints"/></g></g><rect class="legendtoggle" x="0" y="-9.5" width="216.890625" height="19" style="fill: rgb(0, 0, 0); fill-opacity: 0;"/></g><g class="traces" transform="translate(1,186.5)" style="opacity: 1;"><text class="legendtext" text-anchor="start" x="40" y="3.9" style="font-family: Arial, Helvetica, sans-serif; font-size: 10px; fill: rgb(34, 34, 34); fill-opacity: 1; white-space: pre;">Brunei Darussalam</text><g class="layers" style="opacity: 0.8;"><g class="legendfill"/><g class="legendlines"><path class="js-line" d="M5,0h30" style="fill: none; stroke: rgb(170, 170, 170); stroke-opacity: 1; stroke-width: 1.2px;"/></g><g class="legendsymbols"><g class="legendpoints"/></g></g><rect class="legendtoggle" x="0" y="-9.5" width="216.890625" height="19" style="fill: rgb(0, 0, 0); fill-opacity: 0;"/></g><g class="traces" transform="translate(1,205.5)" style="opacity: 1;"><text class="legendtext" text-anchor="start" x="40" y="3.9" style="font-family: Arial, Helvetica, sans-serif; font-size: 10px; fill: rgb(34, 34, 34); fill-opacity: 1; white-space: pre;">Timor-Leste</text><g class="layers" style="opacity: 0.8;"><g class="legendfill"/><g class="legendlines"><path class="js-line" d="M5,0h30" style="fill: none; stroke: rgb(170, 170, 170); stroke-opacity: 1; stroke-width: 1.2px;"/></g><g class="legendsymbols"><g class="legendpoints"/></g></g><rect class="legendtoggle" x="0" y="-9.5" width="216.890625" height="19" style="fill: rgb(0, 0, 0); fill-opacity: 0;"/></g></g><g class="groups" transform="translate(0,20)"><g class="traces" transform="translate(1,224.5)" style="opacity: 1;"><text class="legendtext" text-anchor="start" x="40" y="3.9" style="font-family: Arial, Helvetica, sans-serif; font-size: 10px; fill: rgb(34, 34, 34); fill-opacity: 1; white-space: pre;">SEA expected (quadratic, VN excluded)</text><g class="layers" style="opacity: 1;"><g class="legendfill"/><g class="legendlines"><path class="js-line" d="M5,0h30" style="fill: none; stroke: rgb(0, 0, 0); stroke-opacity: 1; stroke-dasharray: 9px, 9px; stroke-width: 1.5px;"/></g><g class="legendsymbols"><g class="legendpoints"/></g></g><rect class="legendtoggle" x="0" y="-9.5" width="216.890625" height="19" style="fill: rgb(0, 0, 0); fill-opacity: 0;"/></g></g></g><rect class="scrollbar" rx="20" ry="3" width="0" height="0" x="0" y="0" style="fill: rgb(128, 139, 164); fill-opacity: 1;"/></g><g class="g-gtitle"/><g class="g-xtitle"><text class="xtitle" x="254.92" y="579.7" text-anchor="middle" style="opacity: 1; font-family: Arial, Helvetica, sans-serif; font-size: 13px; fill: rgb(34, 34, 34); fill-opacity: 1; white-space: pre;">Year</text></g><g class="g-x2title"><text class="x2title" x="751.08" y="579.7" text-anchor="middle" style="opacity: 1; font-family: Arial, Helvetica, sans-serif; font-size: 13px; fill: rgb(34, 34, 34); fill-opacity: 1; white-space: pre;">Socio-Demographic Index (SDI)</text></g><g class="g-ytitle"><text class="ytitle" transform="rotate(-90,19.490625,295)" x="19.490625" y="295" text-anchor="middle" style="opacity: 1; font-family: Arial, Helvetica, sans-serif; font-size: 13px; fill: rgb(34, 34, 34); fill-opacity: 1; white-space: pre;">NCD share of total DALYs (%)</text></g><g class="g-y2title"><text class="y2title" transform="rotate(-90,515.646875,295)" x="515.646875" y="295" text-anchor="middle" style="opacity: 1; font-family: Arial, Helvetica, sans-serif; font-size: 13px; fill: rgb(34, 34, 34); fill-opacity: 1; white-space: pre;">NCD share of total DALYs (%)</text></g><g class="annotation" data-index="0" style="opacity: 1;"><g class="annotation-text-g" transform="rotate(0,254.92,39.5)"><g class="cursor-pointer" transform="translate(247,29)"><rect class="bg" x="0.5" y="0.5" width="15" height="20" style="stroke-width: 1px; stroke: rgb(0, 0, 0); stroke-opacity: 0; fill: rgb(0, 0, 0); fill-opacity: 0;"/><text class="annotation-text" text-anchor="middle" x="8.34375" y="16" style="font-family: Arial, Helvetica, sans-serif; font-size: 16px; fill: rgb(34, 34, 34); fill-opacity: 1; white-space: pre;">A</text></g></g></g><g class="annotation" data-index="1" style="opacity: 1;"><g class="annotation-text-g" transform="rotate(0,751.08,39.5)"><g class="cursor-pointer" transform="translate(744,29)"><rect class="bg" x="0.5" y="0.5" width="14" height="20" style="stroke-width: 1px; stroke: rgb(0, 0, 0); stroke-opacity: 0; fill: rgb(0, 0, 0); fill-opacity: 0;"/><text class="annotation-text" text-anchor="middle" x="7.34375" y="16" style="font-family: Arial, Helvetica, sans-serif; font-size: 16px; fill: rgb(34, 34, 34); fill-opacity: 1; white-space: pre;">B</text></g></g></g><g class="annotation" data-index="2" style="opacity: 1;"><g class="annotation-text-g" transform="rotate(0,411.84,303)"><g class="cursor-pointer" transform="translate(374,295)"><rect class="bg" x="0.5" y="0.5" width="75" height="15" style="stroke-width: 1px; stroke: rgb(0, 0, 0); stroke-opacity: 0; fill: rgb(0, 0, 0); fill-opacity: 0;"/><text class="annotation-text" text-anchor="middle" x="37.78125" y="12" style="font-family: Arial, Helvetica, sans-serif; font-size: 11px; fill: rgb(34, 34, 34); fill-opacity: 1; white-space: pre;">50% reference</text></g></g></g><g class="annotation" data-index="3" style="opacity: 1;"><g class="annotation-text-g" transform="rotate(0,797.7130281200001,274.397309546407)"><g class="cursor-pointer" transform="translate(743,261)"><rect class="bg" x="0.5" y="0.5" width="108" height="25" style="stroke-width: 1px; stroke: rgb(230, 57, 70); stroke-opacity: 1; fill: rgb(255, 255, 255); fill-opacity: 0.9;"/><text class="annotation-text" text-anchor="middle" x="54.53125" y="10" style="font-family: Arial, Helvetica, sans-serif; font-size: 9px; fill: rgb(230, 57, 70); fill-opacity: 1; white-space: pre;"><tspan class="line" dy="0em" x="54.53125" y="10">VN 2023 obs/exp = 1.016</tspan><tspan class="line" dy="1.3em" x="54.53125" y="10">(obs 70.7% vs exp 69.6%)</tspan></text></g></g><g class="annotation-arrow-g" style="opacity: 1;"><path d="M797.6257827223344,261.897309546407L797.1500000000001,193.73" style="stroke-width: 1px; stroke: rgb(230, 57, 70); stroke-opacity: 1; stroke-dasharray: 0px, 0px, 66.869px, 68.169px;"/><path d="M-3.7,-2.5V2.5L1.3,0Z" transform="translate(797.1591186523438,195.02996826171875)rotate(-90.3847056941207)" style="fill: rgb(230, 57, 70); stroke-width: 0;"/></g></g></g></svg>