<svg class="main-svg" xmlns="http://www.w3.org/2000/svg" xmlns:xlink="http://www.w3.org/1999/xlink" width="1100" height="520" style="" viewBox="0 0 1100 520"><rect x="0" y="0" width="1100" height="520" style="fill: rgb(255, 255, 255); fill-opacity: 1;"/><defs id="defs-08ccee"><g class="clips"><clipPath id="clip08cceexyplot" class="plotclip"><rect width="408.9" height="410"/></clipPath><clipPath id="clip08cceex2y2plot" class="plotclip"><rect width="408.90000000000003" height="410"/></clipPath><clipPath class="axesclip" id="clip08cceex"><rect x="60" y="0" width="408.9" height="520"/></clipPath><clipPath class="axesclip" id="clip08cceey"><rect x="0" y="50" width="1100" height="410"/></clipPath><clipPath class="axesclip" id="clip08cceexy"><rect x="60" y="50" width="408.9" height="410"/></clipPath><clipPath class="axesclip" id="clip08cceey2"><rect x="0" y="50" width="1100" height="410"/></clipPath><clipPath class="axesclip" id="clip08cceexy2"><rect x="60" y="50" width="408.9" height="410"/></clipPath><clipPath class="axesclip" id="clip08cceex2"><rect x="591.0999999999999" y="0" width="408.90000000000003" height="520"/></clipPath><clipPath class="axesclip" id="clip08cceex2y"><rect x="591.0999999999999" y="50" width="408.90000000000003" height="410"/></clipPath><clipPath class="axesclip" id="clip08cceex2y2"><rect x="591.0999999999999" y="50" width="408.90000000000003" height="410"/></clipPath></g><g class="gradients"><linearGradient x1="0" y1="1" x2="0" y2="0" gradientUnits="objectBoundingBox" id="g08ccee-cbc88e50"><stop offset="0%" stop-color="rgb(5, 48, 97)" stop-opacity="1"/><stop offset="10%" stop-color="rgb(33, 102, 172)" stop-opacity="1"/><stop offset="20%" stop-color="rgb(67, 147, 195)" stop-opacity="1"/><stop offset="30%" stop-color="rgb(146, 197, 222)" stop-opacity="1"/><stop offset="40%" stop-color="rgb(209, 229, 240)" stop-opacity="1"/><stop offset="50%" stop-color="rgb(247, 247, 247)" stop-opacity="1"/><stop offset="60%" stop-color="rgb(253, 219, 199)" stop-opacity="1"/><stop offset="70%" stop-color="rgb(244, 165, 130)" stop-opacity="1"/><stop offset="80%" stop-color="rgb(214, 96, 77)" stop-opacity="1"/><stop offset="90%" stop-color="rgb(178, 24, 43)" stop-opacity="1"/><stop offset="100%" stop-color="rgb(103, 0, 31)" stop-opacity="1"/></linearGradient></g><g class="patterns"/></defs><g class="bglayer"/><g class="layer-below"><g class="imagelayer"/><g class="shapelayer"/></g><g class="cartesianlayer"><g class="subplot xy"><g class="layer-subplot"><g class="shapelayer"/><g class="imagelayer"/></g><g class="minor-gridlayer"><g class="x"/><g class="y"/></g><g class="gridlayer"><g class="x"><path class="xgrid crisp" transform="translate(83.57,0)" d="M0,50v410" style="stroke: rgb(240, 240, 240); stroke-opacity: 1; stroke-width: 1px;"/><path class="xgrid crisp" transform="translate(193.19,0)" d="M0,50v410" style="stroke: rgb(240, 240, 240); stroke-opacity: 1; stroke-width: 1px;"/><path class="xgrid crisp" transform="translate(302.82,0)" d="M0,50v410" style="stroke: rgb(240, 240, 240); stroke-opacity: 1; stroke-width: 1px;"/><path class="xgrid crisp" transform="translate(412.44,0)" d="M0,50v410" style="stroke: rgb(240, 240, 240); stroke-opacity: 1; stroke-width: 1px;"/></g><g class="y"><path class="ygrid crisp" transform="translate(0,396.39)" d="M60,0h408.9" style="stroke: rgb(240, 240, 240); stroke-opacity: 1; stroke-width: 1px;"/><path class="ygrid crisp" transform="translate(0,318.76)" d="M60,0h408.9" style="stroke: rgb(240, 240, 240); stroke-opacity: 1; stroke-width: 1px;"/><path class="ygrid crisp" transform="translate(0,241.14)" d="M60,0h408.9" style="stroke: rgb(240, 240, 240); stroke-opacity: 1; stroke-width: 1px;"/><path class="ygrid crisp" transform="translate(0,163.51)" d="M60,0h408.9" style="stroke: rgb(240, 240, 240); stroke-opacity: 1; stroke-width: 1px;"/><path class="ygrid crisp" transform="translate(0,85.88)" d="M60,0h408.9" style="stroke: rgb(240, 240, 240); stroke-opacity: 1; stroke-width: 1px;"/></g></g><g class="zerolinelayer"/><g class="layer-between"><g class="shapelayer"/><g class="imagelayer"/></g><path class="xlines-below"/><path class="ylines-below"/><g class="overlines-below"/><g class="xaxislayer-below"/><g class="yaxislayer-below"/><g class="overaxes-below"/><g class="overplot"><g class="xy" transform="translate(60,50)" clip-path="url(#clip08cceexyplot)"><g class="scatterlayer mlayer"><g class="trace scatter trace6727d1" style="stroke-miterlimit: 2; opacity: 1;"><g class="fills"><g><path class="js-fill" d="M23.57,20.5L34.53,25.12L45.49,34.5L56.46,45.21L67.42,54.57L78.38,64.11L89.34,76.16L100.31,85.17L111.27,98.64L122.23,113.06L133.19,119.46L144.16,126.76L155.12,132.98L166.08,139.43L177.04,144.86L198.97,153.89L209.93,157.14L231.86,165.01L242.82,169.68L253.78,173.76L264.74,180.09L297.63,193.05L308.59,195.42L319.56,201.35L330.52,205.02L352.44,211.19L363.41,196L374.37,206.8L385.33,206.67L385.33,244.21L374.37,236.58L363.41,220.27L352.44,232L341.48,227.88L330.52,225.58L297.63,212.93L286.67,209.91L253.78,197L242.82,189.95L231.86,185.93L220.89,183.38L209.93,179.05L198.97,175.8L155.12,155.59L144.16,147.97L133.19,140.28L122.23,128.35L111.27,119.6L100.31,109.23L89.34,103.42L78.38,93.06L67.42,80.97L56.46,71.4L45.49,61.98L34.53,50.73L23.57,41.71Z" style="fill: rgb(106, 76, 147); fill-opacity: 0.15; stroke-width: 0;"/></g></g><g class="errorbars"/><g class="lines"><path class="js-line" d="M23.57,20.5L34.53,25.12L45.49,34.5L56.46,45.21L67.42,54.57L78.38,64.11L89.34,76.16L100.31,85.17L111.27,98.64L122.23,113.06L133.19,119.46L144.16,126.76L155.12,132.98L166.08,139.43L177.04,144.86L198.97,153.89L209.93,157.14L231.86,165.01L242.82,169.68L253.78,173.76L264.74,180.09L297.63,193.05L308.59,195.42L319.56,201.35L330.52,205.02L352.44,211.19L363.41,196L374.37,206.8L385.33,206.67L385.33,244.21L374.37,236.58L363.41,220.27L352.44,232L341.48,227.88L330.52,225.58L297.63,212.93L286.67,209.91L253.78,197L242.82,189.95L231.86,185.93L220.89,183.38L209.93,179.05L198.97,175.8L155.12,155.59L144.16,147.97L133.19,140.28L122.23,128.35L111.27,119.6L100.31,109.23L89.34,103.42L78.38,93.06L67.42,80.97L56.46,71.4L45.49,61.98L34.53,50.73L23.57,41.71" style="vector-effect: none; fill: none; stroke: rgb(0, 0, 0); stroke-opacity: 0; stroke-width: 2px; opacity: 1;"/></g><g class="points"/><g class="text"/></g><g class="trace scatter trace189eb2" style="stroke-miterlimit: 2; opacity: 1;"><g class="fills"/><g class="errorbars"/><g class="lines"><path class="js-line" d="M23.57,31.16L34.53,38.62L45.49,48.11L67.42,68.36L78.38,78.98L89.34,89.09L100.31,96.98L111.27,109.76L122.23,120.94L133.19,130.53L144.16,137.81L177.04,155.64L188.01,160.39L220.89,172.81L231.86,176.23L242.82,180.47L253.78,186.11L297.63,203.23L308.59,207.11L319.56,211.89L330.52,215.23L352.44,221.77L363.41,208.5L374.37,220.97L385.33,227.04" style="vector-effect: none; fill: none; stroke: rgb(106, 76, 147); stroke-opacity: 1; stroke-width: 2.5px; opacity: 1;"/></g><g class="points"><path class="point" transform="translate(23.57,31.16)" d="M2.5,0A2.5,2.5 0 1,1 0,-2.5A2.5,2.5 0 0,1 2.5,0Z" style="opacity: 1; stroke-width: 0px; fill: rgb(106, 76, 147); fill-opacity: 1;"/><path class="point" transform="translate(34.53,38.62)" d="M2.5,0A2.5,2.5 0 1,1 0,-2.5A2.5,2.5 0 0,1 2.5,0Z" style="opacity: 1; stroke-width: 0px; fill: rgb(106, 76, 147); fill-opacity: 1;"/><path class="point" transform="translate(45.49,48.11)" d="M2.5,0A2.5,2.5 0 1,1 0,-2.5A2.5,2.5 0 0,1 2.5,0Z" style="opacity: 1; stroke-width: 0px; fill: rgb(106, 76, 147); fill-opacity: 1;"/><path class="point" transform="translate(56.46,58.02)" d="M2.5,0A2.5,2.5 0 1,1 0,-2.5A2.5,2.5 0 0,1 2.5,0Z" style="opacity: 1; stroke-width: 0px; fill: rgb(106, 76, 147); fill-opacity: 1;"/><path class="point" transform="translate(67.42,68.36)" d="M2.5,0A2.5,2.5 0 1,1 0,-2.5A2.5,2.5 0 0,1 2.5,0Z" style="opacity: 1; stroke-width: 0px; fill: rgb(106, 76, 147); fill-opacity: 1;"/><path class="point" transform="translate(78.38,78.98)" d="M2.5,0A2.5,2.5 0 1,1 0,-2.5A2.5,2.5 0 0,1 2.5,0Z" style="opacity: 1; stroke-width: 0px; fill: rgb(106, 76, 147); fill-opacity: 1;"/><path class="point" transform="translate(89.34,89.09)" d="M2.5,0A2.5,2.5 0 1,1 0,-2.5A2.5,2.5 0 0,1 2.5,0Z" style="opacity: 1; stroke-width: 0px; fill: rgb(106, 76, 147); fill-opacity: 1;"/><path class="point" transform="translate(100.31,96.98)" d="M2.5,0A2.5,2.5 0 1,1 0,-2.5A2.5,2.5 0 0,1 2.5,0Z" style="opacity: 1; stroke-width: 0px; fill: rgb(106, 76, 147); fill-opacity: 1;"/><path class="point" transform="translate(111.27,109.76)" d="M2.5,0A2.5,2.5 0 1,1 0,-2.5A2.5,2.5 0 0,1 2.5,0Z" style="opacity: 1; stroke-width: 0px; fill: rgb(106, 76, 147); fill-opacity: 1;"/><path class="point" transform="translate(122.23,120.94)" d="M2.5,0A2.5,2.5 0 1,1 0,-2.5A2.5,2.5 0 0,1 2.5,0Z" style="opacity: 1; stroke-width: 0px; fill: rgb(106, 76, 147); fill-opacity: 1;"/><path class="point" transform="translate(133.19,130.53)" d="M2.5,0A2.5,2.5 0 1,1 0,-2.5A2.5,2.5 0 0,1 2.5,0Z" style="opacity: 1; stroke-width: 0px; fill: rgb(106, 76, 147); fill-opacity: 1;"/><path class="point" transform="translate(144.16,137.81)" d="M2.5,0A2.5,2.5 0 1,1 0,-2.5A2.5,2.5 0 0,1 2.5,0Z" style="opacity: 1; stroke-width: 0px; fill: rgb(106, 76, 147); fill-opacity: 1;"/><path class="point" transform="translate(155.12,143.75)" d="M2.5,0A2.5,2.5 0 1,1 0,-2.5A2.5,2.5 0 0,1 2.5,0Z" style="opacity: 1; stroke-width: 0px; fill: rgb(106, 76, 147); fill-opacity: 1;"/><path class="point" transform="translate(166.08,149.77)" d="M2.5,0A2.5,2.5 0 1,1 0,-2.5A2.5,2.5 0 0,1 2.5,0Z" style="opacity: 1; stroke-width: 0px; fill: rgb(106, 76, 147); fill-opacity: 1;"/><path class="point" transform="translate(177.04,155.64)" d="M2.5,0A2.5,2.5 0 1,1 0,-2.5A2.5,2.5 0 0,1 2.5,0Z" style="opacity: 1; stroke-width: 0px; fill: rgb(106, 76, 147); fill-opacity: 1;"/><path class="point" transform="translate(188.01,160.39)" d="M2.5,0A2.5,2.5 0 1,1 0,-2.5A2.5,2.5 0 0,1 2.5,0Z" style="opacity: 1; stroke-width: 0px; fill: rgb(106, 76, 147); fill-opacity: 1;"/><path class="point" transform="translate(198.97,164.66)" d="M2.5,0A2.5,2.5 0 1,1 0,-2.5A2.5,2.5 0 0,1 2.5,0Z" style="opacity: 1; stroke-width: 0px; fill: rgb(106, 76, 147); fill-opacity: 1;"/><path class="point" transform="translate(209.93,168.75)" d="M2.5,0A2.5,2.5 0 1,1 0,-2.5A2.5,2.5 0 0,1 2.5,0Z" style="opacity: 1; stroke-width: 0px; fill: rgb(106, 76, 147); fill-opacity: 1;"/><path class="point" transform="translate(220.89,172.81)" d="M2.5,0A2.5,2.5 0 1,1 0,-2.5A2.5,2.5 0 0,1 2.5,0Z" style="opacity: 1; stroke-width: 0px; fill: rgb(106, 76, 147); fill-opacity: 1;"/><path class="point" transform="translate(231.86,176.23)" d="M2.5,0A2.5,2.5 0 1,1 0,-2.5A2.5,2.5 0 0,1 2.5,0Z" style="opacity: 1; stroke-width: 0px; fill: rgb(106, 76, 147); fill-opacity: 1;"/><path class="point" transform="translate(242.82,180.47)" d="M2.5,0A2.5,2.5 0 1,1 0,-2.5A2.5,2.5 0 0,1 2.5,0Z" style="opacity: 1; stroke-width: 0px; fill: rgb(106, 76, 147); fill-opacity: 1;"/><path class="point" transform="translate(253.78,186.11)" d="M2.5,0A2.5,2.5 0 1,1 0,-2.5A2.5,2.5 0 0,1 2.5,0Z" style="opacity: 1; stroke-width: 0px; fill: rgb(106, 76, 147); fill-opacity: 1;"/><path class="point" transform="translate(264.74,190.46)" d="M2.5,0A2.5,2.5 0 1,1 0,-2.5A2.5,2.5 0 0,1 2.5,0Z" style="opacity: 1; stroke-width: 0px; fill: rgb(106, 76, 147); fill-opacity: 1;"/><path class="point" transform="translate(275.71,194.62)" d="M2.5,0A2.5,2.5 0 1,1 0,-2.5A2.5,2.5 0 0,1 2.5,0Z" style="opacity: 1; stroke-width: 0px; fill: rgb(106, 76, 147); fill-opacity: 1;"/><path class="point" transform="translate(286.67,199.28)" d="M2.5,0A2.5,2.5 0 1,1 0,-2.5A2.5,2.5 0 0,1 2.5,0Z" style="opacity: 1; stroke-width: 0px; fill: rgb(106, 76, 147); fill-opacity: 1;"/><path class="point" transform="translate(297.63,203.23)" d="M2.5,0A2.5,2.5 0 1,1 0,-2.5A2.5,2.5 0 0,1 2.5,0Z" style="opacity: 1; stroke-width: 0px; fill: rgb(106, 76, 147); fill-opacity: 1;"/><path class="point" transform="translate(308.59,207.11)" d="M2.5,0A2.5,2.5 0 1,1 0,-2.5A2.5,2.5 0 0,1 2.5,0Z" style="opacity: 1; stroke-width: 0px; fill: rgb(106, 76, 147); fill-opacity: 1;"/><path class="point" transform="translate(319.56,211.89)" d="M2.5,0A2.5,2.5 0 1,1 0,-2.5A2.5,2.5 0 0,1 2.5,0Z" style="opacity: 1; stroke-width: 0px; fill: rgb(106, 76, 147); fill-opacity: 1;"/><path class="point" transform="translate(330.52,215.23)" d="M2.5,0A2.5,2.5 0 1,1 0,-2.5A2.5,2.5 0 0,1 2.5,0Z" style="opacity: 1; stroke-width: 0px; fill: rgb(106, 76, 147); fill-opacity: 1;"/><path class="point" transform="translate(341.48,218.39)" d="M2.5,0A2.5,2.5 0 1,1 0,-2.5A2.5,2.5 0 0,1 2.5,0Z" style="opacity: 1; stroke-width: 0px; fill: rgb(106, 76, 147); fill-opacity: 1;"/><path class="point" transform="translate(352.44,221.77)" d="M2.5,0A2.5,2.5 0 1,1 0,-2.5A2.5,2.5 0 0,1 2.5,0Z" style="opacity: 1; stroke-width: 0px; fill: rgb(106, 76, 147); fill-opacity: 1;"/><path class="point" transform="translate(363.41,208.5)" d="M2.5,0A2.5,2.5 0 1,1 0,-2.5A2.5,2.5 0 0,1 2.5,0Z" style="opacity: 1; stroke-width: 0px; fill: rgb(106, 76, 147); fill-opacity: 1;"/><path class="point" transform="translate(374.37,220.97)" d="M2.5,0A2.5,2.5 0 1,1 0,-2.5A2.5,2.5 0 0,1 2.5,0Z" style="opacity: 1; stroke-width: 0px; fill: rgb(106, 76, 147); fill-opacity: 1;"/><path class="point" transform="translate(385.33,227.04)" d="M2.5,0A2.5,2.5 0 1,1 0,-2.5A2.5,2.5 0 0,1 2.5,0Z" style="opacity: 1; stroke-width: 0px; fill: rgb(106, 76, 147); fill-opacity: 1;"/></g><g class="text"/></g><g class="trace scatter trace437926" style="stroke-miterlimit: 2; opacity: 1;"><g class="fills"><g><path class="js-fill" d="M23.57,291.18L56.46,293.97L67.42,295.44L89.34,297.01L100.31,298.67L133.19,303.4L144.16,304.47L155.12,306.18L166.08,306.4L209.93,309.95L220.89,311.39L253.78,313.11L264.74,312.52L330.52,312.6L341.48,313.49L374.37,309.2L385.33,310.24L385.33,387.68L374.37,388.19L363.41,387.9L352.44,388.89L341.48,389.5L330.52,389.16L297.63,388.74L286.67,388.49L264.74,387.91L253.78,387.83L166.08,385.09L155.12,384.86L122.23,383.04L111.27,381.75L100.31,380.38L89.34,380.03L67.42,378.71L56.46,377.68L23.57,375.57Z" style="fill: rgb(25, 130, 196); fill-opacity: 0.15; stroke-width: 0;"/></g></g><g class="errorbars"/><g class="lines"><path class="js-line" d="M23.57,291.18L56.46,293.97L67.42,295.44L89.34,297.01L100.31,298.67L133.19,303.4L144.16,304.47L155.12,306.18L166.08,306.4L209.93,309.95L220.89,311.39L253.78,313.11L264.74,312.52L330.52,312.6L341.48,313.49L374.37,309.2L385.33,310.24L385.33,387.68L374.37,388.19L363.41,387.9L352.44,388.89L341.48,389.5L330.52,389.16L297.63,388.74L286.67,388.49L264.74,387.91L253.78,387.83L166.08,385.09L155.12,384.86L122.23,383.04L111.27,381.75L100.31,380.38L89.34,380.03L67.42,378.71L56.46,377.68L23.57,375.57" style="vector-effect: none; fill: none; stroke: rgb(0, 0, 0); stroke-opacity: 0; stroke-width: 2px; opacity: 1;"/></g><g class="points"/><g class="text"/></g><g class="trace scatter traceb14acb" style="stroke-miterlimit: 2; opacity: 1;"><g class="fills"/><g class="errorbars"/><g class="lines"><path class="js-line" d="M23.57,336.74L78.38,339.99L89.34,340.92L111.27,343.56L122.23,345.1L155.12,347.76L166.08,348.13L188.01,349.36L198.97,350.01L242.82,352.47L253.78,352.8L319.56,354.13L330.52,354.52L341.48,354.96L352.44,354.39L363.41,353.05L374.37,352.48L385.33,352.62" style="vector-effect: none; fill: none; stroke: rgb(25, 130, 196); stroke-opacity: 1; stroke-width: 2.5px; opacity: 1;"/></g><g class="points"><path class="point" transform="translate(23.57,336.74)" d="M2.5,0A2.5,2.5 0 1,1 0,-2.5A2.5,2.5 0 0,1 2.5,0Z" style="opacity: 1; stroke-width: 0px; fill: rgb(25, 130, 196); fill-opacity: 1;"/><path class="point" transform="translate(34.53,337.28)" d="M2.5,0A2.5,2.5 0 1,1 0,-2.5A2.5,2.5 0 0,1 2.5,0Z" style="opacity: 1; stroke-width: 0px; fill: rgb(25, 130, 196); fill-opacity: 1;"/><path class="point" transform="translate(45.49,338.01)" d="M2.5,0A2.5,2.5 0 1,1 0,-2.5A2.5,2.5 0 0,1 2.5,0Z" style="opacity: 1; stroke-width: 0px; fill: rgb(25, 130, 196); fill-opacity: 1;"/><path class="point" transform="translate(56.46,338.69)" d="M2.5,0A2.5,2.5 0 1,1 0,-2.5A2.5,2.5 0 0,1 2.5,0Z" style="opacity: 1; stroke-width: 0px; fill: rgb(25, 130, 196); fill-opacity: 1;"/><path class="point" transform="translate(67.42,339.37)" d="M2.5,0A2.5,2.5 0 1,1 0,-2.5A2.5,2.5 0 0,1 2.5,0Z" style="opacity: 1; stroke-width: 0px; fill: rgb(25, 130, 196); fill-opacity: 1;"/><path class="point" transform="translate(78.38,339.99)" d="M2.5,0A2.5,2.5 0 1,1 0,-2.5A2.5,2.5 0 0,1 2.5,0Z" style="opacity: 1; stroke-width: 0px; fill: rgb(25, 130, 196); fill-opacity: 1;"/><path class="point" transform="translate(89.34,340.92)" d="M2.5,0A2.5,2.5 0 1,1 0,-2.5A2.5,2.5 0 0,1 2.5,0Z" style="opacity: 1; stroke-width: 0px; fill: rgb(25, 130, 196); fill-opacity: 1;"/><path class="point" transform="translate(100.31,342.02)" d="M2.5,0A2.5,2.5 0 1,1 0,-2.5A2.5,2.5 0 0,1 2.5,0Z" style="opacity: 1; stroke-width: 0px; fill: rgb(25, 130, 196); fill-opacity: 1;"/><path class="point" transform="translate(111.27,343.56)" d="M2.5,0A2.5,2.5 0 1,1 0,-2.5A2.5,2.5 0 0,1 2.5,0Z" style="opacity: 1; stroke-width: 0px; fill: rgb(25, 130, 196); fill-opacity: 1;"/><path class="point" transform="translate(122.23,345.1)" d="M2.5,0A2.5,2.5 0 1,1 0,-2.5A2.5,2.5 0 0,1 2.5,0Z" style="opacity: 1; stroke-width: 0px; fill: rgb(25, 130, 196); fill-opacity: 1;"/><path class="point" transform="translate(133.19,346.15)" d="M2.5,0A2.5,2.5 0 1,1 0,-2.5A2.5,2.5 0 0,1 2.5,0Z" style="opacity: 1; stroke-width: 0px; fill: rgb(25, 130, 196); fill-opacity: 1;"/><path class="point" transform="translate(144.16,346.8)" d="M2.5,0A2.5,2.5 0 1,1 0,-2.5A2.5,2.5 0 0,1 2.5,0Z" style="opacity: 1; stroke-width: 0px; fill: rgb(25, 130, 196); fill-opacity: 1;"/><path class="point" transform="translate(155.12,347.76)" d="M2.5,0A2.5,2.5 0 1,1 0,-2.5A2.5,2.5 0 0,1 2.5,0Z" style="opacity: 1; stroke-width: 0px; fill: rgb(25, 130, 196); fill-opacity: 1;"/><path class="point" transform="translate(166.08,348.13)" d="M2.5,0A2.5,2.5 0 1,1 0,-2.5A2.5,2.5 0 0,1 2.5,0Z" style="opacity: 1; stroke-width: 0px; fill: rgb(25, 130, 196); fill-opacity: 1;"/><path class="point" transform="translate(177.04,349.02)" d="M2.5,0A2.5,2.5 0 1,1 0,-2.5A2.5,2.5 0 0,1 2.5,0Z" style="opacity: 1; stroke-width: 0px; fill: rgb(25, 130, 196); fill-opacity: 1;"/><path class="point" transform="translate(188.01,349.36)" d="M2.5,0A2.5,2.5 0 1,1 0,-2.5A2.5,2.5 0 0,1 2.5,0Z" style="opacity: 1; stroke-width: 0px; fill: rgb(25, 130, 196); fill-opacity: 1;"/><path class="point" transform="translate(198.97,350.01)" d="M2.5,0A2.5,2.5 0 1,1 0,-2.5A2.5,2.5 0 0,1 2.5,0Z" style="opacity: 1; stroke-width: 0px; fill: rgb(25, 130, 196); fill-opacity: 1;"/><path class="point" transform="translate(209.93,350.7)" d="M2.5,0A2.5,2.5 0 1,1 0,-2.5A2.5,2.5 0 0,1 2.5,0Z" style="opacity: 1; stroke-width: 0px; fill: rgb(25, 130, 196); fill-opacity: 1;"/><path class="point" transform="translate(220.89,351.51)" d="M2.5,0A2.5,2.5 0 1,1 0,-2.5A2.5,2.5 0 0,1 2.5,0Z" style="opacity: 1; stroke-width: 0px; fill: rgb(25, 130, 196); fill-opacity: 1;"/><path class="point" transform="translate(231.86,351.92)" d="M2.5,0A2.5,2.5 0 1,1 0,-2.5A2.5,2.5 0 0,1 2.5,0Z" style="opacity: 1; stroke-width: 0px; fill: rgb(25, 130, 196); fill-opacity: 1;"/><path class="point" transform="translate(242.82,352.47)" d="M2.5,0A2.5,2.5 0 1,1 0,-2.5A2.5,2.5 0 0,1 2.5,0Z" style="opacity: 1; stroke-width: 0px; fill: rgb(25, 130, 196); fill-opacity: 1;"/><path class="point" transform="translate(253.78,352.8)" d="M2.5,0A2.5,2.5 0 1,1 0,-2.5A2.5,2.5 0 0,1 2.5,0Z" style="opacity: 1; stroke-width: 0px; fill: rgb(25, 130, 196); fill-opacity: 1;"/><path class="point" transform="translate(264.74,352.92)" d="M2.5,0A2.5,2.5 0 1,1 0,-2.5A2.5,2.5 0 0,1 2.5,0Z" style="opacity: 1; stroke-width: 0px; fill: rgb(25, 130, 196); fill-opacity: 1;"/><path class="point" transform="translate(275.71,353.14)" d="M2.5,0A2.5,2.5 0 1,1 0,-2.5A2.5,2.5 0 0,1 2.5,0Z" style="opacity: 1; stroke-width: 0px; fill: rgb(25, 130, 196); fill-opacity: 1;"/><path class="point" transform="translate(286.67,353.39)" d="M2.5,0A2.5,2.5 0 1,1 0,-2.5A2.5,2.5 0 0,1 2.5,0Z" style="opacity: 1; stroke-width: 0px; fill: rgb(25, 130, 196); fill-opacity: 1;"/><path class="point" transform="translate(297.63,353.49)" d="M2.5,0A2.5,2.5 0 1,1 0,-2.5A2.5,2.5 0 0,1 2.5,0Z" style="opacity: 1; stroke-width: 0px; fill: rgb(25, 130, 196); fill-opacity: 1;"/><path class="point" transform="translate(308.59,353.74)" d="M2.5,0A2.5,2.5 0 1,1 0,-2.5A2.5,2.5 0 0,1 2.5,0Z" style="opacity: 1; stroke-width: 0px; fill: rgb(25, 130, 196); fill-opacity: 1;"/><path class="point" transform="translate(319.56,354.13)" d="M2.5,0A2.5,2.5 0 1,1 0,-2.5A2.5,2.5 0 0,1 2.5,0Z" style="opacity: 1; stroke-width: 0px; fill: rgb(25, 130, 196); fill-opacity: 1;"/><path class="point" transform="translate(330.52,354.52)" d="M2.5,0A2.5,2.5 0 1,1 0,-2.5A2.5,2.5 0 0,1 2.5,0Z" style="opacity: 1; stroke-width: 0px; fill: rgb(25, 130, 196); fill-opacity: 1;"/><path class="point" transform="translate(341.48,354.96)" d="M2.5,0A2.5,2.5 0 1,1 0,-2.5A2.5,2.5 0 0,1 2.5,0Z" style="opacity: 1; stroke-width: 0px; fill: rgb(25, 130, 196); fill-opacity: 1;"/><path class="point" transform="translate(352.44,354.39)" d="M2.5,0A2.5,2.5 0 1,1 0,-2.5A2.5,2.5 0 0,1 2.5,0Z" style="opacity: 1; stroke-width: 0px; fill: rgb(25, 130, 196); fill-opacity: 1;"/><path class="point" transform="translate(363.41,353.05)" d="M2.5,0A2.5,2.5 0 1,1 0,-2.5A2.5,2.5 0 0,1 2.5,0Z" style="opacity: 1; stroke-width: 0px; fill: rgb(25, 130, 196); fill-opacity: 1;"/><path class="point" transform="translate(374.37,352.48)" d="M2.5,0A2.5,2.5 0 1,1 0,-2.5A2.5,2.5 0 0,1 2.5,0Z" style="opacity: 1; stroke-width: 0px; fill: rgb(25, 130, 196); fill-opacity: 1;"/><path class="point" transform="translate(385.33,352.62)" d="M2.5,0A2.5,2.5 0 1,1 0,-2.5A2.5,2.5 0 0,1 2.5,0Z" style="opacity: 1; stroke-width: 0px; fill: rgb(25, 130, 196); fill-opacity: 1;"/></g><g class="text"/></g></g></g></g><path class="xlines-above crisp" d="M59.2,460.4H469.7M59.2,49.6H469.7" style="fill: none; stroke-width: 0.8px; stroke: rgb(51, 51, 51); stroke-opacity: 1;"/><path class="ylines-above crisp" d="M59.6,50V460M469.29999999999995,50V460" style="fill: none; stroke-width: 0.8px; stroke: rgb(51, 51, 51); stroke-opacity: 1;"/><g class="overlines-above"/><g class="xaxislayer-above"><g class="xtick"><text text-anchor="middle" x="0" y="474" transform="translate(83.57,0)" style="font-family: Arial, Helvetica, sans-serif; font-size: 11px; fill: rgb(34, 34, 34); fill-opacity: 1; white-space: pre; opacity: 1;">1990</text></g><g class="xtick"><text text-anchor="middle" x="0" y="474" style="font-family: Arial, Helvetica, sans-serif; font-size: 11px; fill: rgb(34, 34, 34); fill-opacity: 1; white-space: pre; opacity: 1;" transform="translate(193.19,0)">2000</text></g><g class="xtick"><text text-anchor="middle" x="0" y="474" style="font-family: Arial, Helvetica, sans-serif; font-size: 11px; fill: rgb(34, 34, 34); fill-opacity: 1; white-space: pre; opacity: 1;" transform="translate(302.82,0)">2010</text></g><g class="xtick"><text text-anchor="middle" x="0" y="474" style="font-family: Arial, Helvetica, sans-serif; font-size: 11px; fill: rgb(34, 34, 34); fill-opacity: 1; white-space: pre; opacity: 1;" transform="translate(412.44,0)">2020</text></g></g><g class="yaxislayer-above"><g class="ytick"><text text-anchor="end" x="57" y="3.8499999999999996" transform="translate(0,396.39)" style="font-family: Arial, Helvetica, sans-serif; font-size: 11px; fill: rgb(34, 34, 34); fill-opacity: 1; white-space: pre; opacity: 1;">10k</text></g><g class="ytick"><text text-anchor="end" x="57" y="3.8499999999999996" style="font-family: Arial, Helvetica, sans-serif; font-size: 11px; fill: rgb(34, 34, 34); fill-opacity: 1; white-space: pre; opacity: 1;" transform="translate(0,318.76)">15k</text></g><g class="ytick"><text text-anchor="end" x="57" y="3.8499999999999996" style="font-family: Arial, Helvetica, sans-serif; font-size: 11px; fill: rgb(34, 34, 34); fill-opacity: 1; white-space: pre; opacity: 1;" transform="translate(0,241.14)">20k</text></g><g class="ytick"><text text-anchor="end" x="57" y="3.8499999999999996" style="font-family: Arial, Helvetica, sans-serif; font-size: 11px; fill: rgb(34, 34, 34); fill-opacity: 1; white-space: pre; opacity: 1;" transform="translate(0,163.51)">25k</text></g><g class="ytick"><text text-anchor="end" x="57" y="3.8499999999999996" style="font-family: Arial, Helvetica, sans-serif; font-size: 11px; fill: rgb(34, 34, 34); fill-opacity: 1; white-space: pre; opacity: 1;" transform="translate(0,85.88)">30k</text></g></g><g class="overaxes-above"/></g><g class="subplot x2y2"><g class="layer-subplot"><g class="shapelayer"/><g class="imagelayer"/></g><g class="minor-gridlayer"><g class="x2"/><g class="y2"/></g><g class="gridlayer"><g class="x2"><path class="x2grid crisp" transform="translate(615.92,0)" d="M0,50v410" style="stroke: rgb(240, 240, 240); stroke-opacity: 1; stroke-width: 1px;"/><path class="x2grid crisp" transform="translate(724.79,0)" d="M0,50v410" style="stroke: rgb(240, 240, 240); stroke-opacity: 1; stroke-width: 1px;"/><path class="x2grid crisp" transform="translate(833.6499999999999,0)" d="M0,50v410" style="stroke: rgb(240, 240, 240); stroke-opacity: 1; stroke-width: 1px;"/><path class="x2grid crisp" transform="translate(942.52,0)" d="M0,50v410" style="stroke: rgb(240, 240, 240); stroke-opacity: 1; stroke-width: 1px;"/></g><g class="y2"><path class="y2grid crisp" transform="translate(0,417.54)" d="M591.0999999999999,0h408.90000000000003" style="stroke: rgb(240, 240, 240); stroke-opacity: 1; stroke-width: 1px;"/><path class="y2grid crisp" transform="translate(0,376.08)" d="M591.0999999999999,0h408.90000000000003" style="stroke: rgb(240, 240, 240); stroke-opacity: 1; stroke-width: 1px;"/><path class="y2grid crisp" transform="translate(0,334.63)" d="M591.0999999999999,0h408.90000000000003" style="stroke: rgb(240, 240, 240); stroke-opacity: 1; stroke-width: 1px;"/><path class="y2grid crisp" transform="translate(0,293.16999999999996)" d="M591.0999999999999,0h408.90000000000003" style="stroke: rgb(240, 240, 240); stroke-opacity: 1; stroke-width: 1px;"/><path class="y2grid crisp" transform="translate(0,251.71)" d="M591.0999999999999,0h408.90000000000003" style="stroke: rgb(240, 240, 240); stroke-opacity: 1; stroke-width: 1px;"/><path class="y2grid crisp" transform="translate(0,210.25)" d="M591.0999999999999,0h408.90000000000003" style="stroke: rgb(240, 240, 240); stroke-opacity: 1; stroke-width: 1px;"/><path class="y2grid crisp" transform="translate(0,168.8)" d="M591.0999999999999,0h408.90000000000003" style="stroke: rgb(240, 240, 240); stroke-opacity: 1; stroke-width: 1px;"/><path class="y2grid crisp" transform="translate(0,127.34)" d="M591.0999999999999,0h408.90000000000003" style="stroke: rgb(240, 240, 240); stroke-opacity: 1; stroke-width: 1px;"/><path class="y2grid crisp" transform="translate(0,85.88)" d="M591.0999999999999,0h408.90000000000003" style="stroke: rgb(240, 240, 240); stroke-opacity: 1; stroke-width: 1px;"/></g></g><g class="zerolinelayer"/><g class="layer-between"><g class="shapelayer"/><g class="imagelayer"/></g><path class="xlines-below"/><path class="ylines-below"/><g class="overlines-below"/><g class="xaxislayer-below"/><g class="yaxislayer-below"/><g class="overaxes-below"/><g class="overplot"><g class="x2y2" transform="translate(591.0999999999999,50)" clip-path="url(#clip08cceex2y2plot)"><g class="scatterlayer mlayer"><g class="trace scatter tracec88e50" style="stroke-miterlimit: 2; opacity: 1;"><g class="fills"/><g class="errorbars"/><g class="lines"><path class="js-line" d="M24.82,24.87L35.71,32.36L46.59,41.76L68.37,62.8L79.25,74.3L90.14,84.19L101.03,90.8L111.91,102.43L122.8,112.19L133.69,121.57L144.57,129.22L155.46,134.2L166.35,141.14L188.12,151.79L199.01,155.63L242.55,170L253.44,176.84L286.1,193.51L296.99,198.77L307.87,203.51L318.76,209.12L340.53,216.02L351.42,222.3L362.31,207.37L373.19,226.24L384.08,234.33" style="vector-effect: none; fill: none; stroke: rgb(51, 51, 51); stroke-opacity: 1; stroke-width: 2.5px; opacity: 1;"/></g><g class="points"><path class="point" transform="translate(24.82,24.87)" d="M3.5,0A3.5,3.5 0 1,1 0,-3.5A3.5,3.5 0 0,1 3.5,0Z" style="opacity: 1; stroke-width: 0px; fill: rgb(103, 0, 31); fill-opacity: 1;"/><path class="point" transform="translate(35.71,32.36)" d="M3.5,0A3.5,3.5 0 1,1 0,-3.5A3.5,3.5 0 0,1 3.5,0Z" style="opacity: 1; stroke-width: 0px; fill: rgb(130, 9, 35); fill-opacity: 1;"/><path class="point" transform="translate(46.59,41.76)" d="M3.5,0A3.5,3.5 0 1,1 0,-3.5A3.5,3.5 0 0,1 3.5,0Z" style="opacity: 1; stroke-width: 0px; fill: rgb(163, 19, 41); fill-opacity: 1;"/><path class="point" transform="translate(57.48,51.97)" d="M3.5,0A3.5,3.5 0 1,1 0,-3.5A3.5,3.5 0 0,1 3.5,0Z" style="opacity: 1; stroke-width: 0px; fill: rgb(189, 45, 53); fill-opacity: 1;"/><path class="point" transform="translate(68.37,62.8)" d="M3.5,0A3.5,3.5 0 1,1 0,-3.5A3.5,3.5 0 0,1 3.5,0Z" style="opacity: 1; stroke-width: 0px; fill: rgb(207, 82, 71); fill-opacity: 1;"/><path class="point" transform="translate(79.25,74.3)" d="M3.5,0A3.5,3.5 0 1,1 0,-3.5A3.5,3.5 0 0,1 3.5,0Z" style="opacity: 1; stroke-width: 0px; fill: rgb(225, 121, 96); fill-opacity: 1;"/><path class="point" transform="translate(90.14,84.19)" d="M3.5,0A3.5,3.5 0 1,1 0,-3.5A3.5,3.5 0 0,1 3.5,0Z" style="opacity: 1; stroke-width: 0px; fill: rgb(239, 153, 121); fill-opacity: 1;"/><path class="point" transform="translate(101.03,90.8)" d="M3.5,0A3.5,3.5 0 1,1 0,-3.5A3.5,3.5 0 0,1 3.5,0Z" style="opacity: 1; stroke-width: 0px; fill: rgb(245, 173, 140); fill-opacity: 1;"/><path class="point" transform="translate(111.91,102.43)" d="M3.5,0A3.5,3.5 0 1,1 0,-3.5A3.5,3.5 0 0,1 3.5,0Z" style="opacity: 1; stroke-width: 0px; fill: rgb(250, 203, 178); fill-opacity: 1;"/><path class="point" transform="translate(122.8,112.19)" d="M3.5,0A3.5,3.5 0 1,1 0,-3.5A3.5,3.5 0 0,1 3.5,0Z" style="opacity: 1; stroke-width: 0px; fill: rgb(252, 224, 207); fill-opacity: 1;"/><path class="point" transform="translate(133.69,121.57)" d="M3.5,0A3.5,3.5 0 1,1 0,-3.5A3.5,3.5 0 0,1 3.5,0Z" style="opacity: 1; stroke-width: 0px; fill: rgb(249, 236, 229); fill-opacity: 1;"/><path class="point" transform="translate(144.57,129.22)" d="M3.5,0A3.5,3.5 0 1,1 0,-3.5A3.5,3.5 0 0,1 3.5,0Z" style="opacity: 1; stroke-width: 0px; fill: rgb(247, 246, 246); fill-opacity: 1;"/><path class="point" transform="translate(155.46,134.2)" d="M3.5,0A3.5,3.5 0 1,1 0,-3.5A3.5,3.5 0 0,1 3.5,0Z" style="opacity: 1; stroke-width: 0px; fill: rgb(239, 243, 245); fill-opacity: 1;"/><path class="point" transform="translate(166.35,141.14)" d="M3.5,0A3.5,3.5 0 1,1 0,-3.5A3.5,3.5 0 0,1 3.5,0Z" style="opacity: 1; stroke-width: 0px; fill: rgb(226, 237, 243); fill-opacity: 1;"/><path class="point" transform="translate(177.23,146.37)" d="M3.5,0A3.5,3.5 0 1,1 0,-3.5A3.5,3.5 0 0,1 3.5,0Z" style="opacity: 1; stroke-width: 0px; fill: rgb(217, 233, 241); fill-opacity: 1;"/><path class="point" transform="translate(188.12,151.79)" d="M3.5,0A3.5,3.5 0 1,1 0,-3.5A3.5,3.5 0 0,1 3.5,0Z" style="opacity: 1; stroke-width: 0px; fill: rgb(205, 227, 239); fill-opacity: 1;"/><path class="point" transform="translate(199.01,155.63)" d="M3.5,0A3.5,3.5 0 1,1 0,-3.5A3.5,3.5 0 0,1 3.5,0Z" style="opacity: 1; stroke-width: 0px; fill: rgb(194, 221, 236); fill-opacity: 1;"/><path class="point" transform="translate(209.89,159.13)" d="M3.5,0A3.5,3.5 0 1,1 0,-3.5A3.5,3.5 0 0,1 3.5,0Z" style="opacity: 1; stroke-width: 0px; fill: rgb(183, 216, 233); fill-opacity: 1;"/><path class="point" transform="translate(220.78,162.28)" d="M3.5,0A3.5,3.5 0 1,1 0,-3.5A3.5,3.5 0 0,1 3.5,0Z" style="opacity: 1; stroke-width: 0px; fill: rgb(174, 211, 230); fill-opacity: 1;"/><path class="point" transform="translate(231.67,165.77)" d="M3.5,0A3.5,3.5 0 1,1 0,-3.5A3.5,3.5 0 0,1 3.5,0Z" style="opacity: 1; stroke-width: 0px; fill: rgb(163, 206, 227); fill-opacity: 1;"/><path class="point" transform="translate(242.55,170)" d="M3.5,0A3.5,3.5 0 1,1 0,-3.5A3.5,3.5 0 0,1 3.5,0Z" style="opacity: 1; stroke-width: 0px; fill: rgb(150, 199, 223); fill-opacity: 1;"/><path class="point" transform="translate(253.44,176.84)" d="M3.5,0A3.5,3.5 0 1,1 0,-3.5A3.5,3.5 0 0,1 3.5,0Z" style="opacity: 1; stroke-width: 0px; fill: rgb(126, 184, 215); fill-opacity: 1;"/><path class="point" transform="translate(264.33,182.59)" d="M3.5,0A3.5,3.5 0 1,1 0,-3.5A3.5,3.5 0 0,1 3.5,0Z" style="opacity: 1; stroke-width: 0px; fill: rgb(104, 171, 208); fill-opacity: 1;"/><path class="point" transform="translate(275.21,187.72)" d="M3.5,0A3.5,3.5 0 1,1 0,-3.5A3.5,3.5 0 0,1 3.5,0Z" style="opacity: 1; stroke-width: 0px; fill: rgb(85, 158, 201); fill-opacity: 1;"/><path class="point" transform="translate(286.1,193.51)" d="M3.5,0A3.5,3.5 0 1,1 0,-3.5A3.5,3.5 0 0,1 3.5,0Z" style="opacity: 1; stroke-width: 0px; fill: rgb(65, 145, 194); fill-opacity: 1;"/><path class="point" transform="translate(296.99,198.77)" d="M3.5,0A3.5,3.5 0 1,1 0,-3.5A3.5,3.5 0 0,1 3.5,0Z" style="opacity: 1; stroke-width: 0px; fill: rgb(57, 133, 188); fill-opacity: 1;"/><path class="point" transform="translate(307.87,203.51)" d="M3.5,0A3.5,3.5 0 1,1 0,-3.5A3.5,3.5 0 0,1 3.5,0Z" style="opacity: 1; stroke-width: 0px; fill: rgb(49, 123, 183); fill-opacity: 1;"/><path class="point" transform="translate(318.76,209.12)" d="M3.5,0A3.5,3.5 0 1,1 0,-3.5A3.5,3.5 0 0,1 3.5,0Z" style="opacity: 1; stroke-width: 0px; fill: rgb(40, 111, 177); fill-opacity: 1;"/><path class="point" transform="translate(329.65,212.75)" d="M3.5,0A3.5,3.5 0 1,1 0,-3.5A3.5,3.5 0 0,1 3.5,0Z" style="opacity: 1; stroke-width: 0px; fill: rgb(34, 103, 173); fill-opacity: 1;"/><path class="point" transform="translate(340.53,216.02)" d="M3.5,0A3.5,3.5 0 1,1 0,-3.5A3.5,3.5 0 0,1 3.5,0Z" style="opacity: 1; stroke-width: 0px; fill: rgb(29, 95, 163); fill-opacity: 1;"/><path class="point" transform="translate(351.42,222.3)" d="M3.5,0A3.5,3.5 0 1,1 0,-3.5A3.5,3.5 0 0,1 3.5,0Z" style="opacity: 1; stroke-width: 0px; fill: rgb(21, 79, 140); fill-opacity: 1;"/><path class="point" transform="translate(362.31,207.37)" d="M3.5,0A3.5,3.5 0 1,1 0,-3.5A3.5,3.5 0 0,1 3.5,0Z" style="opacity: 1; stroke-width: 0px; fill: rgb(43, 115, 179); fill-opacity: 1;"/><path class="point" transform="translate(373.19,226.24)" d="M3.5,0A3.5,3.5 0 1,1 0,-3.5A3.5,3.5 0 0,1 3.5,0Z" style="opacity: 1; stroke-width: 0px; fill: rgb(16, 69, 126); fill-opacity: 1;"/><path class="point" transform="translate(384.08,234.33)" d="M3.5,0A3.5,3.5 0 1,1 0,-3.5A3.5,3.5 0 0,1 3.5,0Z" style="opacity: 1; stroke-width: 0px; fill: rgb(5, 48, 97); fill-opacity: 1;"/></g><g class="text"/></g></g></g></g><path class="xlines-above crisp" d="M590.3,460.4H1000.8M590.3,49.6H1000.8" style="fill: none; stroke-width: 0.8px; stroke: rgb(51, 51, 51); stroke-opacity: 1;"/><path class="ylines-above crisp" d="M590.6999999999999,50V460M1000.4,50V460" style="fill: none; stroke-width: 0.8px; stroke: rgb(51, 51, 51); stroke-opacity: 1;"/><g class="overlines-above"/><g class="xaxislayer-above"><g class="x2tick"><text text-anchor="middle" x="0" y="474" transform="translate(615.92,0)" style="font-family: Arial, Helvetica, sans-serif; font-size: 11px; fill: rgb(34, 34, 34); fill-opacity: 1; white-space: pre; opacity: 1;">1990</text></g><g class="x2tick"><text text-anchor="middle" x="0" y="474" style="font-family: Arial, Helvetica, sans-serif; font-size: 11px; fill: rgb(34, 34, 34); fill-opacity: 1; white-space: pre; opacity: 1;" transform="translate(724.79,0)">2000</text></g><g class="x2tick"><text text-anchor="middle" x="0" y="474" style="font-family: Arial, Helvetica, sans-serif; font-size: 11px; fill: rgb(34, 34, 34); fill-opacity: 1; white-space: pre; opacity: 1;" transform="translate(833.6499999999999,0)">2010</text></g><g class="x2tick"><text text-anchor="middle" x="0" y="474" style="font-family: Arial, Helvetica, sans-serif; font-size: 11px; fill: rgb(34, 34, 34); fill-opacity: 1; white-space: pre; opacity: 1;" transform="translate(942.52,0)">2020</text></g></g><g class="yaxislayer-above"><g class="y2tick"><text text-anchor="end" x="588.0999999999999" y="3.8499999999999996" transform="translate(0,459)" style="font-family: Arial, Helvetica, sans-serif; font-size: 11px; fill: rgb(34, 34, 34); fill-opacity: 1; white-space: pre; opacity: 1;">1</text></g><g class="y2tick"><text text-anchor="end" x="588.0999999999999" y="3.8499999999999996" style="font-family: Arial, Helvetica, sans-serif; font-size: 11px; fill: rgb(34, 34, 34); fill-opacity: 1; white-space: pre; opacity: 1;" transform="translate(0,417.54)">1.2</text></g><g class="y2tick"><text text-anchor="end" x="588.0999999999999" y="3.8499999999999996" style="font-family: Arial, Helvetica, sans-serif; font-size: 11px; fill: rgb(34, 34, 34); fill-opacity: 1; white-space: pre; opacity: 1;" transform="translate(0,376.08)">1.4</text></g><g class="y2tick"><text text-anchor="end" x="588.0999999999999" y="3.8499999999999996" style="font-family: Arial, Helvetica, sans-serif; font-size: 11px; fill: rgb(34, 34, 34); fill-opacity: 1; white-space: pre; opacity: 1;" transform="translate(0,334.63)">1.6</text></g><g class="y2tick"><text text-anchor="end" x="588.0999999999999" y="3.8499999999999996" style="font-family: Arial, Helvetica, sans-serif; font-size: 11px; fill: rgb(34, 34, 34); fill-opacity: 1; white-space: pre; opacity: 1;" transform="translate(0,293.16999999999996)">1.8</text></g><g class="y2tick"><text text-anchor="end" x="588.0999999999999" y="3.8499999999999996" style="font-family: Arial, Helvetica, sans-serif; font-size: 11px; fill: rgb(34, 34, 34); fill-opacity: 1; white-space: pre; opacity: 1;" transform="translate(0,251.71)">2</text></g><g class="y2tick"><text text-anchor="end" x="588.0999999999999" y="3.8499999999999996" style="font-family: Arial, Helvetica, sans-serif; font-size: 11px; fill: rgb(34, 34, 34); fill-opacity: 1; white-space: pre; opacity: 1;" transform="translate(0,210.25)">2.2</text></g><g class="y2tick"><text text-anchor="end" x="588.0999999999999" y="3.8499999999999996" style="font-family: Arial, Helvetica, sans-serif; font-size: 11px; fill: rgb(34, 34, 34); fill-opacity: 1; white-space: pre; opacity: 1;" transform="translate(0,168.8)">2.4</text></g><g class="y2tick"><text text-anchor="end" x="588.0999999999999" y="3.8499999999999996" style="font-family: Arial, Helvetica, sans-serif; font-size: 11px; fill: rgb(34, 34, 34); fill-opacity: 1; white-space: pre; opacity: 1;" transform="translate(0,127.34)">2.6</text></g><g class="y2tick"><text text-anchor="end" x="588.0999999999999" y="3.8499999999999996" style="font-family: Arial, Helvetica, sans-serif; font-size: 11px; fill: rgb(34, 34, 34); fill-opacity: 1; white-space: pre; opacity: 1;" transform="translate(0,85.88)">2.8</text></g></g><g class="overaxes-above"/></g></g><g class="polarlayer"/><g class="smithlayer"/><g class="ternarylayer"/><g class="geolayer"/><g class="funnelarealayer"/><g class="pielayer"/><g class="iciclelayer"/><g class="treemaplayer"/><g class="sunburstlayer"/><g class="glimages"/><defs id="topdefs-08ccee"><g class="clips"/><clipPath id="legend08ccee"><rect width="115" height="67" x="1" y="1"/></clipPath></defs><g class="layer-above"><g class="imagelayer"/><g class="shapelayer"><g class="shape-group" data-index="0" clip-path="url(#clip08cceey2)"><path data-index="0" fill-rule="evenodd" d="M591.0999999999999,459L1000,459" style="opacity: 1; stroke: rgb(136, 136, 136); stroke-opacity: 1; fill: rgb(0, 0, 0); fill-opacity: 0; stroke-dasharray: 9px, 9px; stroke-width: 2px;"/></g></g></g><g class="infolayer"><g class="legend" pointer-events="all" transform="translate(483,50)"><rect class="bg" shape-rendering="crispEdges" width="116" height="68" x="0.5" y="0.5" style="stroke: rgb(204, 204, 204); stroke-opacity: 1; fill: rgb(255, 255, 255); fill-opacity: 0.95; stroke-width: 1px;"/><g class="scrollbox" transform="" clip-path="url(#legend08ccee)"><g class="groups"><g class="traces" transform="translate(1,15.5)" style="opacity: 1;"><text class="legendtext" text-anchor="start" x="40" y="4.29" style="font-family: Arial, Helvetica, sans-serif; font-size: 11px; fill: rgb(34, 34, 34); fill-opacity: 1; white-space: pre;">YLL rate</text><g class="layers" style="opacity: 1;"><g class="legendfill"/><g class="legendlines"><path class="js-line" d="M5,0h30" style="fill: none; stroke: rgb(106, 76, 147); stroke-opacity: 1; stroke-width: 2.5px;"/></g><g class="legendsymbols"><g class="legendpoints"><path class="scatterpts" transform="translate(20,0)" d="M2.5,0A2.5,2.5 0 1,1 0,-2.5A2.5,2.5 0 0,1 2.5,0Z" style="opacity: 1; stroke-width: 0px; fill: rgb(106, 76, 147); fill-opacity: 1;"/></g></g></g><rect class="legendtoggle" x="0" y="-9.5" width="109.484375" height="19" style="fill: rgb(0, 0, 0); fill-opacity: 0;"/></g><g class="traces" transform="translate(1,34.5)" style="opacity: 1;"><text class="legendtext" text-anchor="start" x="40" y="4.29" style="font-family: Arial, Helvetica, sans-serif; font-size: 11px; fill: rgb(34, 34, 34); fill-opacity: 1; white-space: pre;">YLD rate</text><g class="layers" style="opacity: 1;"><g class="legendfill"/><g class="legendlines"><path class="js-line" d="M5,0h30" style="fill: none; stroke: rgb(25, 130, 196); stroke-opacity: 1; stroke-width: 2.5px;"/></g><g class="legendsymbols"><g class="legendpoints"><path class="scatterpts" transform="translate(20,0)" d="M2.5,0A2.5,2.5 0 1,1 0,-2.5A2.5,2.5 0 0,1 2.5,0Z" style="opacity: 1; stroke-width: 0px; fill: rgb(25, 130, 196); fill-opacity: 1;"/></g></g></g><rect class="legendtoggle" x="0" y="-9.5" width="109.484375" height="19" style="fill: rgb(0, 0, 0); fill-opacity: 0;"/></g><g class="traces" transform="translate(1,53.5)" style="opacity: 1;"><text class="legendtext" text-anchor="start" x="40" y="4.29" style="font-family: Arial, Helvetica, sans-serif; font-size: 11px; fill: rgb(34, 34, 34); fill-opacity: 1; white-space: pre;">YLL/YLD ratio</text><g class="layers" style="opacity: 1;"><g class="legendfill"/><g class="legendlines"><path class="js-line" d="M5,0h30" style="fill: none; stroke: rgb(51, 51, 51); stroke-opacity: 1; stroke-width: 2.5px;"/></g><g class="legendsymbols"><g class="legendpoints"><path class="scatterpts" transform="translate(20,0)" d="M3.5,0A3.5,3.5 0 1,1 0,-3.5A3.5,3.5 0 0,1 3.5,0Z" style="opacity: 1; stroke-width: 0px; fill: rgb(103, 0, 31); fill-opacity: 1;"/></g></g></g><rect class="legendtoggle" x="0" y="-9.5" width="109.484375" height="19" style="fill: rgb(0, 0, 0); fill-opacity: 0;"/></g></g></g><rect class="scrollbar" rx="20" ry="3" width="0" height="0" x="0" y="0" style="fill: rgb(128, 139, 164); fill-opacity: 1;"/></g><g class="cbc88e50 colorbar" transform="translate(60,50)"><rect class="cbbg" x="977.5" y="62" width="49.953125" height="288" style="fill: rgb(0, 0, 0); fill-opacity: 0; stroke: rgb(68, 68, 68); stroke-opacity: 1; stroke-width: 0;"/><g class="cbfills" transform="translate(0,92)"><rect class="cbfill gradient_filled" style="fill: url('#g08ccee-cbc88e50');" x="988" y="0" width="12" height="247"/></g><g class="cblines" transform="translate(0,92)"/><g class="cbaxis crisp" transform="translate(0,-50)"><g class="ycbc88e50tick"><text text-anchor="start" x="1003.2" y="3.8499999999999996" transform="translate(0,350.0400000000001)" style="font-family: Arial, Helvetica, sans-serif; font-size: 11px; fill: rgb(34, 34, 34); fill-opacity: 1; white-space: pre; opacity: 1;">2</text></g><g class="ycbc88e50tick"><text text-anchor="start" x="1003.2" y="3.8499999999999996" style="font-family: Arial, Helvetica, sans-serif; font-size: 11px; fill: rgb(34, 34, 34); fill-opacity: 1; white-space: pre; opacity: 1;" transform="translate(0,301.1500000000001)">2.2</text></g><g class="ycbc88e50tick"><text text-anchor="start" x="1003.2" y="3.8499999999999996" style="font-family: Arial, Helvetica, sans-serif; font-size: 11px; fill: rgb(34, 34, 34); fill-opacity: 1; white-space: pre; opacity: 1;" transform="translate(0,252.26000000000005)">2.4</text></g><g class="ycbc88e50tick"><text text-anchor="start" x="1003.2" y="3.8499999999999996" style="font-family: Arial, Helvetica, sans-serif; font-size: 11px; fill: rgb(34, 34, 34); fill-opacity: 1; white-space: pre; opacity: 1;" transform="translate(0,203.37000000000006)">2.6</text></g><g class="ycbc88e50tick"><text text-anchor="start" x="1003.2" y="3.8499999999999996" style="font-family: Arial, Helvetica, sans-serif; font-size: 11px; fill: rgb(34, 34, 34); fill-opacity: 1; white-space: pre; opacity: 1;" transform="translate(0,154.48000000000005)">2.8</text></g></g><g class="cbtitleunshift" transform="translate(-60,-50)"><g class="cbtitle" transform="translate(-0.5,-0.5)"><text class="ycbc88e50title" x="1047.6" y="134.25" text-anchor="start" style="opacity: 1; font-family: Arial, Helvetica, sans-serif; font-size: 13px; fill: rgb(34, 34, 34); fill-opacity: 1; white-space: pre;">Ratio</text></g></g><rect class="cboutline" x="988" y="92" width="12" height="247" style="stroke: rgb(68, 68, 68); stroke-opacity: 1; fill: none; stroke-width: 1;"/></g><g class="g-gtitle"/><g class="g-xtitle"><text class="xtitle" x="264.45" y="499.70000000000005" text-anchor="middle" style="opacity: 1; font-family: Arial, Helvetica, sans-serif; font-size: 13px; fill: rgb(34, 34, 34); fill-opacity: 1; white-space: pre;">Year</text></g><g class="g-x2title"><text class="x2title" x="795.55" y="499.70000000000005" text-anchor="middle" style="opacity: 1; font-family: Arial, Helvetica, sans-serif; font-size: 13px; fill: rgb(34, 34, 34); fill-opacity: 1; white-space: pre;">Year</text></g><g class="g-ytitle"><text class="ytitle" transform="rotate(-90,20.1,255)" x="20.1" y="255" text-anchor="middle" style="opacity: 1; font-family: Arial, Helvetica, sans-serif; font-size: 13px; fill: rgb(34, 34, 34); fill-opacity: 1; white-space: pre;">Rate per 100,000</text></g><g class="g-y2title"><text class="y2title" transform="rotate(-90,553.646875,255)" x="553.646875" y="255" text-anchor="middle" style="opacity: 1; font-family: Arial, Helvetica, sans-serif; font-size: 13px; fill: rgb(34, 34, 34); fill-opacity: 1; white-space: pre;">YLL/YLD ratio</text></g><g class="annotation" data-index="0" style="opacity: 1;"><g class="annotation-text-g" transform="rotate(0,264.45,39.5)"><g class="cursor-pointer" transform="translate(256,29)"><rect class="bg" x="0.5" y="0.5" width="15" height="20" style="stroke-width: 1px; stroke: rgb(0, 0, 0); stroke-opacity: 0; fill: rgb(0, 0, 0); fill-opacity: 0;"/><text class="annotation-text" text-anchor="middle" x="8.34375" y="16" style="font-family: Arial, Helvetica, sans-serif; font-size: 16px; fill: rgb(34, 34, 34); fill-opacity: 1; white-space: pre;">A</text></g></g></g><g class="annotation" data-index="1" style="opacity: 1;"><g class="annotation-text-g" transform="rotate(0,795.55,39.5)"><g class="cursor-pointer" transform="translate(788,29)"><rect class="bg" x="0.5" y="0.5" width="14" height="20" style="stroke-width: 1px; stroke: rgb(0, 0, 0); stroke-opacity: 0; fill: rgb(0, 0, 0); fill-opacity: 0;"/><text class="annotation-text" text-anchor="middle" x="7.34375" y="16" style="font-family: Arial, Helvetica, sans-serif; font-size: 16px; fill: rgb(34, 34, 34); fill-opacity: 1; white-space: pre;">B</text></g></g></g><g class="annotation" data-index="2" style="opacity: 1;"><g class="annotation-text-g" transform="rotate(0,970.5,451)"><g class="cursor-pointer" transform="translate(941,443)"><rect class="bg" x="0.5" y="0.5" width="58" height="15" style="stroke-width: 1px; stroke: rgb(0, 0, 0); stroke-opacity: 0; fill: rgb(0, 0, 0); fill-opacity: 0;"/><text class="annotation-text" text-anchor="middle" x="29.765625" y="12" style="font-family: Arial, Helvetica, sans-serif; font-size: 11px; fill: rgb(34, 34, 34); fill-opacity: 1; white-space: pre;">YLL = YLD</text></g></g></g></g></svg>