<svg class="main-svg" xmlns="http://www.w3.org/2000/svg" xmlns:xlink="http://www.w3.org/1999/xlink" width="1200" height="560" style="" viewBox="0 0 1200 560"><rect x="0" y="0" width="1200" height="560" style="fill: rgb(255, 255, 255); fill-opacity: 1;"/><defs id="defs-30112f"><g class="clips"><clipPath id="clip30112fxyplot" class="plotclip"><rect width="416.7" height="450"/></clipPath><clipPath id="clip30112fx2y2plot" class="plotclip"><rect width="416.69999999999993" height="450"/></clipPath><clipPath class="axesclip" id="clip30112fx"><rect x="60" y="0" width="416.7" height="560"/></clipPath><clipPath class="axesclip" id="clip30112fy"><rect x="0" y="50" width="1200" height="450"/></clipPath><clipPath class="axesclip" id="clip30112fxy"><rect x="60" y="50" width="416.7" height="450"/></clipPath><clipPath class="axesclip" id="clip30112fy2"><rect x="0" y="50" width="1200" height="450"/></clipPath><clipPath class="axesclip" id="clip30112fxy2"><rect x="60" y="50" width="416.7" height="450"/></clipPath><clipPath class="axesclip" id="clip30112fx2"><rect x="569.3000000000001" y="0" width="416.69999999999993" height="560"/></clipPath><clipPath class="axesclip" id="clip30112fx2y"><rect x="569.3000000000001" y="50" width="416.69999999999993" height="450"/></clipPath><clipPath class="axesclip" id="clip30112fx2y2"><rect x="569.3000000000001" y="50" width="416.69999999999993" height="450"/></clipPath></g><g class="gradients"/><g class="patterns"/></defs><g class="bglayer"/><g class="layer-below"><g class="imagelayer"/><g class="shapelayer"/></g><g class="cartesianlayer"><g class="subplot xy"><g class="layer-subplot"><g class="shapelayer"/><g class="imagelayer"/></g><g class="minor-gridlayer"><g class="x"/><g class="y"/></g><g class="gridlayer"><g class="x"><path class="xgrid crisp" transform="translate(186.26999999999998,0)" d="M0,50v450" style="stroke: rgb(240, 240, 240); stroke-opacity: 1; stroke-width: 1px;"/><path class="xgrid crisp" transform="translate(312.55,0)" d="M0,50v450" style="stroke: rgb(240, 240, 240); stroke-opacity: 1; stroke-width: 1px;"/><path class="xgrid crisp" transform="translate(438.82,0)" d="M0,50v450" style="stroke: rgb(240, 240, 240); stroke-opacity: 1; stroke-width: 1px;"/></g><g class="y"><path class="ygrid crisp" transform="translate(0,447.77)" d="M60,0h416.7" style="stroke: rgb(240, 240, 240); stroke-opacity: 1; stroke-width: 1px;"/><path class="ygrid crisp" transform="translate(0,395.54)" d="M60,0h416.7" style="stroke: rgb(240, 240, 240); stroke-opacity: 1; stroke-width: 1px;"/><path class="ygrid crisp" transform="translate(0,343.32)" d="M60,0h416.7" style="stroke: rgb(240, 240, 240); stroke-opacity: 1; stroke-width: 1px;"/><path class="ygrid crisp" transform="translate(0,291.09000000000003)" d="M60,0h416.7" style="stroke: rgb(240, 240, 240); stroke-opacity: 1; stroke-width: 1px;"/><path class="ygrid crisp" transform="translate(0,238.86)" d="M60,0h416.7" style="stroke: rgb(240, 240, 240); stroke-opacity: 1; stroke-width: 1px;"/><path class="ygrid crisp" transform="translate(0,186.63)" d="M60,0h416.7" style="stroke: rgb(240, 240, 240); stroke-opacity: 1; stroke-width: 1px;"/><path class="ygrid crisp" transform="translate(0,134.4)" d="M60,0h416.7" style="stroke: rgb(240, 240, 240); stroke-opacity: 1; stroke-width: 1px;"/><path class="ygrid crisp" transform="translate(0,82.17)" d="M60,0h416.7" style="stroke: rgb(240, 240, 240); stroke-opacity: 1; stroke-width: 1px;"/></g></g><g class="zerolinelayer"><path class="yzl zl crisp" transform="translate(0,500)" d="M60,0h416.7" style="stroke: rgb(255, 255, 255); stroke-opacity: 1; stroke-width: 2px;"/></g><g class="layer-between"><g class="shapelayer"/><g class="imagelayer"/></g><path class="xlines-below"/><path class="ylines-below"/><g class="overlines-below"/><g class="xaxislayer-below"/><g class="yaxislayer-below"/><g class="overaxes-below"/><g class="overplot"><g class="xy" transform="translate(60,50)" clip-path="url(#clip30112fxyplot)"><g class="scatterlayer mlayer"><g class="trace scatter trace4dec4b" style="stroke-miterlimit: 2;"><g class="fills"><g><path class="js-fill" d="M416.7,450L0,450L0,311.12L37.88,324.6L50.51,329.49L75.76,339.66L88.39,345.32L126.27,360.7L138.9,364.6L176.78,375.48L189.41,377.64L252.55,388.68L265.17,391.51L277.8,393.96L290.43,395.13L315.68,399.57L328.31,401.85L378.82,407.01L391.45,390.28L404.07,401.79L416.7,407.99" style="fill: rgb(230, 57, 70); fill-opacity: 0.85; stroke-width: 0;"/></g><g><path class="js-fill" d="M0,84.57L25.25,96.13L37.88,102.6L75.76,123.75L88.39,131.4L101.02,138.09L113.65,146.01L126.27,152.2L138.9,156.75L176.78,168.15L189.41,170.5L214.66,175.08L227.29,177.28L239.92,179.36L252.55,182.46L265.17,186.13L277.8,188.74L290.43,189.99L303.05,193.31L353.56,202.15L366.19,203.73L378.82,205.55L391.45,194.5L404.07,202.27L416.7,206.57L416.7,407.99L404.07,401.79L391.45,390.28L378.82,407.01L328.31,401.85L315.68,399.57L290.43,395.13L277.8,393.96L265.17,391.51L252.55,388.68L189.41,377.64L176.78,375.48L138.9,364.6L126.27,360.7L88.39,345.32L75.76,339.66L50.51,329.49L37.88,324.6L0,311.12Z" style="fill: rgb(29, 53, 87); fill-opacity: 0.85; stroke-width: 0;"/></g></g><g class="errorbars"/><g class="lines"><path class="js-line" d="M0,311.12L37.88,324.6L50.51,329.49L75.76,339.66L88.39,345.32L126.27,360.7L138.9,364.6L176.78,375.48L189.41,377.64L252.55,388.68L265.17,391.51L277.8,393.96L290.43,395.13L315.68,399.57L328.31,401.85L378.82,407.01L391.45,390.28L404.07,401.79L416.7,407.99" style="vector-effect: none; fill: none; stroke: rgb(230, 57, 70); stroke-opacity: 1; stroke-width: 0.5px; opacity: 1;"/></g><g class="points"/><g class="text"/></g><g class="trace scatter trace790560" style="stroke-miterlimit: 2;"><g class="fills"><g><path class="js-fill" d="M0,22.5L12.63,27.88L25.25,34.76L63.14,56.87L75.76,64.29L88.39,70.34L101.02,79.97L113.65,88.53L126.27,95.69L151.53,105.67L164.15,109.97L176.78,114.51L189.41,117.94L227.29,127.75L239.92,130.32L252.55,133.54L265.17,137.56L353.56,158.31L366.19,160.73L378.82,162.63L391.45,152.79L404.07,160.81L416.7,164.97L416.7,206.57L404.07,202.27L391.45,194.5L378.82,205.55L366.19,203.73L353.56,202.15L303.05,193.31L290.43,189.99L277.8,188.74L265.17,186.13L252.55,182.46L239.92,179.36L227.29,177.28L214.66,175.08L189.41,170.5L176.78,168.15L138.9,156.75L126.27,152.2L113.65,146.01L101.02,138.09L88.39,131.4L75.76,123.75L37.88,102.6L25.25,96.13L0,84.57Z" style="fill: rgb(244, 162, 97); fill-opacity: 0.85; stroke-width: 0;"/></g></g><g class="errorbars"/><g class="lines"><path class="js-line" d="M0,84.57L25.25,96.13L37.88,102.6L75.76,123.75L88.39,131.4L101.02,138.09L113.65,146.01L126.27,152.2L138.9,156.75L176.78,168.15L189.41,170.5L214.66,175.08L227.29,177.28L239.92,179.36L252.55,182.46L265.17,186.13L277.8,188.74L290.43,189.99L303.05,193.31L353.56,202.15L366.19,203.73L378.82,205.55L391.45,194.5L404.07,202.27L416.7,206.57" style="vector-effect: none; fill: none; stroke: rgb(29, 53, 87); stroke-opacity: 1; stroke-width: 0.5px; opacity: 1;"/></g><g class="points"/><g class="text"/></g><g class="trace scatter trace603e85" style="stroke-miterlimit: 2;"><g class="fills"/><g class="errorbars"/><g class="lines"><path class="js-line" d="M0,22.5L12.63,27.88L25.25,34.76L63.14,56.87L75.76,64.29L88.39,70.34L101.02,79.97L113.65,88.53L126.27,95.69L151.53,105.67L164.15,109.97L176.78,114.51L189.41,117.94L227.29,127.75L239.92,130.32L252.55,133.54L265.17,137.56L353.56,158.31L366.19,160.73L378.82,162.63L391.45,152.79L404.07,160.81L416.7,164.97" style="vector-effect: none; fill: none; stroke: rgb(244, 162, 97); stroke-opacity: 1; stroke-width: 0.5px; opacity: 1;"/></g><g class="points"/><g class="text"/></g></g></g></g><path class="xlines-above crisp" d="M59.2,500.4H477.5M59.2,49.6H477.5" style="fill: none; stroke-width: 0.8px; stroke: rgb(51, 51, 51); stroke-opacity: 1;"/><path class="ylines-above crisp" d="M59.6,50V500M477.09999999999997,50V500" style="fill: none; stroke-width: 0.8px; stroke: rgb(51, 51, 51); stroke-opacity: 1;"/><g class="overlines-above"/><g class="xaxislayer-above"><g class="xtick"><text text-anchor="middle" x="0" y="514" transform="translate(60,0)" style="font-family: Arial, Helvetica, sans-serif; font-size: 11px; fill: rgb(34, 34, 34); fill-opacity: 1; white-space: pre; opacity: 1;">1990</text></g><g class="xtick"><text text-anchor="middle" x="0" y="514" style="font-family: Arial, Helvetica, sans-serif; font-size: 11px; fill: rgb(34, 34, 34); fill-opacity: 1; white-space: pre; opacity: 1;" transform="translate(186.26999999999998,0)">2000</text></g><g class="xtick"><text text-anchor="middle" x="0" y="514" style="font-family: Arial, Helvetica, sans-serif; font-size: 11px; fill: rgb(34, 34, 34); fill-opacity: 1; white-space: pre; opacity: 1;" transform="translate(312.55,0)">2010</text></g><g class="xtick"><text text-anchor="middle" x="0" y="514" style="font-family: Arial, Helvetica, sans-serif; font-size: 11px; fill: rgb(34, 34, 34); fill-opacity: 1; white-space: pre; opacity: 1;" transform="translate(438.82,0)">2020</text></g></g><g class="yaxislayer-above"><g class="ytick"><text text-anchor="end" x="57" y="3.8499999999999996" transform="translate(0,500)" style="font-family: Arial, Helvetica, sans-serif; font-size: 11px; fill: rgb(34, 34, 34); fill-opacity: 1; white-space: pre; opacity: 1;">0</text></g><g class="ytick"><text text-anchor="end" x="57" y="3.8499999999999996" style="font-family: Arial, Helvetica, sans-serif; font-size: 11px; fill: rgb(34, 34, 34); fill-opacity: 1; white-space: pre; opacity: 1;" transform="translate(0,447.77)">5k</text></g><g class="ytick"><text text-anchor="end" x="57" y="3.8499999999999996" style="font-family: Arial, Helvetica, sans-serif; font-size: 11px; fill: rgb(34, 34, 34); fill-opacity: 1; white-space: pre; opacity: 1;" transform="translate(0,395.54)">10k</text></g><g class="ytick"><text text-anchor="end" x="57" y="3.8499999999999996" style="font-family: Arial, Helvetica, sans-serif; font-size: 11px; fill: rgb(34, 34, 34); fill-opacity: 1; white-space: pre; opacity: 1;" transform="translate(0,343.32)">15k</text></g><g class="ytick"><text text-anchor="end" x="57" y="3.8499999999999996" style="font-family: Arial, Helvetica, sans-serif; font-size: 11px; fill: rgb(34, 34, 34); fill-opacity: 1; white-space: pre; opacity: 1;" transform="translate(0,291.09000000000003)">20k</text></g><g class="ytick"><text text-anchor="end" x="57" y="3.8499999999999996" style="font-family: Arial, Helvetica, sans-serif; font-size: 11px; fill: rgb(34, 34, 34); fill-opacity: 1; white-space: pre; opacity: 1;" transform="translate(0,238.86)">25k</text></g><g class="ytick"><text text-anchor="end" x="57" y="3.8499999999999996" style="font-family: Arial, Helvetica, sans-serif; font-size: 11px; fill: rgb(34, 34, 34); fill-opacity: 1; white-space: pre; opacity: 1;" transform="translate(0,186.63)">30k</text></g><g class="ytick"><text text-anchor="end" x="57" y="3.8499999999999996" style="font-family: Arial, Helvetica, sans-serif; font-size: 11px; fill: rgb(34, 34, 34); fill-opacity: 1; white-space: pre; opacity: 1;" transform="translate(0,134.4)">35k</text></g><g class="ytick"><text text-anchor="end" x="57" y="3.8499999999999996" style="font-family: Arial, Helvetica, sans-serif; font-size: 11px; fill: rgb(34, 34, 34); fill-opacity: 1; white-space: pre; opacity: 1;" transform="translate(0,82.17)">40k</text></g></g><g class="overaxes-above"/></g><g class="subplot x2y2"><g class="layer-subplot"><g class="shapelayer"/><g class="imagelayer"/></g><g class="minor-gridlayer"><g class="x2"/><g class="y2"/></g><g class="gridlayer"><g class="x2"><path class="x2grid crisp" transform="translate(695.57,0)" d="M0,50v450" style="stroke: rgb(240, 240, 240); stroke-opacity: 1; stroke-width: 1px;"/><path class="x2grid crisp" transform="translate(821.8500000000001,0)" d="M0,50v450" style="stroke: rgb(240, 240, 240); stroke-opacity: 1; stroke-width: 1px;"/><path class="x2grid crisp" transform="translate(948.1200000000001,0)" d="M0,50v450" style="stroke: rgb(240, 240, 240); stroke-opacity: 1; stroke-width: 1px;"/></g><g class="y2"><path class="y2grid crisp" transform="translate(0,447.77)" d="M569.3000000000001,0h416.69999999999993" style="stroke: rgb(240, 240, 240); stroke-opacity: 1; stroke-width: 1px;"/><path class="y2grid crisp" transform="translate(0,395.54)" d="M569.3000000000001,0h416.69999999999993" style="stroke: rgb(240, 240, 240); stroke-opacity: 1; stroke-width: 1px;"/><path class="y2grid crisp" transform="translate(0,343.32)" d="M569.3000000000001,0h416.69999999999993" style="stroke: rgb(240, 240, 240); stroke-opacity: 1; stroke-width: 1px;"/><path class="y2grid crisp" transform="translate(0,291.09000000000003)" d="M569.3000000000001,0h416.69999999999993" style="stroke: rgb(240, 240, 240); stroke-opacity: 1; stroke-width: 1px;"/><path class="y2grid crisp" transform="translate(0,238.86)" d="M569.3000000000001,0h416.69999999999993" style="stroke: rgb(240, 240, 240); stroke-opacity: 1; stroke-width: 1px;"/><path class="y2grid crisp" transform="translate(0,186.63)" d="M569.3000000000001,0h416.69999999999993" style="stroke: rgb(240, 240, 240); stroke-opacity: 1; stroke-width: 1px;"/><path class="y2grid crisp" transform="translate(0,134.4)" d="M569.3000000000001,0h416.69999999999993" style="stroke: rgb(240, 240, 240); stroke-opacity: 1; stroke-width: 1px;"/><path class="y2grid crisp" transform="translate(0,82.17)" d="M569.3000000000001,0h416.69999999999993" style="stroke: rgb(240, 240, 240); stroke-opacity: 1; stroke-width: 1px;"/></g></g><g class="zerolinelayer"><path class="y2zl zl crisp" transform="translate(0,500)" d="M569.3000000000001,0h416.69999999999993" style="stroke: rgb(255, 255, 255); stroke-opacity: 1; stroke-width: 2px;"/></g><g class="layer-between"><g class="shapelayer"/><g class="imagelayer"/></g><path class="xlines-below"/><path class="ylines-below"/><g class="overlines-below"/><g class="xaxislayer-below"/><g class="yaxislayer-below"/><g class="overaxes-below"/><g class="overplot"><g class="x2y2" transform="translate(569.3000000000001,50)" clip-path="url(#clip30112fx2y2plot)"><g class="scatterlayer mlayer"><g class="trace scatter trace71bdb7" style="stroke-miterlimit: 2;"><g class="fills"><g><path class="js-fill" d="M416.7,450L0,450L0,356.94L75.76,377.78L88.39,381.69L126.27,391.39L138.9,393.54L176.78,400.18L189.41,401.24L239.92,406.22L252.55,408.2L277.8,412.28L290.43,412.97L328.31,418.16L340.94,419.09L378.82,421.81L391.45,404.72L404.07,415.96L416.7,421.92" style="fill: rgb(240, 128, 128); fill-opacity: 0.85; stroke-width: 0;"/></g><g><path class="js-fill" d="M0,311.12L37.88,324.6L50.51,329.49L75.76,339.66L88.39,345.32L126.27,360.7L138.9,364.6L176.78,375.48L189.41,377.64L252.55,388.68L265.17,391.51L277.8,393.96L290.43,395.13L315.68,399.57L328.31,401.85L378.82,407.01L391.45,390.28L404.07,401.79L416.7,407.99L416.7,421.92L404.07,415.96L391.45,404.72L378.82,421.81L340.94,419.09L328.31,418.16L290.43,412.97L277.8,412.28L252.55,408.2L239.92,406.22L189.41,401.24L176.78,400.18L138.9,393.54L126.27,391.39L88.39,381.69L75.76,377.78L0,356.94Z" style="fill: rgb(156, 107, 107); fill-opacity: 0.85; stroke-width: 0;"/></g></g><g class="errorbars"/><g class="lines"><path class="js-line" d="M0,356.94L75.76,377.78L88.39,381.69L126.27,391.39L138.9,393.54L176.78,400.18L189.41,401.24L239.92,406.22L252.55,408.2L277.8,412.28L290.43,412.97L328.31,418.16L340.94,419.09L378.82,421.81L391.45,404.72L404.07,415.96L416.7,421.92" style="vector-effect: none; fill: none; stroke: rgb(240, 128, 128); stroke-opacity: 1; stroke-width: 0.5px; opacity: 1;"/></g><g class="points"/><g class="text"/></g><g class="trace scatter trace3adc5c" style="stroke-miterlimit: 2;"><g class="fills"><g><path class="js-fill" d="M0,84.57L25.25,96.13L37.88,102.6L75.76,123.75L88.39,131.4L101.02,138.09L113.65,146.01L126.27,152.2L138.9,156.75L176.78,168.15L189.41,170.5L214.66,175.08L227.29,177.28L239.92,179.36L252.55,182.46L265.17,186.13L277.8,188.74L290.43,189.99L303.05,193.31L353.56,202.15L366.19,203.73L378.82,205.55L391.45,194.5L404.07,202.27L416.7,206.57L416.7,407.99L404.07,401.79L391.45,390.28L378.82,407.01L328.31,401.85L315.68,399.57L290.43,395.13L277.8,393.96L265.17,391.51L252.55,388.68L189.41,377.64L176.78,375.48L138.9,364.6L126.27,360.7L88.39,345.32L75.76,339.66L50.51,329.49L37.88,324.6L0,311.12Z" style="fill: rgb(29, 53, 87); fill-opacity: 0.85; stroke-width: 0;"/></g></g><g class="errorbars"/><g class="lines"><path class="js-line" d="M0,311.12L37.88,324.6L50.51,329.49L75.76,339.66L88.39,345.32L126.27,360.7L138.9,364.6L176.78,375.48L189.41,377.64L252.55,388.68L265.17,391.51L277.8,393.96L290.43,395.13L315.68,399.57L328.31,401.85L378.82,407.01L391.45,390.28L404.07,401.79L416.7,407.99" style="vector-effect: none; fill: none; stroke: rgb(156, 107, 107); stroke-opacity: 1; stroke-width: 0.5px; opacity: 1;"/></g><g class="points"/><g class="text"/></g><g class="trace scatter trace837a81" style="stroke-miterlimit: 2;"><g class="fills"><g><path class="js-fill" d="M0,22.5L12.63,27.88L25.25,34.76L63.14,56.87L75.76,64.29L88.39,70.34L101.02,79.97L113.65,88.53L126.27,95.69L151.53,105.67L164.15,109.97L176.78,114.51L189.41,117.94L227.29,127.75L239.92,130.32L252.55,133.54L265.17,137.56L353.56,158.31L366.19,160.73L378.82,162.63L391.45,152.79L404.07,160.81L416.7,164.97L416.7,206.57L404.07,202.27L391.45,194.5L378.82,205.55L366.19,203.73L353.56,202.15L303.05,193.31L290.43,189.99L277.8,188.74L265.17,186.13L252.55,182.46L239.92,179.36L227.29,177.28L214.66,175.08L189.41,170.5L176.78,168.15L138.9,156.75L126.27,152.2L113.65,146.01L101.02,138.09L88.39,131.4L75.76,123.75L37.88,102.6L25.25,96.13L0,84.57Z" style="fill: rgb(244, 162, 97); fill-opacity: 0.85; stroke-width: 0;"/></g></g><g class="errorbars"/><g class="lines"><path class="js-line" d="M0,84.57L25.25,96.13L37.88,102.6L75.76,123.75L88.39,131.4L101.02,138.09L113.65,146.01L126.27,152.2L138.9,156.75L176.78,168.15L189.41,170.5L214.66,175.08L227.29,177.28L239.92,179.36L252.55,182.46L265.17,186.13L277.8,188.74L290.43,189.99L303.05,193.31L353.56,202.15L366.19,203.73L378.82,205.55L391.45,194.5L404.07,202.27L416.7,206.57" style="vector-effect: none; fill: none; stroke: rgb(29, 53, 87); stroke-opacity: 1; stroke-width: 0.5px; opacity: 1;"/></g><g class="points"/><g class="text"/></g><g class="trace scatter trace4cccbc" style="stroke-miterlimit: 2;"><g class="fills"/><g class="errorbars"/><g class="lines"><path class="js-line" d="M0,22.5L12.63,27.88L25.25,34.76L63.14,56.87L75.76,64.29L88.39,70.34L101.02,79.97L113.65,88.53L126.27,95.69L151.53,105.67L164.15,109.97L176.78,114.51L189.41,117.94L227.29,127.75L239.92,130.32L252.55,133.54L265.17,137.56L353.56,158.31L366.19,160.73L378.82,162.63L391.45,152.79L404.07,160.81L416.7,164.97" style="vector-effect: none; fill: none; stroke: rgb(244, 162, 97); stroke-opacity: 1; stroke-width: 0.5px; opacity: 1;"/></g><g class="points"/><g class="text"/></g></g></g></g><path class="xlines-above crisp" d="M568.5000000000001,500.4H986.8M568.5000000000001,49.6H986.8" style="fill: none; stroke-width: 0.8px; stroke: rgb(51, 51, 51); stroke-opacity: 1;"/><path class="ylines-above crisp" d="M568.9000000000001,50V500M986.4,50V500" style="fill: none; stroke-width: 0.8px; stroke: rgb(51, 51, 51); stroke-opacity: 1;"/><g class="overlines-above"/><g class="xaxislayer-above"><g class="x2tick"><text text-anchor="middle" x="0" y="514" transform="translate(569.3000000000001,0)" style="font-family: Arial, Helvetica, sans-serif; font-size: 11px; fill: rgb(34, 34, 34); fill-opacity: 1; white-space: pre; opacity: 1;">1990</text></g><g class="x2tick"><text text-anchor="middle" x="0" y="514" style="font-family: Arial, Helvetica, sans-serif; font-size: 11px; fill: rgb(34, 34, 34); fill-opacity: 1; white-space: pre; opacity: 1;" transform="translate(695.57,0)">2000</text></g><g class="x2tick"><text text-anchor="middle" x="0" y="514" style="font-family: Arial, Helvetica, sans-serif; font-size: 11px; fill: rgb(34, 34, 34); fill-opacity: 1; white-space: pre; opacity: 1;" transform="translate(821.8500000000001,0)">2010</text></g><g class="x2tick"><text text-anchor="middle" x="0" y="514" style="font-family: Arial, Helvetica, sans-serif; font-size: 11px; fill: rgb(34, 34, 34); fill-opacity: 1; white-space: pre; opacity: 1;" transform="translate(948.1200000000001,0)">2020</text></g></g><g class="yaxislayer-above"><g class="y2tick"><text text-anchor="end" x="566.3000000000001" y="3.8499999999999996" transform="translate(0,500)" style="font-family: Arial, Helvetica, sans-serif; font-size: 11px; fill: rgb(34, 34, 34); fill-opacity: 1; white-space: pre; opacity: 1;">0</text></g><g class="y2tick"><text text-anchor="end" x="566.3000000000001" y="3.8499999999999996" style="font-family: Arial, Helvetica, sans-serif; font-size: 11px; fill: rgb(34, 34, 34); fill-opacity: 1; white-space: pre; opacity: 1;" transform="translate(0,447.77)">5k</text></g><g class="y2tick"><text text-anchor="end" x="566.3000000000001" y="3.8499999999999996" style="font-family: Arial, Helvetica, sans-serif; font-size: 11px; fill: rgb(34, 34, 34); fill-opacity: 1; white-space: pre; opacity: 1;" transform="translate(0,395.54)">10k</text></g><g class="y2tick"><text text-anchor="end" x="566.3000000000001" y="3.8499999999999996" style="font-family: Arial, Helvetica, sans-serif; font-size: 11px; fill: rgb(34, 34, 34); fill-opacity: 1; white-space: pre; opacity: 1;" transform="translate(0,343.32)">15k</text></g><g class="y2tick"><text text-anchor="end" x="566.3000000000001" y="3.8499999999999996" style="font-family: Arial, Helvetica, sans-serif; font-size: 11px; fill: rgb(34, 34, 34); fill-opacity: 1; white-space: pre; opacity: 1;" transform="translate(0,291.09000000000003)">20k</text></g><g class="y2tick"><text text-anchor="end" x="566.3000000000001" y="3.8499999999999996" style="font-family: Arial, Helvetica, sans-serif; font-size: 11px; fill: rgb(34, 34, 34); fill-opacity: 1; white-space: pre; opacity: 1;" transform="translate(0,238.86)">25k</text></g><g class="y2tick"><text text-anchor="end" x="566.3000000000001" y="3.8499999999999996" style="font-family: Arial, Helvetica, sans-serif; font-size: 11px; fill: rgb(34, 34, 34); fill-opacity: 1; white-space: pre; opacity: 1;" transform="translate(0,186.63)">30k</text></g><g class="y2tick"><text text-anchor="end" x="566.3000000000001" y="3.8499999999999996" style="font-family: Arial, Helvetica, sans-serif; font-size: 11px; fill: rgb(34, 34, 34); fill-opacity: 1; white-space: pre; opacity: 1;" transform="translate(0,134.4)">35k</text></g><g class="y2tick"><text text-anchor="end" x="566.3000000000001" y="3.8499999999999996" style="font-family: Arial, Helvetica, sans-serif; font-size: 11px; fill: rgb(34, 34, 34); fill-opacity: 1; white-space: pre; opacity: 1;" transform="translate(0,82.17)">40k</text></g></g><g class="overaxes-above"/></g></g><g class="polarlayer"/><g class="smithlayer"/><g class="ternarylayer"/><g class="geolayer"/><g class="funnelarealayer"/><g class="pielayer"/><g class="iciclelayer"/><g class="treemaplayer"/><g class="sunburstlayer"/><g class="glimages"/><defs id="topdefs-30112f"><g class="clips"/><clipPath id="legend30112f"><rect width="181" height="145" x="1" y="1"/></clipPath></defs><g class="layer-above"><g class="imagelayer"/><g class="shapelayer"/></g><g class="infolayer"><g class="legend" pointer-events="all" transform="translate(1004.52,50)"><rect class="bg" shape-rendering="crispEdges" width="182" height="146" x="0.5" y="0.5" style="stroke: rgb(204, 204, 204); stroke-opacity: 1; fill: rgb(255, 255, 255); fill-opacity: 0.9; stroke-width: 1px;"/><g class="scrollbox" transform="" clip-path="url(#legend30112f)"><g class="groups" transform=""><g class="traces" transform="translate(1,15.5)" style="opacity: 1;"><text class="legendtext" text-anchor="start" x="40" y="3.9" style="font-family: Arial, Helvetica, sans-serif; font-size: 10px; fill: rgb(34, 34, 34); fill-opacity: 1; white-space: pre;">CMNN</text><g class="layers"><g class="legendfill"><path class="js-fill" d="M5,-2h30v6h-30z" style="stroke-width: 0; fill: rgb(230, 57, 70); fill-opacity: 0.85;"/></g><g class="legendlines"><path class="js-line" d="M5,-2h30" style="fill: none; stroke: rgb(230, 57, 70); stroke-opacity: 1; stroke-width: 0.5px;"/></g><g class="legendsymbols"><g class="legendpoints"/></g></g><rect class="legendtoggle" x="0" y="-9.5" width="175.640625" height="19" style="fill: rgb(0, 0, 0); fill-opacity: 0;"/></g></g><g class="groups" transform="translate(0,10)"><g class="traces" transform="translate(1,34.5)" style="opacity: 1;"><text class="legendtext" text-anchor="start" x="40" y="3.9" style="font-family: Arial, Helvetica, sans-serif; font-size: 10px; fill: rgb(34, 34, 34); fill-opacity: 1; white-space: pre;">NCD</text><g class="layers"><g class="legendfill"><path class="js-fill" d="M5,-2h30v6h-30z" style="stroke-width: 0; fill: rgb(29, 53, 87); fill-opacity: 0.85;"/></g><g class="legendlines"><path class="js-line" d="M5,-2h30" style="fill: none; stroke: rgb(29, 53, 87); stroke-opacity: 1; stroke-width: 0.5px;"/></g><g class="legendsymbols"><g class="legendpoints"/></g></g><rect class="legendtoggle" x="0" y="-9.5" width="175.640625" height="19" style="fill: rgb(0, 0, 0); fill-opacity: 0;"/></g></g><g class="groups" transform="translate(0,20)"><g class="traces" transform="translate(1,53.5)" style="opacity: 1;"><text class="legendtext" text-anchor="start" x="40" y="3.9" style="font-family: Arial, Helvetica, sans-serif; font-size: 10px; fill: rgb(34, 34, 34); fill-opacity: 1; white-space: pre;">Injuries</text><g class="layers"><g class="legendfill"><path class="js-fill" d="M5,-2h30v6h-30z" style="stroke-width: 0; fill: rgb(244, 162, 97); fill-opacity: 0.85;"/></g><g class="legendlines"><path class="js-line" d="M5,-2h30" style="fill: none; stroke: rgb(244, 162, 97); stroke-opacity: 1; stroke-width: 0.5px;"/></g><g class="legendsymbols"><g class="legendpoints"/></g></g><rect class="legendtoggle" x="0" y="-9.5" width="175.640625" height="19" style="fill: rgb(0, 0, 0); fill-opacity: 0;"/></g></g><g class="groups" transform="translate(0,30)"><g class="traces" transform="translate(1,72.5)" style="opacity: 1;"><text class="legendtext" text-anchor="start" x="40" y="3.9" style="font-family: Arial, Helvetica, sans-serif; font-size: 10px; fill: rgb(34, 34, 34); fill-opacity: 1; white-space: pre;">Communicable only</text><g class="layers"><g class="legendfill"><path class="js-fill" d="M5,-2h30v6h-30z" style="stroke-width: 0; fill: rgb(240, 128, 128); fill-opacity: 0.85;"/></g><g class="legendlines"><path class="js-line" d="M5,-2h30" style="fill: none; stroke: rgb(240, 128, 128); stroke-opacity: 1; stroke-width: 0.5px;"/></g><g class="legendsymbols"><g class="legendpoints"/></g></g><rect class="legendtoggle" x="0" y="-9.5" width="175.640625" height="19" style="fill: rgb(0, 0, 0); fill-opacity: 0;"/></g></g><g class="groups" transform="translate(0,40)"><g class="traces" transform="translate(1,91.5)" style="opacity: 1;"><text class="legendtext" text-anchor="start" x="40" y="3.9" style="font-family: Arial, Helvetica, sans-serif; font-size: 10px; fill: rgb(34, 34, 34); fill-opacity: 1; white-space: pre;">Maternal+Neonatal+Nutritional</text><g class="layers"><g class="legendfill"><path class="js-fill" d="M5,-2h30v6h-30z" style="stroke-width: 0; fill: rgb(156, 107, 107); fill-opacity: 0.85;"/></g><g class="legendlines"><path class="js-line" d="M5,-2h30" style="fill: none; stroke: rgb(156, 107, 107); stroke-opacity: 1; stroke-width: 0.5px;"/></g><g class="legendsymbols"><g class="legendpoints"/></g></g><rect class="legendtoggle" x="0" y="-9.5" width="175.640625" height="19" style="fill: rgb(0, 0, 0); fill-opacity: 0;"/></g></g></g><rect class="scrollbar" rx="20" ry="3" width="0" height="0" x="0" y="0" style="fill: rgb(128, 139, 164); fill-opacity: 1;"/></g><g class="g-gtitle"/><g class="g-xtitle"><text class="xtitle" x="268.35" y="539.7" text-anchor="middle" style="opacity: 1; font-family: Arial, Helvetica, sans-serif; font-size: 13px; fill: rgb(34, 34, 34); fill-opacity: 1; white-space: pre;">Year</text></g><g class="g-x2title"><text class="x2title" x="777.6500000000001" y="539.7" text-anchor="middle" style="opacity: 1; font-family: Arial, Helvetica, sans-serif; font-size: 13px; fill: rgb(34, 34, 34); fill-opacity: 1; white-space: pre;">Year</text></g><g class="g-ytitle"><text class="ytitle" transform="rotate(-90,20.1,275)" x="20.1" y="275" text-anchor="middle" style="opacity: 1; font-family: Arial, Helvetica, sans-serif; font-size: 13px; fill: rgb(34, 34, 34); fill-opacity: 1; white-space: pre;">DALYs per 100,000</text></g><g class="g-y2title"><text class="y2title" transform="rotate(-90,529.4125,275)" x="529.4125" y="275" text-anchor="middle" style="opacity: 1; font-family: Arial, Helvetica, sans-serif; font-size: 13px; fill: rgb(34, 34, 34); fill-opacity: 1; white-space: pre;">DALYs per 100,000</text></g><g class="annotation" data-index="0" style="opacity: 1;"><g class="annotation-text-g" transform="rotate(0,268.35,39.5)"><g class="cursor-pointer" transform="translate(260,29)"><rect class="bg" x="0.5" y="0.5" width="15" height="20" style="stroke-width: 1px; stroke: rgb(0, 0, 0); stroke-opacity: 0; fill: rgb(0, 0, 0); fill-opacity: 0;"/><text class="annotation-text" text-anchor="middle" x="8.34375" y="16" style="font-family: Arial, Helvetica, sans-serif; font-size: 16px; fill: rgb(34, 34, 34); fill-opacity: 1; white-space: pre;">A</text></g></g></g><g class="annotation" data-index="1" style="opacity: 1;"><g class="annotation-text-g" transform="rotate(0,777.65,39.5)"><g class="cursor-pointer" transform="translate(770,29)"><rect class="bg" x="0.5" y="0.5" width="14" height="20" style="stroke-width: 1px; stroke: rgb(0, 0, 0); stroke-opacity: 0; fill: rgb(0, 0, 0); fill-opacity: 0;"/><text class="annotation-text" text-anchor="middle" x="7.34375" y="16" style="font-family: Arial, Helvetica, sans-serif; font-size: 16px; fill: rgb(34, 34, 34); fill-opacity: 1; white-space: pre;">B</text></g></g></g></g></svg>