<svg class="main-svg" xmlns="http://www.w3.org/2000/svg" xmlns:xlink="http://www.w3.org/1999/xlink" width="900" height="500" style="" viewBox="0 0 900 500"><rect x="0" y="0" width="900" height="500" style="fill: rgb(255, 255, 255); fill-opacity: 1;"/><defs id="defs-2d475b"><g class="clips"><clipPath id="clip2d475bxyplot" class="plotclip"><rect width="705" height="390"/></clipPath><clipPath class="axesclip" id="clip2d475bx"><rect x="60" y="0" width="705" height="500"/></clipPath><clipPath class="axesclip" id="clip2d475by"><rect x="0" y="50" width="900" height="390"/></clipPath><clipPath class="axesclip" id="clip2d475bxy"><rect x="60" y="50" width="705" height="390"/></clipPath></g><g class="gradients"/><g class="patterns"/></defs><g class="bglayer"/><g class="layer-below"><g class="imagelayer"/><g class="shapelayer"/></g><g class="cartesianlayer"><g class="subplot xy"><g class="layer-subplot"><g class="shapelayer"/><g class="imagelayer"/></g><g class="minor-gridlayer"><g class="x"/><g class="y"/></g><g class="gridlayer"><g class="x"><path class="xgrid crisp" transform="translate(166.82,0)" d="M0,50v390" style="stroke: rgb(240, 240, 240); stroke-opacity: 1; stroke-width: 1px;"/><path class="xgrid crisp" transform="translate(273.64,0)" d="M0,50v390" style="stroke: rgb(240, 240, 240); stroke-opacity: 1; stroke-width: 1px;"/><path class="xgrid crisp" transform="translate(380.45,0)" d="M0,50v390" style="stroke: rgb(240, 240, 240); stroke-opacity: 1; stroke-width: 1px;"/><path class="xgrid crisp" transform="translate(487.27,0)" d="M0,50v390" style="stroke: rgb(240, 240, 240); stroke-opacity: 1; stroke-width: 1px;"/><path class="xgrid crisp" transform="translate(594.09,0)" d="M0,50v390" style="stroke: rgb(240, 240, 240); stroke-opacity: 1; stroke-width: 1px;"/><path class="xgrid crisp" transform="translate(700.91,0)" d="M0,50v390" style="stroke: rgb(240, 240, 240); stroke-opacity: 1; stroke-width: 1px;"/></g><g class="y"><path class="ygrid crisp" transform="translate(0,372.8)" d="M60,0h705" style="stroke: rgb(240, 240, 240); stroke-opacity: 1; stroke-width: 1px;"/><path class="ygrid crisp" transform="translate(0,305.61)" d="M60,0h705" style="stroke: rgb(240, 240, 240); stroke-opacity: 1; stroke-width: 1px;"/><path class="ygrid crisp" transform="translate(0,238.41)" d="M60,0h705" style="stroke: rgb(240, 240, 240); stroke-opacity: 1; stroke-width: 1px;"/><path class="ygrid crisp" transform="translate(0,171.20999999999998)" d="M60,0h705" style="stroke: rgb(240, 240, 240); stroke-opacity: 1; stroke-width: 1px;"/><path class="ygrid crisp" transform="translate(0,104.00999999999999)" d="M60,0h705" style="stroke: rgb(240, 240, 240); stroke-opacity: 1; stroke-width: 1px;"/></g></g><g class="zerolinelayer"/><g class="layer-between"><g class="shapelayer"/><g class="imagelayer"/></g><path class="xlines-below"/><path class="ylines-below"/><g class="overlines-below"/><g class="xaxislayer-below"/><g class="yaxislayer-below"/><g class="overaxes-below"/><g class="overplot"><g class="xy" transform="translate(60,50)" clip-path="url(#clip2d475bxyplot)"><g class="scatterlayer mlayer"><g class="trace scatter trace6b4f9c" style="stroke-miterlimit: 2; opacity: 1;"><g class="fills"><g><path class="js-fill" d="M0,23.19L21.36,19.5L42.73,19.51L106.82,29.14L128.18,35.72L192.27,61.48L213.64,57.88L256.36,53.86L277.73,52.42L299.09,51.96L320.45,53.31L341.82,52.52L363.18,50.94L384.55,51.22L405.91,49.5L427.27,51.54L448.64,54.62L470,54.02L491.36,52.5L534.09,56.31L555.45,57.07L598.18,58.85L619.55,58.9L640.91,60.6L662.27,73.03L683.64,50.27L705,40.57L705,144.9L683.64,150.82L662.27,148.17L640.91,131.29L619.55,125.48L598.18,124.47L576.82,124.33L555.45,122.89L534.09,120.83L512.73,120.51L470,121.28L448.64,117.61L427.27,117.54L405.91,115.64L384.55,117.31L363.18,115.83L341.82,118.43L320.45,118.25L277.73,117.54L256.36,115.03L235,114.64L213.64,107.92L192.27,101.1L170.91,103.8L149.55,106.31L128.18,104.73L106.82,102.52L85.45,99.48L42.73,93.18L21.36,89.01L0,82.35Z" style="fill: rgb(29, 53, 87); fill-opacity: 0.15; stroke-width: 0;"/></g></g><g class="errorbars"/><g class="lines"><path class="js-line" d="M0,23.19L21.36,19.5L42.73,19.51L106.82,29.14L128.18,35.72L192.27,61.48L213.64,57.88L256.36,53.86L277.73,52.42L299.09,51.96L320.45,53.31L341.82,52.52L363.18,50.94L384.55,51.22L405.91,49.5L427.27,51.54L448.64,54.62L470,54.02L491.36,52.5L534.09,56.31L555.45,57.07L598.18,58.85L619.55,58.9L640.91,60.6L662.27,73.03L683.64,50.27L705,40.57L705,144.9L683.64,150.82L662.27,148.17L640.91,131.29L619.55,125.48L598.18,124.47L576.82,124.33L555.45,122.89L534.09,120.83L512.73,120.51L470,121.28L448.64,117.61L427.27,117.54L405.91,115.64L384.55,117.31L363.18,115.83L341.82,118.43L320.45,118.25L277.73,117.54L256.36,115.03L235,114.64L213.64,107.92L192.27,101.1L170.91,103.8L149.55,106.31L128.18,104.73L106.82,102.52L85.45,99.48L42.73,93.18L21.36,89.01L0,82.35" style="vector-effect: none; fill: none; stroke: rgb(0, 0, 0); stroke-opacity: 0; stroke-width: 2px; opacity: 1;"/></g><g class="points"/><g class="text"/></g><g class="trace scatter trace39f168" style="stroke-miterlimit: 2; opacity: 1;"><g class="fills"/><g class="errorbars"/><g class="lines"><path class="js-line" d="M0,53.77L42.73,58.03L64.09,60.98L149.55,75.24L170.91,77.39L192.27,81.5L213.64,84.1L235,85.33L256.36,85.09L320.45,85.64L341.82,85.73L384.55,84.75L405.91,84.41L427.27,84.97L448.64,87.24L470,87.8L491.36,87.59L512.73,89.1L534.09,89.76L555.45,90.36L576.82,92.7L619.55,93.79L640.91,96.69L662.27,111.71L683.64,100.79L705,97.04" style="vector-effect: none; fill: none; stroke: rgb(29, 53, 87); stroke-opacity: 1; stroke-width: 2.5px; opacity: 1;"/></g><g class="points"><path class="point" transform="translate(0,53.77)" d="M2,0A2,2 0 1,1 0,-2A2,2 0 0,1 2,0Z" style="opacity: 1; stroke-width: 0px; fill: rgb(29, 53, 87); fill-opacity: 1;"/><path class="point" transform="translate(21.36,55.71)" d="M2,0A2,2 0 1,1 0,-2A2,2 0 0,1 2,0Z" style="opacity: 1; stroke-width: 0px; fill: rgb(29, 53, 87); fill-opacity: 1;"/><path class="point" transform="translate(42.73,58.03)" d="M2,0A2,2 0 1,1 0,-2A2,2 0 0,1 2,0Z" style="opacity: 1; stroke-width: 0px; fill: rgb(29, 53, 87); fill-opacity: 1;"/><path class="point" transform="translate(64.09,60.98)" d="M2,0A2,2 0 1,1 0,-2A2,2 0 0,1 2,0Z" style="opacity: 1; stroke-width: 0px; fill: rgb(29, 53, 87); fill-opacity: 1;"/><path class="point" transform="translate(85.45,64.51)" d="M2,0A2,2 0 1,1 0,-2A2,2 0 0,1 2,0Z" style="opacity: 1; stroke-width: 0px; fill: rgb(29, 53, 87); fill-opacity: 1;"/><path class="point" transform="translate(106.82,68.08)" d="M2,0A2,2 0 1,1 0,-2A2,2 0 0,1 2,0Z" style="opacity: 1; stroke-width: 0px; fill: rgb(29, 53, 87); fill-opacity: 1;"/><path class="point" transform="translate(128.18,71.71)" d="M2,0A2,2 0 1,1 0,-2A2,2 0 0,1 2,0Z" style="opacity: 1; stroke-width: 0px; fill: rgb(29, 53, 87); fill-opacity: 1;"/><path class="point" transform="translate(149.55,75.24)" d="M2,0A2,2 0 1,1 0,-2A2,2 0 0,1 2,0Z" style="opacity: 1; stroke-width: 0px; fill: rgb(29, 53, 87); fill-opacity: 1;"/><path class="point" transform="translate(170.91,77.39)" d="M2,0A2,2 0 1,1 0,-2A2,2 0 0,1 2,0Z" style="opacity: 1; stroke-width: 0px; fill: rgb(29, 53, 87); fill-opacity: 1;"/><path class="point" transform="translate(192.27,81.5)" d="M2,0A2,2 0 1,1 0,-2A2,2 0 0,1 2,0Z" style="opacity: 1; stroke-width: 0px; fill: rgb(29, 53, 87); fill-opacity: 1;"/><path class="point" transform="translate(213.64,84.1)" d="M2,0A2,2 0 1,1 0,-2A2,2 0 0,1 2,0Z" style="opacity: 1; stroke-width: 0px; fill: rgb(29, 53, 87); fill-opacity: 1;"/><path class="point" transform="translate(235,85.33)" d="M2,0A2,2 0 1,1 0,-2A2,2 0 0,1 2,0Z" style="opacity: 1; stroke-width: 0px; fill: rgb(29, 53, 87); fill-opacity: 1;"/><path class="point" transform="translate(256.36,85.09)" d="M2,0A2,2 0 1,1 0,-2A2,2 0 0,1 2,0Z" style="opacity: 1; stroke-width: 0px; fill: rgb(29, 53, 87); fill-opacity: 1;"/><path class="point" transform="translate(277.73,85.49)" d="M2,0A2,2 0 1,1 0,-2A2,2 0 0,1 2,0Z" style="opacity: 1; stroke-width: 0px; fill: rgb(29, 53, 87); fill-opacity: 1;"/><path class="point" transform="translate(299.09,85.8)" d="M2,0A2,2 0 1,1 0,-2A2,2 0 0,1 2,0Z" style="opacity: 1; stroke-width: 0px; fill: rgb(29, 53, 87); fill-opacity: 1;"/><path class="point" transform="translate(320.45,85.64)" d="M2,0A2,2 0 1,1 0,-2A2,2 0 0,1 2,0Z" style="opacity: 1; stroke-width: 0px; fill: rgb(29, 53, 87); fill-opacity: 1;"/><path class="point" transform="translate(341.82,85.73)" d="M2,0A2,2 0 1,1 0,-2A2,2 0 0,1 2,0Z" style="opacity: 1; stroke-width: 0px; fill: rgb(29, 53, 87); fill-opacity: 1;"/><path class="point" transform="translate(363.18,85.02)" d="M2,0A2,2 0 1,1 0,-2A2,2 0 0,1 2,0Z" style="opacity: 1; stroke-width: 0px; fill: rgb(29, 53, 87); fill-opacity: 1;"/><path class="point" transform="translate(384.55,84.75)" d="M2,0A2,2 0 1,1 0,-2A2,2 0 0,1 2,0Z" style="opacity: 1; stroke-width: 0px; fill: rgb(29, 53, 87); fill-opacity: 1;"/><path class="point" transform="translate(405.91,84.41)" d="M2,0A2,2 0 1,1 0,-2A2,2 0 0,1 2,0Z" style="opacity: 1; stroke-width: 0px; fill: rgb(29, 53, 87); fill-opacity: 1;"/><path class="point" transform="translate(427.27,84.97)" d="M2,0A2,2 0 1,1 0,-2A2,2 0 0,1 2,0Z" style="opacity: 1; stroke-width: 0px; fill: rgb(29, 53, 87); fill-opacity: 1;"/><path class="point" transform="translate(448.64,87.24)" d="M2,0A2,2 0 1,1 0,-2A2,2 0 0,1 2,0Z" style="opacity: 1; stroke-width: 0px; fill: rgb(29, 53, 87); fill-opacity: 1;"/><path class="point" transform="translate(470,87.8)" d="M2,0A2,2 0 1,1 0,-2A2,2 0 0,1 2,0Z" style="opacity: 1; stroke-width: 0px; fill: rgb(29, 53, 87); fill-opacity: 1;"/><path class="point" transform="translate(491.36,87.59)" d="M2,0A2,2 0 1,1 0,-2A2,2 0 0,1 2,0Z" style="opacity: 1; stroke-width: 0px; fill: rgb(29, 53, 87); fill-opacity: 1;"/><path class="point" transform="translate(512.73,89.1)" d="M2,0A2,2 0 1,1 0,-2A2,2 0 0,1 2,0Z" style="opacity: 1; stroke-width: 0px; fill: rgb(29, 53, 87); fill-opacity: 1;"/><path class="point" transform="translate(534.09,89.76)" d="M2,0A2,2 0 1,1 0,-2A2,2 0 0,1 2,0Z" style="opacity: 1; stroke-width: 0px; fill: rgb(29, 53, 87); fill-opacity: 1;"/><path class="point" transform="translate(555.45,90.36)" d="M2,0A2,2 0 1,1 0,-2A2,2 0 0,1 2,0Z" style="opacity: 1; stroke-width: 0px; fill: rgb(29, 53, 87); fill-opacity: 1;"/><path class="point" transform="translate(576.82,92.7)" d="M2,0A2,2 0 1,1 0,-2A2,2 0 0,1 2,0Z" style="opacity: 1; stroke-width: 0px; fill: rgb(29, 53, 87); fill-opacity: 1;"/><path class="point" transform="translate(598.18,93.22)" d="M2,0A2,2 0 1,1 0,-2A2,2 0 0,1 2,0Z" style="opacity: 1; stroke-width: 0px; fill: rgb(29, 53, 87); fill-opacity: 1;"/><path class="point" transform="translate(619.55,93.79)" d="M2,0A2,2 0 1,1 0,-2A2,2 0 0,1 2,0Z" style="opacity: 1; stroke-width: 0px; fill: rgb(29, 53, 87); fill-opacity: 1;"/><path class="point" transform="translate(640.91,96.69)" d="M2,0A2,2 0 1,1 0,-2A2,2 0 0,1 2,0Z" style="opacity: 1; stroke-width: 0px; fill: rgb(29, 53, 87); fill-opacity: 1;"/><path class="point" transform="translate(662.27,111.71)" d="M2,0A2,2 0 1,1 0,-2A2,2 0 0,1 2,0Z" style="opacity: 1; stroke-width: 0px; fill: rgb(29, 53, 87); fill-opacity: 1;"/><path class="point" transform="translate(683.64,100.79)" d="M2,0A2,2 0 1,1 0,-2A2,2 0 0,1 2,0Z" style="opacity: 1; stroke-width: 0px; fill: rgb(29, 53, 87); fill-opacity: 1;"/><path class="point" transform="translate(705,97.04)" d="M2,0A2,2 0 1,1 0,-2A2,2 0 0,1 2,0Z" style="opacity: 1; stroke-width: 0px; fill: rgb(29, 53, 87); fill-opacity: 1;"/></g><g class="text"/></g><g class="trace scatter trace5c33b4" style="stroke-miterlimit: 2; opacity: 1;"><g class="fills"><g><path class="js-fill" d="M0,278.55L21.36,281.74L42.73,286.79L85.45,295.35L106.82,300.63L128.18,304.28L149.55,309.3L192.27,316.93L213.64,319.5L363.18,330.73L384.55,331.56L405.91,332.44L427.27,332.5L448.64,333.27L470,335.04L491.36,335.65L512.73,338L534.09,338.83L555.45,340.93L598.18,343.92L619.55,345.2L640.91,344.96L662.27,290.89L683.64,332.56L705,348.23L705,371.49L683.64,359.19L662.27,324.68L640.91,367.71L619.55,368.39L598.18,367.59L555.45,365.41L534.09,363.54L512.73,361.93L491.36,361.33L470,360.61L448.64,359.07L405.91,353.65L384.55,352.31L341.82,352.28L320.45,352.94L277.73,352.04L256.36,351.3L213.64,349.34L192.27,348.05L85.45,339.86L64.09,337.59L0,330.61Z" style="fill: rgb(230, 57, 70); fill-opacity: 0.15; stroke-width: 0;"/></g></g><g class="errorbars"/><g class="lines"><path class="js-line" d="M0,278.55L21.36,281.74L42.73,286.79L85.45,295.35L106.82,300.63L128.18,304.28L149.55,309.3L192.27,316.93L213.64,319.5L363.18,330.73L384.55,331.56L405.91,332.44L427.27,332.5L448.64,333.27L470,335.04L491.36,335.65L512.73,338L534.09,338.83L555.45,340.93L598.18,343.92L619.55,345.2L640.91,344.96L662.27,290.89L683.64,332.56L705,348.23L705,371.49L683.64,359.19L662.27,324.68L640.91,367.71L619.55,368.39L598.18,367.59L555.45,365.41L534.09,363.54L512.73,361.93L491.36,361.33L470,360.61L448.64,359.07L405.91,353.65L384.55,352.31L341.82,352.28L320.45,352.94L277.73,352.04L256.36,351.3L213.64,349.34L192.27,348.05L85.45,339.86L64.09,337.59L0,330.61" style="vector-effect: none; fill: none; stroke: rgb(0, 0, 0); stroke-opacity: 0; stroke-width: 2px; opacity: 1;"/></g><g class="points"/><g class="text"/></g><g class="trace scatter trace62a486" style="stroke-miterlimit: 2; opacity: 1;"><g class="fills"/><g class="errorbars"/><g class="lines"><path class="js-line" d="M0,306.92L85.45,320.09L106.82,323.18L149.55,329.57L170.91,332.25L192.27,334.78L213.64,336.53L299.09,341.13L320.45,341.49L405.91,344.6L427.27,345.75L470,348.76L491.36,349.32L619.55,358.23L640.91,357.5L662.27,309.44L683.64,347.3L705,361.53" style="vector-effect: none; fill: none; stroke: rgb(230, 57, 70); stroke-opacity: 1; stroke-width: 2.5px; opacity: 1;"/></g><g class="points"><path class="point" transform="translate(0,306.92)" d="M2,0A2,2 0 1,1 0,-2A2,2 0 0,1 2,0Z" style="opacity: 1; stroke-width: 0px; fill: rgb(230, 57, 70); fill-opacity: 1;"/><path class="point" transform="translate(21.36,310.33)" d="M2,0A2,2 0 1,1 0,-2A2,2 0 0,1 2,0Z" style="opacity: 1; stroke-width: 0px; fill: rgb(230, 57, 70); fill-opacity: 1;"/><path class="point" transform="translate(42.73,313.59)" d="M2,0A2,2 0 1,1 0,-2A2,2 0 0,1 2,0Z" style="opacity: 1; stroke-width: 0px; fill: rgb(230, 57, 70); fill-opacity: 1;"/><path class="point" transform="translate(64.09,316.82)" d="M2,0A2,2 0 1,1 0,-2A2,2 0 0,1 2,0Z" style="opacity: 1; stroke-width: 0px; fill: rgb(230, 57, 70); fill-opacity: 1;"/><path class="point" transform="translate(85.45,320.09)" d="M2,0A2,2 0 1,1 0,-2A2,2 0 0,1 2,0Z" style="opacity: 1; stroke-width: 0px; fill: rgb(230, 57, 70); fill-opacity: 1;"/><path class="point" transform="translate(106.82,323.18)" d="M2,0A2,2 0 1,1 0,-2A2,2 0 0,1 2,0Z" style="opacity: 1; stroke-width: 0px; fill: rgb(230, 57, 70); fill-opacity: 1;"/><path class="point" transform="translate(128.18,326.47)" d="M2,0A2,2 0 1,1 0,-2A2,2 0 0,1 2,0Z" style="opacity: 1; stroke-width: 0px; fill: rgb(230, 57, 70); fill-opacity: 1;"/><path class="point" transform="translate(149.55,329.57)" d="M2,0A2,2 0 1,1 0,-2A2,2 0 0,1 2,0Z" style="opacity: 1; stroke-width: 0px; fill: rgb(230, 57, 70); fill-opacity: 1;"/><path class="point" transform="translate(170.91,332.25)" d="M2,0A2,2 0 1,1 0,-2A2,2 0 0,1 2,0Z" style="opacity: 1; stroke-width: 0px; fill: rgb(230, 57, 70); fill-opacity: 1;"/><path class="point" transform="translate(192.27,334.78)" d="M2,0A2,2 0 1,1 0,-2A2,2 0 0,1 2,0Z" style="opacity: 1; stroke-width: 0px; fill: rgb(230, 57, 70); fill-opacity: 1;"/><path class="point" transform="translate(213.64,336.53)" d="M2,0A2,2 0 1,1 0,-2A2,2 0 0,1 2,0Z" style="opacity: 1; stroke-width: 0px; fill: rgb(230, 57, 70); fill-opacity: 1;"/><path class="point" transform="translate(235,337.77)" d="M2,0A2,2 0 1,1 0,-2A2,2 0 0,1 2,0Z" style="opacity: 1; stroke-width: 0px; fill: rgb(230, 57, 70); fill-opacity: 1;"/><path class="point" transform="translate(256.36,338.97)" d="M2,0A2,2 0 1,1 0,-2A2,2 0 0,1 2,0Z" style="opacity: 1; stroke-width: 0px; fill: rgb(230, 57, 70); fill-opacity: 1;"/><path class="point" transform="translate(277.73,340.02)" d="M2,0A2,2 0 1,1 0,-2A2,2 0 0,1 2,0Z" style="opacity: 1; stroke-width: 0px; fill: rgb(230, 57, 70); fill-opacity: 1;"/><path class="point" transform="translate(299.09,341.13)" d="M2,0A2,2 0 1,1 0,-2A2,2 0 0,1 2,0Z" style="opacity: 1; stroke-width: 0px; fill: rgb(230, 57, 70); fill-opacity: 1;"/><path class="point" transform="translate(320.45,341.49)" d="M2,0A2,2 0 1,1 0,-2A2,2 0 0,1 2,0Z" style="opacity: 1; stroke-width: 0px; fill: rgb(230, 57, 70); fill-opacity: 1;"/><path class="point" transform="translate(341.82,342.1)" d="M2,0A2,2 0 1,1 0,-2A2,2 0 0,1 2,0Z" style="opacity: 1; stroke-width: 0px; fill: rgb(230, 57, 70); fill-opacity: 1;"/><path class="point" transform="translate(363.18,342.92)" d="M2,0A2,2 0 1,1 0,-2A2,2 0 0,1 2,0Z" style="opacity: 1; stroke-width: 0px; fill: rgb(230, 57, 70); fill-opacity: 1;"/><path class="point" transform="translate(384.55,343.71)" d="M2,0A2,2 0 1,1 0,-2A2,2 0 0,1 2,0Z" style="opacity: 1; stroke-width: 0px; fill: rgb(230, 57, 70); fill-opacity: 1;"/><path class="point" transform="translate(405.91,344.6)" d="M2,0A2,2 0 1,1 0,-2A2,2 0 0,1 2,0Z" style="opacity: 1; stroke-width: 0px; fill: rgb(230, 57, 70); fill-opacity: 1;"/><path class="point" transform="translate(427.27,345.75)" d="M2,0A2,2 0 1,1 0,-2A2,2 0 0,1 2,0Z" style="opacity: 1; stroke-width: 0px; fill: rgb(230, 57, 70); fill-opacity: 1;"/><path class="point" transform="translate(448.64,347.31)" d="M2,0A2,2 0 1,1 0,-2A2,2 0 0,1 2,0Z" style="opacity: 1; stroke-width: 0px; fill: rgb(230, 57, 70); fill-opacity: 1;"/><path class="point" transform="translate(470,348.76)" d="M2,0A2,2 0 1,1 0,-2A2,2 0 0,1 2,0Z" style="opacity: 1; stroke-width: 0px; fill: rgb(230, 57, 70); fill-opacity: 1;"/><path class="point" transform="translate(491.36,349.32)" d="M2,0A2,2 0 1,1 0,-2A2,2 0 0,1 2,0Z" style="opacity: 1; stroke-width: 0px; fill: rgb(230, 57, 70); fill-opacity: 1;"/><path class="point" transform="translate(512.73,350.77)" d="M2,0A2,2 0 1,1 0,-2A2,2 0 0,1 2,0Z" style="opacity: 1; stroke-width: 0px; fill: rgb(230, 57, 70); fill-opacity: 1;"/><path class="point" transform="translate(534.09,352.23)" d="M2,0A2,2 0 1,1 0,-2A2,2 0 0,1 2,0Z" style="opacity: 1; stroke-width: 0px; fill: rgb(230, 57, 70); fill-opacity: 1;"/><path class="point" transform="translate(555.45,354.38)" d="M2,0A2,2 0 1,1 0,-2A2,2 0 0,1 2,0Z" style="opacity: 1; stroke-width: 0px; fill: rgb(230, 57, 70); fill-opacity: 1;"/><path class="point" transform="translate(576.82,355.69)" d="M2,0A2,2 0 1,1 0,-2A2,2 0 0,1 2,0Z" style="opacity: 1; stroke-width: 0px; fill: rgb(230, 57, 70); fill-opacity: 1;"/><path class="point" transform="translate(598.18,356.96)" d="M2,0A2,2 0 1,1 0,-2A2,2 0 0,1 2,0Z" style="opacity: 1; stroke-width: 0px; fill: rgb(230, 57, 70); fill-opacity: 1;"/><path class="point" transform="translate(619.55,358.23)" d="M2,0A2,2 0 1,1 0,-2A2,2 0 0,1 2,0Z" style="opacity: 1; stroke-width: 0px; fill: rgb(230, 57, 70); fill-opacity: 1;"/><path class="point" transform="translate(640.91,357.5)" d="M2,0A2,2 0 1,1 0,-2A2,2 0 0,1 2,0Z" style="opacity: 1; stroke-width: 0px; fill: rgb(230, 57, 70); fill-opacity: 1;"/><path class="point" transform="translate(662.27,309.44)" d="M2,0A2,2 0 1,1 0,-2A2,2 0 0,1 2,0Z" style="opacity: 1; stroke-width: 0px; fill: rgb(230, 57, 70); fill-opacity: 1;"/><path class="point" transform="translate(683.64,347.3)" d="M2,0A2,2 0 1,1 0,-2A2,2 0 0,1 2,0Z" style="opacity: 1; stroke-width: 0px; fill: rgb(230, 57, 70); fill-opacity: 1;"/><path class="point" transform="translate(705,361.53)" d="M2,0A2,2 0 1,1 0,-2A2,2 0 0,1 2,0Z" style="opacity: 1; stroke-width: 0px; fill: rgb(230, 57, 70); fill-opacity: 1;"/></g><g class="text"/></g></g></g></g><path class="xlines-above crisp" d="M59.2,440.4H765.8M59.2,49.6H765.8" style="fill: none; stroke-width: 0.8px; stroke: rgb(51, 51, 51); stroke-opacity: 1;"/><path class="ylines-above crisp" d="M59.6,50V440M765.4,50V440" style="fill: none; stroke-width: 0.8px; stroke: rgb(51, 51, 51); stroke-opacity: 1;"/><g class="overlines-above"/><g class="xaxislayer-above"><g class="xtick"><text text-anchor="middle" x="0" y="454" transform="translate(60,0)" style="font-family: Arial, Helvetica, sans-serif; font-size: 11px; fill: rgb(34, 34, 34); fill-opacity: 1; white-space: pre; opacity: 1;">1990</text></g><g class="xtick"><text text-anchor="middle" x="0" y="454" style="font-family: Arial, Helvetica, sans-serif; font-size: 11px; fill: rgb(34, 34, 34); fill-opacity: 1; white-space: pre; opacity: 1;" transform="translate(166.82,0)">1995</text></g><g class="xtick"><text text-anchor="middle" x="0" y="454" style="font-family: Arial, Helvetica, sans-serif; font-size: 11px; fill: rgb(34, 34, 34); fill-opacity: 1; white-space: pre; opacity: 1;" transform="translate(273.64,0)">2000</text></g><g class="xtick"><text text-anchor="middle" x="0" y="454" style="font-family: Arial, Helvetica, sans-serif; font-size: 11px; fill: rgb(34, 34, 34); fill-opacity: 1; white-space: pre; opacity: 1;" transform="translate(380.45,0)">2005</text></g><g class="xtick"><text text-anchor="middle" x="0" y="454" style="font-family: Arial, Helvetica, sans-serif; font-size: 11px; fill: rgb(34, 34, 34); fill-opacity: 1; white-space: pre; opacity: 1;" transform="translate(487.27,0)">2010</text></g><g class="xtick"><text text-anchor="middle" x="0" y="454" style="font-family: Arial, Helvetica, sans-serif; font-size: 11px; fill: rgb(34, 34, 34); fill-opacity: 1; white-space: pre; opacity: 1;" transform="translate(594.09,0)">2015</text></g><g class="xtick"><text text-anchor="middle" x="0" y="454" style="font-family: Arial, Helvetica, sans-serif; font-size: 11px; fill: rgb(34, 34, 34); fill-opacity: 1; white-space: pre; opacity: 1;" transform="translate(700.91,0)">2020</text></g></g><g class="yaxislayer-above"><g class="ytick"><text text-anchor="end" x="57" y="3.8499999999999996" transform="translate(0,440)" style="font-family: Arial, Helvetica, sans-serif; font-size: 11px; fill: rgb(34, 34, 34); fill-opacity: 1; white-space: pre; opacity: 1;">0</text></g><g class="ytick"><text text-anchor="end" x="57" y="3.8499999999999996" style="font-family: Arial, Helvetica, sans-serif; font-size: 11px; fill: rgb(34, 34, 34); fill-opacity: 1; white-space: pre; opacity: 1;" transform="translate(0,372.8)">5</text></g><g class="ytick"><text text-anchor="end" x="57" y="3.8499999999999996" style="font-family: Arial, Helvetica, sans-serif; font-size: 11px; fill: rgb(34, 34, 34); fill-opacity: 1; white-space: pre; opacity: 1;" transform="translate(0,305.61)">10</text></g><g class="ytick"><text text-anchor="end" x="57" y="3.8499999999999996" style="font-family: Arial, Helvetica, sans-serif; font-size: 11px; fill: rgb(34, 34, 34); fill-opacity: 1; white-space: pre; opacity: 1;" transform="translate(0,238.41)">15</text></g><g class="ytick"><text text-anchor="end" x="57" y="3.8499999999999996" style="font-family: Arial, Helvetica, sans-serif; font-size: 11px; fill: rgb(34, 34, 34); fill-opacity: 1; white-space: pre; opacity: 1;" transform="translate(0,171.20999999999998)">20</text></g><g class="ytick"><text text-anchor="end" x="57" y="3.8499999999999996" style="font-family: Arial, Helvetica, sans-serif; font-size: 11px; fill: rgb(34, 34, 34); fill-opacity: 1; white-space: pre; opacity: 1;" transform="translate(0,104.00999999999999)">25</text></g></g><g class="overaxes-above"/></g></g><g class="polarlayer"/><g class="smithlayer"/><g class="ternarylayer"/><g class="geolayer"/><g class="funnelarealayer"/><g class="pielayer"/><g class="iciclelayer"/><g class="treemaplayer"/><g class="sunburstlayer"/><g class="glimages"/><defs id="topdefs-2d475b"><g class="clips"/><clipPath id="legend2d475b"><rect width="107" height="48" x="1" y="1"/></clipPath></defs><g class="layer-above"><g class="imagelayer"/><g class="shapelayer"/></g><g class="infolayer"><g class="legend" pointer-events="all" transform="translate(779.1,50)"><rect class="bg" shape-rendering="crispEdges" width="108" height="49" x="0.5" y="0.5" style="stroke: rgb(204, 204, 204); stroke-opacity: 1; fill: rgb(255, 255, 255); fill-opacity: 0.9; stroke-width: 1px;"/><g class="scrollbox" transform="" clip-path="url(#legend2d475b)"><g class="groups"><g class="traces" transform="translate(1,15.5)" style="opacity: 1;"><text class="legendtext" text-anchor="start" x="40" y="3.9" style="font-family: Arial, Helvetica, sans-serif; font-size: 10px; fill: rgb(34, 34, 34); fill-opacity: 1; white-space: pre;">NCD 30q70</text><g class="layers" style="opacity: 1;"><g class="legendfill"/><g class="legendlines"><path class="js-line" d="M5,0h30" style="fill: none; stroke: rgb(29, 53, 87); stroke-opacity: 1; stroke-width: 2.5px;"/></g><g class="legendsymbols"><g class="legendpoints"><path class="scatterpts" transform="translate(20,0)" d="M2,0A2,2 0 1,1 0,-2A2,2 0 0,1 2,0Z" style="opacity: 1; stroke-width: 0px; fill: rgb(29, 53, 87); fill-opacity: 1;"/></g></g></g><rect class="legendtoggle" x="0" y="-9.5" width="101.03125" height="19" style="fill: rgb(0, 0, 0); fill-opacity: 0;"/></g><g class="traces" transform="translate(1,34.5)" style="opacity: 1;"><text class="legendtext" text-anchor="start" x="40" y="3.9" style="font-family: Arial, Helvetica, sans-serif; font-size: 10px; fill: rgb(34, 34, 34); fill-opacity: 1; white-space: pre;">CMNN 30q70</text><g class="layers" style="opacity: 1;"><g class="legendfill"/><g class="legendlines"><path class="js-line" d="M5,0h30" style="fill: none; stroke: rgb(230, 57, 70); stroke-opacity: 1; stroke-width: 2.5px;"/></g><g class="legendsymbols"><g class="legendpoints"><path class="scatterpts" transform="translate(20,0)" d="M2,0A2,2 0 1,1 0,-2A2,2 0 0,1 2,0Z" style="opacity: 1; stroke-width: 0px; fill: rgb(230, 57, 70); fill-opacity: 1;"/></g></g></g><rect class="legendtoggle" x="0" y="-9.5" width="101.03125" height="19" style="fill: rgb(0, 0, 0); fill-opacity: 0;"/></g></g></g><rect class="scrollbar" rx="20" ry="3" width="0" height="0" x="0" y="0" style="fill: rgb(128, 139, 164); fill-opacity: 1;"/></g><g class="g-gtitle"/><g class="g-xtitle"><text class="xtitle" x="412.5" y="479.70000000000005" text-anchor="middle" style="opacity: 1; font-family: Arial, Helvetica, sans-serif; font-size: 13px; fill: rgb(34, 34, 34); fill-opacity: 1; white-space: pre;">Year</text></g><g class="g-ytitle"><text class="ytitle" transform="rotate(-90,25.6,245)" x="25.6" y="245" text-anchor="middle" style="opacity: 1; font-family: Arial, Helvetica, sans-serif; font-size: 13px; fill: rgb(34, 34, 34); fill-opacity: 1; white-space: pre;">Probability of premature death (%)</text></g></g></svg>